<svg xmlns="http://www.w3.org/2000/svg"
     width="943.431" height="890.376" viewBox="0 0 943.431 890.376"
     style="transform: scale(0.9) translateX(10%);"
     class="w-full h-full md:h-64 lg:h-full lg:mt-0 mt-12">
    <g transform="translate(-643.895 11)">
        <path style="fill:#5c9d04;opacity:.35;"
              d="M555.3,327.441c-43.408,77.248-113.273,9.045-242.451,24.411S94.4,458.988,38.594,388.9-22.334,158.029,89.639,71.518,370.069-21.118,486.485,42.862,598.712,250.194,555.3,327.441Z"
              transform="matrix(-0.966, 0.259, -0.259, -0.966, 1494.893, 663.611)" />
        <path style="opacity:0.178;fill:#5c9d04;"
              d="M33,467.787C84.03,578.144,166.168,480.709,318.039,502.66s256.832,153.056,322.439,52.933,71.631-329.832-60.013-453.422S250.772-30.171,113.905,61.233-18.037,357.43,33,467.787Z"
              transform="translate(1587.326 285.412) rotate(120)" />
        <path style="opacity:0.351;fill:#5c9d04;"
              d="M555.3,116.48C511.9,13.675,442.031,104.442,312.853,83.992S94.4-58.588,38.594,34.682-22.334,341.94,89.639,457.073s280.429,123.284,396.846,38.137S598.712,219.284,555.3,116.48Z"
              transform="matrix(0.966, 0.259, -0.259, 0.966, 786.828, 94.786)" />
        <g transform="translate(844 262.148)" class="hidden lg:block">
        </g>
    </g>
</svg>