<?xml version="1.0" encoding="UTF-8"?>
<!-- Generator: Adobe Illustrator 27.7.0, SVG Export Plug-In . SVG Version: 6.00 Build 0)  -->
<svg xmlns="http://www.w3.org/2000/svg" xmlns:xlink="http://www.w3.org/1999/xlink" version="1.1" id="Layer_1" x="0px" y="0px" viewBox="0 0 1076 684" style="enable-background:new 0 0 1076 684;" xml:space="preserve">
<style type="text/css">
	.st0{fill:#5E9C1C;}
	.st1{fill:#FAFAFA;}
	.st2{fill:#233212;}
	.st3{fill:#D2E7B4;}
	.st4{fill:#FFFFFF;}
	.st5{fill:none;stroke:#FAFAFA;stroke-width:2.2815;stroke-miterlimit:10;}
	.st6{fill:none;stroke:#5E9C1C;stroke-width:2.5435;stroke-miterlimit:10;}
	.st7{fill:none;stroke:#D2E7B4;stroke-width:14.5033;stroke-miterlimit:10;}
	.st8{fill:none;stroke:#233212;stroke-width:2.5391;stroke-miterlimit:10;}
	.st9{fill:#D2E7B4;stroke:#5E9C1C;stroke-width:2.5435;stroke-miterlimit:10;}
	.st10{fill:#6FAF2F;}
	.st11{fill:#EE9E55;}
	.st12{fill:#2F4E0E;}
	.st13{fill:none;stroke:#477515;stroke-width:2.4172;stroke-miterlimit:10;}
</style>
<g id="Layer_4">
	<g>
		<path class="st0" d="M252.6,613.8c0,0-3.6-1.4-7.8-0.1c-0.3,0.1-0.5,0.2-0.8,0.3c-2,0.8-4.1,2.3-5.9,4.8c-0.4,0.6-0.8,1.4-1.2,2.4    c2.5-8.7,4.4-18.6,3.3-26.5c-0.1-0.6-0.2-1.1-0.3-1.7c-1.2-6.3-4.6-11.1-11.4-12.8c0,0-0.9-0.2-2.3-0.1c-0.2,0-0.4,0-0.7,0.1    c-2.7,0.3-6.7,1.7-9.4,6.4c-1.6-13.3-5-31.5-12.4-41.7c-0.4-0.5-0.8-1-1.2-1.5c-3.7-4.5-8.4-7-14.2-6.2c0,0-0.9,0.2-2.1,0.8    c-0.2,0.1-0.4,0.2-0.7,0.3c-1.8,1-4.1,2.8-5.4,6c-2.6-4-5.7-8.3-9-12.3c-0.2-0.2-0.3-0.3-0.4-0.5c-4.8-5.7-10.2-10.6-15.6-12.5    c-0.2-0.1-0.5-0.2-0.7-0.2c-0.8-0.3-1.6-0.4-2.4-0.6c-5.3-0.7-9,0.7-11.3,2.2c-0.2,0.1-0.4,0.2-0.5,0.4c-1.8,1.3-2.6,2.5-2.6,2.5    c-1.8,3.8-1.9,7.6-0.8,11.4c0,0.2,0.1,0.4,0.2,0.6c2.3,7,8.6,13.8,16.1,19.8c0.2,0.2,0.4,0.3,0.6,0.5c4.5,3.6,9.5,6.8,14.1,9.6    c-9.5-2.2-13.7,5.3-13.7,5.3c0,0.1-0.1,0.2-0.1,0.3c-0.1,0.2-0.2,0.4-0.2,0.6c-2.8,6.9-0.1,13.1,5.2,18.5c0.3,0.3,0.6,0.6,0.9,0.9    c6.1,5.7,15,10.4,23.2,13.9c-7.4-0.8-11.2,4.5-11.8,5.5c-0.1,0.1-0.1,0.2-0.1,0.2c-0.1,0.1-0.1,0.3-0.2,0.4    c-3.1,7.1-0.6,13.2,4.7,18.5c0.3,0.3,0.6,0.6,0.9,0.9c4.6,4.3,10.9,7.9,17.3,10.9c-4.9,0.7-7.5,3.6-8.9,5.7    c-0.1,0.2-0.3,0.4-0.4,0.6c-0.5,1-0.8,1.7-0.8,1.7c-1.9,8.2,3.1,14.1,10.8,18.4c0.3,0.2,0.6,0.4,1,0.5    c16.3,8.4,43.8,10.2,49.1,10.5c0.3,0,0.5,0,0.7,0c0.1,0,0.2,0,0.2,0s21-35,15.2-54.4c-0.1-0.4-0.2-0.8-0.4-1.2l0,0    C259.3,618.9,256.7,615.8,252.6,613.8L252.6,613.8z"></path>
		<path class="st1" d="M190.9,647.3c-2-0.4-3.9-0.6-5.8-0.6c-0.1,0.2-0.3,0.4-0.4,0.6c1.9,0,4,0.2,6,0.6c8.5,1.6,15.2,5.8,16.6,10.2    c0.3,0.9,0.4,1.7,0.2,2.6c-0.7,3.9-5.9,6.4-12.7,6.6c0.3,0.2,0.6,0.4,1,0.5c2-0.1,3.9-0.5,5.6-1c3.7-1.2,6.3-3.3,6.8-6    C209.2,655.3,201.5,649.2,190.9,647.3z"></path>
		<path class="st1" d="M178.9,612.1c-2.6-0.9-5.2-1.5-7.6-1.9c-0.1,0.1-0.1,0.2-0.1,0.2c-0.1,0.1-0.1,0.3-0.2,0.4    c2.4,0.3,5,0.9,7.6,1.9c9.8,3.5,16.5,9.8,15,14.2c-0.7,2.1-3.2,3.4-7.1,3.8c-3.2,0.3-6.9-0.2-10.8-1.3c0.3,0.3,0.6,0.6,0.9,0.9    c3.6,0.9,7,1.2,9.9,1c1.2-0.1,2.4-0.3,3.3-0.6c2.2-0.7,3.7-1.9,4.2-3.5C195.9,622.3,189,615.6,178.9,612.1z"></path>
		<path class="st1" d="M162.8,572.9c-3-1.1-6-1.7-8.8-2c-0.1,0.2-0.2,0.4-0.2,0.6c2.8,0.3,5.8,1,8.8,2c7.8,2.8,13.7,7.4,14.9,11.3    c0.3,1,0.3,2,0,2.8c-1.4,4.1-9.6,5-18.6,2.3c0.3,0.3,0.6,0.6,0.9,0.9c5.5,1.5,10.6,1.6,14,0.5c2.2-0.7,3.7-1.9,4.3-3.5    C179.8,583.2,173,576.5,162.8,572.9L162.8,572.9z"></path>
		<path class="st1" d="M145.3,536.7c-2.9-1-5.7-1.7-8.4-2c0,0.2,0.1,0.4,0.2,0.6c2.6,0.3,5.3,1,8,1.9c7.8,2.7,13.7,7.3,14.9,11.3    c0.3,1,0.4,2,0,2.9c-0.7,2.1-3.3,3.4-7,3.7c0.2,0.2,0.4,0.3,0.6,0.5c1-0.1,1.8-0.3,2.6-0.6c2.2-0.7,3.7-1.9,4.3-3.5    C162.3,546.9,155.4,540.3,145.3,536.7z"></path>
		<path class="st1" d="M170.8,531.5c-0.9,2.2-2.3,3.5-3.9,3.9c-4.5,0.9-9.7-6.4-11.7-16.4c-0.2-0.1-0.5-0.2-0.7-0.2    c2.1,10.4,7.7,18.2,12.5,17.2c0.2,0,0.3-0.1,0.5-0.1c1.5-0.5,2.8-1.8,3.7-3.8C171.1,531.9,171,531.7,170.8,531.5z"></path>
		<path class="st1" d="M202.6,543.4c0.5,1.3,1,2.7,1.4,4.2c3,10.8,1.8,20.7-2.7,21.9c-4.5,1.2-10.5-6.6-13.5-17.4    c-1.4-5.1-1.9-10-1.5-14.1c-0.2,0.1-0.4,0.2-0.7,0.3c-0.4,4.1,0.2,9,1.6,13.9c0.2,0.6,0.4,1.3,0.5,1.9c3.2,10.2,9.2,17.2,13.7,16    l0.2-0.1c4.7-1.5,6-11.5,2.9-22.6c-0.2-0.9-0.5-1.7-0.7-2.5C203.4,544.4,203,543.9,202.6,543.4L202.6,543.4z"></path>
		<path class="st1" d="M228.1,611c-2.2-0.4-3.8-2.8-4.7-6.8c-0.9-4.1-0.9-9.3,0.1-14.7c0.6-3.4,1.6-6.5,2.7-9.3    c-0.2,0-0.4,0-0.7,0.1c-1.2,2.7-2.1,5.8-2.7,9.1c-1,5.5-1,10.8-0.1,15c0.1,0.6,0.3,1.3,0.5,1.8c1,3.2,2.6,5.1,4.7,5.5    c0.7,0.1,1.4,0.1,2.1-0.2c4-1.3,8.1-8,10.1-16.7c-0.1-0.6-0.2-1.1-0.3-1.7C237.8,603.8,232.6,611.8,228.1,611L228.1,611z"></path>
		<path class="st1" d="M259.9,626c-3.3,11.2-9.9,19-14.8,17.6c-4.9-1.4-6.3-11.7-3-22.8c0.8-2.6,1.7-5,2.8-7.2    c-0.3,0.1-0.5,0.2-0.8,0.3c-1,2-1.8,4.3-2.5,6.7c-2.1,7.2-2.3,14-0.9,18.4c0.9,2.7,2.3,4.6,4.3,5.1c1,0.3,2,0.2,3.1-0.1    c4.6-1.5,9.8-8.6,12.5-17.9c0.2-0.8,0.4-1.5,0.6-2.2c-0.1-0.4-0.2-0.8-0.4-1.2C260.5,623.9,260.2,624.9,259.9,626L259.9,626z"></path>
		<path class="st1" d="M245.6,678.4c-0.2,0-0.4,0-0.7,0c-20.7-43.6-50.9-100.6-81.8-136c-10.1-11.6-17.8-18-22.8-21.5    c0.2-0.1,0.3-0.3,0.5-0.4c5.1,3.5,12.7,9.9,22.7,21.4C180.9,561.8,209.2,601.6,245.6,678.4L245.6,678.4z"></path>
	</g>
</g>
<g id="Layer_3">
	<g id="_29NnQ7.tif">
		<path class="st2" d="M803.8,263.7c0,6.8-0.3,13.5-0.7,20.3c-0.3,6.4-0.8,12.7-1.3,19.1c-0.4,4.8-0.9,9.5-1.4,14.3    c-0.4,3.4-0.8,6.8-1.3,10.2c-1.4,7.8-2.6,15.7-4.2,23.5c-3.6,17.8-8.7,35.2-16.3,51.6c-6.5,14.1-14.4,27.4-23.6,40    c-12.9,17.8-27.5,34.1-43.1,49.4c-8.4,8.3-17.2,16-26.1,23.8c-10.1,8.8-20.7,17-31.5,25c-8,6-16.4,11.4-24.6,17.2    c-0.9,0.7-4.1,0.7-5,0c-8.2-5.7-16.6-11.2-24.6-17.2c-10.8-8-21.3-16.2-31.5-25c-8.9-7.7-17.7-15.5-26.1-23.8    c-15.6-15.4-30.2-31.6-43.1-49.4c-9.2-12.6-17.1-25.9-23.6-40c-7.7-16.5-12.8-33.8-16.3-51.6c-1.6-7.8-2.8-15.7-4.2-23.5    c-0.4-3.4-0.9-6.8-1.3-10.2c-0.5-4.8-1-9.5-1.4-14.3c-0.5-6.3-1-12.7-1.3-19.1c-0.4-6.7-0.7-13.5-0.7-20.3    c0.1-12.8,0.4-25.7,0.6-38.5c0.1-3.8,0.2-7.7,0.4-11.5c0.1-2,0.2-4,0.4-6.1c0.4-5,0.9-10,1.3-15c0.1-1.1,0.3-1.6,1.5-1.8    c5.5-0.7,11.1-1.3,16.6-2.2c12.5-2,25-3.9,37.4-6.3c17.7-3.3,35.2-7.7,52.4-13.4c4.5-1.5,8.9-3.2,13.4-4.8    c4.8-1.9,9.7-3.7,14.4-5.8c7.8-3.6,15.8-6.9,22.8-11.9c4.1-3,8.2-6.1,12.2-9.2c1.2-0.9,5.3-0.9,6.4,0c4,3.1,8.1,6.2,12.2,9.2    c7,5,15,8.3,22.8,11.9c4.7,2.2,9.6,3.9,14.5,5.8c4.5,1.6,8.9,3.3,13.4,4.8c17.1,5.7,34.6,10.1,52.4,13.4    c12.4,2.3,29.3-6.2,41.7-4.2l11.9,12.5c1.2,1.2,1.9,2.9,2,4.6c0.3,4.1,0.7,8.2,1.1,12.3c0.2,2,0.3,4,0.4,6.1    c0.2,3.8,0.3,7.7,0.4,11.5C803.4,238,803.7,250.9,803.8,263.7L803.8,263.7z"></path>
	</g>
	<g id="_29NnQ7.tif-2">
		<path class="st3" d="M789.6,251.6c0,6.8-0.3,13.5-0.7,20.3c-0.3,6.4-0.8,12.7-1.3,19.1c-0.4,4.8-0.9,9.5-1.4,14.3    c-0.4,3.4-0.8,6.8-1.3,10.2c-1.4,7.8-2.6,15.7-4.2,23.5c-3.6,17.8-8.7,35.2-16.3,51.6c-6.5,14.1-14.4,27.4-23.6,40    c-12.9,17.8-27.5,34.1-43.1,49.4c-8.4,8.3-17.2,16-26.1,23.8c-10.1,8.8-20.7,17-31.5,25c-8,6-16.4,11.4-24.6,17.2    c-0.9,0.7-4.1,0.7-5,0c-8.2-5.7-16.6-11.2-24.6-17.2c-10.8-8-21.3-16.2-31.5-25c-8.9-7.7-17.7-15.5-26.1-23.8    c-15.6-15.4-30.2-31.6-43.1-49.4c-9.2-12.6-17.1-25.9-23.6-40c-7.7-16.5-12.8-33.8-16.3-51.6c-1.6-7.8-2.8-15.7-4.2-23.5    c-0.4-3.4-0.9-6.8-1.3-10.2c-0.5-4.8-1-9.5-1.4-14.3c-0.5-6.3-1-12.7-1.3-19.1c-0.4-6.7-0.7-13.5-0.7-20.3    c0.1-12.8,0.4-25.7,0.6-38.5c0.1-3.8,0.2-7.7,0.4-11.5c0.1-2,0.2-4,0.4-6.1c0.4-5,0.9-10,1.3-15c0.1-1.1,0.3-1.6,1.5-1.8    c5.5-0.7,11.1-1.3,16.6-2.2c12.5-2,25-3.9,37.4-6.3c17.7-3.3,35.2-7.7,52.4-13.4c4.5-1.5,8.9-3.2,13.4-4.8    c4.8-1.9,9.7-3.7,14.4-5.8c7.8-3.6,15.8-6.9,22.8-11.9c4.1-3,8.2-6.1,12.2-9.2c1.2-0.9,5.3-0.9,6.4,0c4,3.1,8.1,6.2,12.2,9.2    c7,5,15,8.3,22.8,11.9c4.7,2.2,9.6,3.9,14.5,5.8c4.5,1.6,8.9,3.3,13.4,4.8c17.1,5.7,34.6,10.1,52.4,13.4c12.4,2.3,25,4.3,37.4,6.3    c5.5,0.9,11,1.6,16.6,2.2c1.2,0.2,1.4,0.7,1.5,1.8c0.4,5,0.9,10,1.3,15c0.2,2,0.3,4,0.4,6.1c0.2,3.8,0.3,7.7,0.4,11.5    C789.2,226,789.6,238.8,789.6,251.6L789.6,251.6z"></path>
	</g>
	<rect x="471.7" y="279.9" class="st4" width="64.4" height="34.9"></rect>
	<g>
		<rect x="362.6" y="609.1" class="st3" width="141" height="67.4"></rect>
		<line class="st5" x1="385.7" y1="609.1" x2="385.7" y2="676.5"></line>
		<line class="st5" x1="411.8" y1="609.1" x2="411.8" y2="676.5"></line>
		<line class="st5" x1="437.8" y1="609.1" x2="437.8" y2="676.5"></line>
		<line class="st5" x1="463.9" y1="609.1" x2="463.9" y2="676.5"></line>
		<line class="st5" x1="489.9" y1="609.1" x2="489.9" y2="676.5"></line>
		<line class="st5" x1="503.6" y1="642.8" x2="361.5" y2="642.8"></line>
	</g>
	<polyline class="st6" points="504.2,454.4 664.8,454.4 697,454.4 721.8,454.4  "></polyline>
	<line class="st6" x1="749.4" y1="419.5" x2="477.6" y2="419.5"></line>
	<line class="st6" x1="767.2" y1="384.6" x2="458.8" y2="384.6"></line>
	<line class="st6" x1="777.8" y1="349.8" x2="448.1" y2="349.8"></line>
	<line class="st6" x1="784" y1="314.8" x2="441.9" y2="314.8"></line>
	<line class="st6" x1="788.5" y1="279.9" x2="438.7" y2="279.9"></line>
	<line class="st6" x1="789.3" y1="245" x2="437.6" y2="245"></line>
	<line class="st6" x1="789.3" y1="210.1" x2="437.5" y2="210.1"></line>
	<line class="st6" x1="735.6" y1="175.2" x2="465.4" y2="175.2"></line>
	<polyline class="st6" points="646.1,524.2 612.8,524.2 612.8,489.3 677.2,489.3 677.2,498.9  "></polyline>
	<polyline class="st6" points="538.2,489.3 568.2,489.3 568.2,454.4 536,454.4  "></polyline>
	<rect x="568.2" y="454.4" class="st6" width="64.4" height="34.9"></rect>
	<polyline class="st6" points="697,454.4 664.8,454.4 632.6,454.4 632.6,489.3  "></polyline>
	<rect x="503.9" y="384.6" class="st6" width="64.4" height="34.9"></rect>
	<rect x="632.6" y="384.6" class="st6" width="64.4" height="34.9"></rect>
	<rect x="503.9" y="314.8" class="st6" width="64.4" height="34.9"></rect>
	<rect x="568.2" y="314.8" class="st6" width="64.4" height="34.9"></rect>
	<rect x="632.6" y="314.8" class="st6" width="64.4" height="34.9"></rect>
	<rect x="503.9" y="245" class="st6" width="64.4" height="34.9"></rect>
	<rect x="568.2" y="245" class="st6" width="64.4" height="34.9"></rect>
	<rect x="632.6" y="245" class="st6" width="64.4" height="34.9"></rect>
	<rect x="697" y="245" class="st6" width="64.4" height="34.9"></rect>
	<rect x="503.9" y="175.2" class="st6" width="64.4" height="34.9"></rect>
	<rect x="568.2" y="175.2" class="st6" width="64.4" height="34.9"></rect>
	<rect x="632.6" y="175.2" class="st6" width="64.4" height="34.9"></rect>
	<polyline class="st6" points="761.3,176.1 761.3,210.1 697,210.1 697,175.2 759.6,175.2  "></polyline>
	<rect x="697" y="314.8" class="st6" width="64.4" height="34.9"></rect>
	<line class="st6" x1="536" y1="419.5" x2="536" y2="454.4"></line>
	<rect x="536" y="419.5" class="st6" width="64.4" height="34.9"></rect>
	<rect x="600.4" y="419.5" class="st6" width="64.4" height="34.9"></rect>
	<polyline class="st6" points="721.8,454.4 697,454.4 664.8,454.4 664.8,419.5 729.1,419.5 729.1,445.8  "></polyline>
	<rect x="471.7" y="349.7" class="st6" width="64.4" height="34.9"></rect>
	<rect x="536" y="349.7" class="st6" width="64.4" height="34.9"></rect>
	<rect x="600.4" y="349.7" class="st6" width="64.4" height="34.9"></rect>
	<rect x="664.8" y="349.7" class="st6" width="64.4" height="34.9"></rect>
	<rect x="471.7" y="279.9" class="st6" width="64.4" height="34.9"></rect>
	<rect x="536" y="279.9" class="st6" width="64.4" height="34.9"></rect>
	<rect x="600.4" y="279.9" class="st6" width="64.4" height="34.9"></rect>
	<rect x="664.8" y="279.9" class="st6" width="64.4" height="34.9"></rect>
	<rect x="471.7" y="210.1" class="st6" width="64.4" height="34.9"></rect>
	<rect x="536" y="210.1" class="st6" width="64.4" height="34.9"></rect>
	<rect x="600.4" y="210.1" class="st6" width="64.4" height="34.9"></rect>
	<rect x="664.8" y="210.1" class="st6" width="64.4" height="34.9"></rect>
	<line class="st6" x1="587.5" y1="140.3" x2="638.6" y2="140.3"></line>
	<polyline class="st6" points="664.8,156.2 664.8,175.2 600.4,175.2 600.4,140.3  "></polyline>
	<polyline class="st6" points="729.1,174.1 729.1,175.2 664.8,175.2 664.8,152.1  "></polyline>
	<polyline class="st6" points="697,480.8 697,454.4 721.8,454.4  "></polyline>
	<line class="st6" x1="536" y1="175.2" x2="536" y2="160.3"></line>
	<line class="st6" x1="579.8" y1="524.2" x2="613.8" y2="524.2"></line>
	<path class="st7" d="M620.3,594.8c-11.2,0-21.6-3.2-30.3-9.3c-2.5-1.7-5.1-3.5-7.8-5.3c-5.8-3.9-11.8-8-17.9-12.5   c-13-9.6-24.2-18.5-34.4-27.3c-8.5-7.4-18.6-16.2-28.3-25.8c-18.9-18.5-34.7-36.7-48.3-55.4c-11.1-15.2-20.6-31.4-28.3-48   c-8.7-18.7-15.2-39.2-19.9-62.5c-1.2-5.9-2.1-11.5-3.1-16.9c-0.4-2.5-0.9-5.1-1.3-7.6l-0.2-1.4l-0.2-1.4c-0.2-1.3-0.3-2.6-0.5-4   c-0.3-2.2-0.6-4.4-0.8-6.6l0-0.3c-0.5-4.9-1.1-10.1-1.5-15.6c-0.6-7.9-1.1-14.3-1.4-20.4c-0.4-6.9-0.8-14.8-0.8-23   c0.1-9.6,0.2-19.1,0.4-28.3c0.1-3.6,0.1-7.2,0.2-10.8c0.1-4.3,0.2-8.4,0.4-12.6c0.1-2.7,0.3-5.5,0.5-8.2c0.2-2.2,0.4-4.4,0.6-6.5   c0.2-2.7,0.5-5.4,0.7-8c1.8-24.1,19.8-43.1,43.8-46.1l1.7-0.2c4.7-0.6,9.1-1.1,13.1-1.8l6.1-1c10.5-1.7,20.3-3.2,30.1-5.1   c16.3-3.1,31.8-7,46-11.8c2.6-0.9,5.3-1.9,8-2.8c1.2-0.4,2.4-0.9,3.6-1.3c1.4-0.6,2.8-1.1,4.2-1.7c2.7-1.1,5.3-2.1,7.3-3   c1.2-0.5,2.4-1.1,3.7-1.7c4.4-2,8.9-4,11-5.5c3.9-2.8,7.8-5.8,10.8-8.1c9.1-7.1,20.5-10.8,32.8-10.8c12.4,0,23.7,3.8,32.9,10.9   c3.2,2.5,7,5.4,10.7,8c2.1,1.5,6.6,3.5,11,5.5c1.3,0.6,2.5,1.1,3.8,1.7c1.9,0.9,4.5,1.9,7.3,3c1.4,0.5,2.8,1.1,4.2,1.6l3.2,1.2   c2.8,1,5.5,2,8.3,3c14.2,4.7,29.6,8.7,45.9,11.8c9.8,1.8,19.7,3.4,30.2,5.1l6,1c4.2,0.7,8.6,1.2,13.3,1.8l1.5,0.2   c24,3,41.9,21.9,43.7,46.1c0.2,2.6,0.4,5.3,0.7,7.9c0.2,2.2,0.4,4.4,0.6,6.7c0.2,2.8,0.4,5.5,0.5,8.3c0.2,4.1,0.3,8.2,0.4,12.4   c0.1,3.8,0.1,7.5,0.2,11.2c0.2,9.1,0.4,18.5,0.4,27.9c0,8.3-0.4,16.2-0.8,23.1c-0.3,7.1-0.9,14.3-1.4,20.4   c-0.4,5.5-1,10.7-1.5,15.6c-0.3,3.1-0.7,5.9-1.1,8.7l-0.5,3.7l-0.2,1.2c-0.5,2.5-0.9,5.1-1.3,7.6c-0.9,5.4-1.9,11-3,16.8   c-4.7,23.4-11.2,43.8-19.9,62.6c-7.7,16.6-17.3,32.8-28.3,48c-13.6,18.8-29.5,36.9-48.4,55.5c-9.7,9.6-19.8,18.4-28.3,25.8   c-10.1,8.8-21.4,17.7-34.4,27.3c-6,4.5-12,8.6-17.8,12.5c-2.6,1.8-5.2,3.6-7.9,5.4C641.9,591.6,631.5,594.8,620.3,594.8z"></path>
	<path class="st8" d="M789.6,251.6c0,6.8-0.3,13.5-0.7,20.3c-0.3,6.4-0.8,12.7-1.3,19.1c-0.4,4.8-0.9,9.5-1.4,14.3   c-0.4,3.4-0.8,6.8-1.3,10.2c-1.4,7.8-2.6,15.7-4.2,23.5c-3.6,17.8-8.7,35.2-16.3,51.6c-6.5,14.1-14.4,27.4-23.6,40   c-12.9,17.8-27.5,34.1-43.1,49.4c-8.4,8.3-17.2,16-26.1,23.8c-10.1,8.8-20.7,17-31.5,25c-8,6-16.4,11.4-24.6,17.2   c-0.9,0.7-4.1,0.7-5,0c-8.2-5.7-16.6-11.2-24.6-17.2c-10.8-8-21.3-16.2-31.5-25c-8.9-7.7-17.7-15.5-26.1-23.8   c-15.6-15.4-30.2-31.6-43.1-49.4c-9.2-12.6-17.1-25.9-23.6-40c-7.7-16.5-12.8-33.8-16.3-51.6c-1.6-7.8-2.8-15.7-4.2-23.5   c-0.4-3.4-0.9-6.8-1.3-10.2c-0.5-4.8-1-9.5-1.4-14.3c-0.5-6.3-1-12.7-1.3-19.1c-0.4-6.7-0.7-13.5-0.7-20.3   c0.1-12.8,0.4-25.7,0.6-38.5c0.1-3.8,0.2-7.7,0.4-11.5c0.1-2,0.2-4,0.4-6.1c0.4-5,0.9-10,1.3-15c0.1-1.1,0.3-1.6,1.5-1.8   c5.5-0.7,11.1-1.3,16.6-2.2c12.5-2,25-3.9,37.4-6.3c17.7-3.3,35.2-7.7,52.4-13.4c4.5-1.5,8.9-3.2,13.4-4.8   c4.8-1.9,9.7-3.7,14.4-5.8c7.8-3.6,15.8-6.9,22.8-11.9c4.1-3,8.2-6.1,12.2-9.2c1.2-0.9,5.3-0.9,6.4,0c4,3.1,8.1,6.2,12.2,9.2   c7,5,15,8.3,22.8,11.9c4.7,2.2,9.6,3.9,14.5,5.8c4.5,1.6,8.9,3.3,13.4,4.8c17.1,5.7,34.6,10.1,52.4,13.4c12.4,2.3,25,4.3,37.4,6.3   c5.5,0.9,11,1.6,16.6,2.2c1.2,0.2,1.4,0.7,1.5,1.8c0.4,5,0.9,10,1.3,15c0.2,2,0.3,4,0.4,6.1c0.2,3.8,0.3,7.7,0.4,11.5   C789.2,226,789.6,238.8,789.6,251.6L789.6,251.6z"></path>
	<rect x="431.5" y="279.9" class="st9" width="64.4" height="34.9"></rect>
	<polyline class="st2" points="505.9,280.8 505.9,314 495.9,314 495.9,280.8 500.9,280.8  "></polyline>
	<g>
		
			<rect x="806.7" y="610.5" transform="matrix(0.9359 -0.3522 0.3522 0.9359 -164.5424 323.8842)" class="st10" width="2.3" height="7.3"></rect>
		<path class="st10" d="M800,596.7l-5.4-14.4l2.1-0.8l5.4,14.4L800,596.7z M789.2,568l-5.4-14.4l2.1-0.8l5.4,14.4L789.2,568z     M778.4,539.2l-5.4-14.4l2.1-0.8l5.4,14.4L778.4,539.2z"></path>
		<polygon class="st10" points="767.6,510.5 764.5,502.2 773.3,501.7 773.4,504 767.7,504.3 769.7,509.7   "></polygon>
		<path class="st10" d="M788.5,503l-0.1-2.3l15.1-0.9l0.1,2.3L788.5,503z M818.8,501.2l-0.1-2.3l15.1-0.9l0.1,2.3L818.8,501.2z     M849.1,499.3L849,497l15.1-0.9l0.1,2.3L849.1,499.3z M879.4,497.4l-0.1-2.3l15.1-0.9l0.1,2.3L879.4,497.4z M909.7,495.5l-0.1-2.3    l15.1-0.9l0.1,2.3L909.7,495.5z M940,493.6l-0.1-2.3l15.1-0.9l0.1,2.3L940,493.6z M970.3,491.8l-0.1-2.3l15.1-0.9l0.1,2.3    L970.3,491.8z"></path>
		
			<rect x="1000.5" y="487.4" transform="matrix(0.9981 -6.212045e-02 6.212045e-02 0.9981 -28.4074 63.3194)" class="st10" width="7.3" height="2.3"></rect>
	</g>
	<path class="st10" d="M45.9,302.3l-0.6-2.2l10-2.7l0.6,2.2L45.9,302.3z M69.9,295.8l-0.6-2.2l14-3.7l0.6,2.2L69.9,295.8z M98,288.4   l-0.6-2.2l14-3.7l0.6,2.2L98,288.4z M126,280.9l-0.6-2.2l14-3.7l0.6,2.2L126,280.9z M154,273.4l-0.6-2.2l14-3.7l0.6,2.2L154,273.4z    M182,265.9l-0.6-2.2l14-3.7l0.6,2.2L182,265.9z M210,258.4l-0.6-2.2l14-3.7l0.6,2.2L210,258.4z M238.1,250.9l-0.6-2.2l14-3.7   l0.6,2.2L238.1,250.9z M266.1,243.4l-0.6-2.2l14-3.7l0.6,2.2L266.1,243.4z M294.1,235.9l-0.6-2.2l14-3.7l0.6,2.2L294.1,235.9z    M322.1,228.4l-0.6-2.2l14-3.7l0.6,2.2L322.1,228.4z M350.2,220.9l-0.6-2.2l14-3.7l0.6,2.2L350.2,220.9z M378.2,213.4l-0.6-2.2   l6.4-1.7l-2.8-3.1l1.7-1.5l5.2,5.9L378.2,213.4z M371.6,195.6l-9.7-10.8l1.7-1.5l9.7,10.8L371.6,195.6z M352.2,174l-9.7-10.8   l1.7-1.5l9.7,10.8L352.2,174z M332.9,152.3l-9.7-10.8l1.7-1.5l9.7,10.8L332.9,152.3z M313.6,130.7l-9.7-10.8l1.7-1.5l9.7,10.8   L313.6,130.7z M294.3,109.1l-9.7-10.8l1.7-1.5l9.7,10.8L294.3,109.1z"></path>
	<path class="st10" d="M926,284.6l-12.8-6.9l1.1-2l12.8,6.9L926,284.6z M900.5,270.8l-12.8-6.9l1.1-2l12.8,6.9L900.5,270.8z    M875,257l-12.8-6.9l1.1-2l12.8,6.9L875,257z M861.1,242.6l-1.3-1.9l12.1-8l1.3,1.9L861.1,242.6z M885.3,226.6l-1.3-1.9l12.1-8   l1.3,1.9L885.3,226.6z M909.4,210.5l-1.3-1.9l12.1-8l1.3,1.9L909.4,210.5z M933.6,194.5l-1.3-1.9l12.1-8l1.3,1.9L933.6,194.5z    M957.8,178.4l-1.3-1.9l12.1-8l1.3,1.9L957.8,178.4z M981.9,162.4l-1.3-1.9l12.1-8l1.3,1.9L981.9,162.4z M1006.1,146.3l-1.3-1.9   l12.1-8l1.3,1.9L1006.1,146.3z M1030.3,130.3l-1.3-1.9l12.1-8l1.3,1.9L1030.3,130.3z M1054.4,114.2l-1.3-1.9l12.1-8l1.3,1.9   L1054.4,114.2z"></path>
	<circle class="st2" cx="816.1" cy="636.5" r="12.4"></circle>
	<circle class="st2" cx="22.4" cy="306.7" r="12.4"></circle>
	<circle class="st2" cx="961.6" cy="300.2" r="12.4"></circle>
</g>
<g id="Layer_7">
	<polygon class="st0" points="268,451.2 228.7,660.3 287,660.3 308.3,535.4 332.8,660.3 385.8,660.3 334.1,451.2  "></polygon>
	<polygon class="st3" points="226.9,485.2 251.3,494.7 268,437.7 268,451.2 334.1,451.2 337.2,404.7 382.8,376.2 431.1,319.8    410.8,310.3 367.5,353.1 317.5,366.6 283.1,368.7 271.8,373.2 261.8,381.2 253.7,395.3 244.1,427.4  "></polygon>
	<polygon class="st11" points="228.7,485.9 222,500.7 220.5,508.6 220.5,519.2 225.8,521.1 231.2,520.5 232.9,510.3 234.7,505.6    238.6,503.9 239.6,508 236.9,514.1 238,516.5 240.2,516.6 246.2,506.8 246.2,492.7  "></polygon>
	<polygon class="st12" points="270.2,373.6 270.2,365.1 271.6,358.2 276.9,350.9 282.7,347.1 285.5,343.1 287.3,330.6 295.4,321.4    290.1,317.8 287.3,312.6 288.7,305 296.1,301.2 303.9,305.2 306.1,310.7 304.8,315.9 301.1,320.2 314.5,323.2 320.9,330    321.6,337.4 325.4,344.1 335.3,352.5 337.4,361.1 323.2,365.1 314.1,367 288.2,368.7 278.3,369.6  "></polygon>
	<polygon class="st11" points="292.2,348.7 291.9,356 288.7,374 290.9,382.9 298.2,388.5 306.5,387.9 313.5,383.2 315.5,376.3    312.6,361.6 318,358.5 321.1,353.2 321.6,344.1 321.3,331.4 314.9,333 306.6,331.4 303.1,330 301.8,335 296.9,340.2 290.9,342.6    287.8,343.4 287.3,346.1 288.7,348.7  "></polygon>
	<polyline class="st11" points="415.9,311.6 423,300.4 424.3,296.9 424.3,276.8 427.4,273.4 431.1,274.5 432.9,301.2 437.7,295.6    440.5,294.9 441.9,297.6 439.4,308.7 434.5,314.9 428.9,319 415.3,312.4  "></polyline>
	<path class="st4" d="M314.5,351.9c-0.2,2.3-2.2,4.1-4.5,4.1c-2.4,0-4.3-1.8-4.5-4.1H314.5z"></path>
	<polyline class="st8" points="311.3,339.7 314.2,347.3 309.1,347.7  "></polyline>
	<circle class="st2" cx="304.5" cy="343.3" r="1.8"></circle>
	<circle class="st2" cx="316.9" cy="340.5" r="1.5"></circle>
	<line class="st13" x1="230.7" y1="649.7" x2="288.7" y2="649.7"></line>
	<line class="st13" x1="331.8" y1="649.7" x2="383.1" y2="649.7"></line>
	<line class="st13" x1="258.3" y1="649.7" x2="295.8" y2="451.2"></line>
	<path class="st13" d="M264.5,473L264.5,473c10,0,18.7-6.4,21.1-15.5l1.7-6.2"></path>
	<circle class="st4" cx="321.3" cy="401.9" r="7.8"></circle>
	<path class="st2" d="M279.3,660.3l-1.4,8.1c10.5,0.7,12.8,10.1,12.8,10.1h-51.3l4.1-18.2"></path>
	<path class="st2" d="M344.3,660.3l1.8,18.2h51.7c0,0-5.7-9.7-16.9-9.1l-2.1-9.1"></path>
</g>
<g id="Layer_6">
	<polyline class="st8" points="308.3,535.4 332.8,660.3 385.8,660.3 334.1,451.2 268,451.2 228.7,660.3 287,660.3 319.2,472  "></polyline>
	<path class="st8" d="M275.4,412.4l-24,82.4l-24.4-9.6l26.3-88.6c2.2-7.5,6.5-14,12.2-18.9c5.6-4.9,12.7-8.3,20.4-9.4l3.9-0.2"></path>
	<path class="st8" d="M313.5,366.8l0.2,0l3.8-0.2l50-13.5l43.3-42.8l20.4,9.5l-45.6,53.3c-1.8,2.1-3.8,3.8-6.1,5.3l-42.1,26.3   l-3.1,46.6"></path>
	<line class="st8" x1="268" y1="451.2" x2="268" y2="437.7"></line>
	<path class="st8" d="M228.7,486.6l-6.1,12.5c-1.4,3-2.2,6.2-2.2,9.5v7.8c0,1.9,1.4,3.6,3.3,3.9l3.9,0.7c2.3,0.4,4.5-1.3,4.7-3.6   l0.6-8c0.2-2,1.2-3.7,2.8-4.8l1.1-0.7c1-0.6,2.2-0.1,2.5,1l0.1,0.5c0.3,1.5,0.2,3-0.5,4.4l-1.9,3.6c-0.6,1.1-0.2,2.4,0.9,3.1l0,0   c1.1,0.7,2.6,0.3,3.2-0.8l3.8-6.8c0.7-1.3,1.1-2.8,1.1-4.3v-11.8"></path>
	<path class="st8" d="M313.5,366.8l-0.5-4.7l1.8,11.4c0.5,3.4-0.3,6.9-2.3,9.6l-0.1,0.2c-4.9,6.8-15,7.2-20.5,0.8l0,0   c-2.5-2.9-3.5-6.7-3-10.4l0.9-5.7l2.4-13.3v-6.1"></path>
	<path class="st8" d="M270.3,374c-2.4-20.6,7.9-24.2,12.2-26.4c2.9-1.5,3.7-6.8,3.8-10c0.1-2.8,0.7-5.6,1.9-8.1c2.7-5.6,6-8,9.2-8.9   c4.3-1.2,8.6,0.3,11.7,0.7c4.9,0.7,10.8,4.5,12.1,10c0.2,0.8,0.3,1.6,0.3,2.4v15.9c0,3.4-1.4,6.5-3.6,8.8c-2.3,2.2-5.4,3.6-8.8,3.6   c-5.1,0-9.4-3-11.4-7.4"></path>
	<path class="st8" d="M297.4,320.5c0,0.1,0,0.1,0.1,0.1c2.1,7.2,8.7,12.4,16.5,12.4c2.6,0,5.1-0.6,7.4-1.7"></path>
	<path class="st8" d="M321.6,333.8c0,0,1.1,9.6,6.9,13.4c5.8,3.7,8.6,9,8.3,14.2"></path>
	<circle class="st8" cx="290.9" cy="345.4" r="3.6"></circle>
	<path class="st8" d="M279.3,660.3l-1.4,8.1c10.5,0.7,12.8,10.1,12.8,10.1h-51.3l4.1-18.2"></path>
	<path class="st8" d="M344.3,660.3l1.8,18.2h51.7c0,0-5.7-9.7-16.9-9.1l-2.1-9.1"></path>
	<path class="st8" d="M291.9,341.8c0,0,10.7-0.7,11.2-12.6"></path>
	<path class="st8" d="M306.1,311.2c0,4.9-3.8,9-8.7,9.3c-0.2,0-0.4,0-0.7,0c-5.1,0-9.3-4.2-9.3-9.3c0-5.2,4.2-9.3,9.3-9.3   c2,0,3.7,0.6,5.2,1.6C304.5,305.1,306.1,308,306.1,311.2z"></path>
	<path class="st8" d="M415.3,312.4l6.9-9.5c1.4-1.9,2.2-4.3,2.2-6.7v-18.5c0-0.5,0.1-1,0.3-1.4l0.6-1.2c0.8-1.6,2.7-2.2,4.3-1.3l0,0   c1,0.5,1.6,1.5,1.7,2.6l1.8,26.7l4.2-7.2c0.7-1.1,2.1-1.6,3.3-1l0,0c1,0.5,1.6,1.6,1.4,2.7l-1.4,8.1c-0.4,2.6-1.7,4.9-3.7,6.7   l-7.4,6.7"></path>
	<line class="st8" x1="224" y1="520.5" x2="224" y2="512"></line>
	<line class="st8" x1="227.9" y1="520.5" x2="227.9" y2="512"></line>
</g>
</svg>
