<?xml version="1.0" encoding="UTF-8"?>
<svg xmlns="http://www.w3.org/2000/svg" xmlns:xlink="http://www.w3.org/1999/xlink" width="1076" height="684" viewBox="0 0 1076 684">
  <defs>
    <clipPath id="clippath">
      <rect x="626.641742" y="565.350772" width="78.654" height="68.112511" fill="none"></rect>
    </clipPath>
    <clipPath id="clippath-1">
      <rect x="626.641742" y="565.350772" width="78.654" height="68.112511" fill="none"></rect>
    </clipPath>
    <clipPath id="clippath-2">
      <polygon points="741.66048 136.745269 732.464959 172.451627 705.616465 192.725353 697.227139 225.30445 670.380021 245.575843 661.991841 278.152995 743.77623 318.756614 823.776779 200.592972 741.66048 136.745269" fill="none"></polygon>
    </clipPath>
    <clipPath id="clippath-3">
      <path d="m677.182926,186.796398l20.463723-26.700029-15.668574-15.936294-105.220891-25.670809-39.537524,128.446388,102.065201,24.822931,18.568885,4.501424-.525011-29.123793,20.463751-26.700022-.609559-33.639795Zm1.606845-32.484396l.247055-.919505.011076.582145-.258131.33736Z" fill="none"></path>
    </clipPath>
  </defs>
  <g id="Layer_3" data-name="Layer 3">
    <polygon points="779.572491 302.045015 720.865176 271.181323 722.097001 356.912501 671.322869 281.945131 606.435422 345.09362 624.981558 261.383454 561.245215 279.735238 597.841373 228.549905 558.065649 212.97451 600.169549 205.765985 574.682399 148.236669 633.389658 179.100354 632.157889 93.369182 682.932902 168.327373 747.819467 105.188063 729.273276 188.898224 793.009675 170.546446 756.413517 221.731778 800.030155 237.699658 754.085341 244.515698 779.572491 302.045015" fill="#d2e7b4"></polygon>
  </g>
  <g id="Layer_7" data-name="Layer 7">
    <path d="m758.310284,487.557404s-3.060438-1.234562-6.615215-.078486c-.21639.069053-.452473.14439-.662578.233137-1.707097.696519-3.479909,1.934257-5.056004,4.128019-.372569.530778-.720879,1.205575-1.025236,2.018107,2.145992-7.405046,3.775882-15.815825,2.850584-22.587569-.07202-.497266-.151083-.949019-.256206-1.414022-1.041192-5.369042-3.914396-9.481455-9.708665-10.92751,0,0-.781868-.140682-1.945558-.051156-.169959.010971-.359651.028105-.568916.051487-2.295957.277519-5.726446,1.415501-8.005877,5.481381-1.349645-11.362098-4.286077-26.813537-10.600692-35.52905-.340366-.455031-.668163-.870676-1.015534-1.280074-3.164561-3.802711-7.146981-5.957014-12.093178-5.28905,0,0-.753043.153642-1.784873.656373-.19057.08238-.374697.184536-.578637.293014-1.552145.842099-3.505397,2.397542-4.611355,5.113419-2.209728-3.392003-4.820462-7.089491-7.657226-10.476558-.135138-.151903-.244337-.290516-.379633-.442501-4.124293-4.840335-8.707851-9.013995-13.271346-10.679347-.201344-.087377-.396321-.15522-.585172-.20345-.682762-.237273-1.37973-.383481-2.06409-.490181-4.537617-.633112-7.681746.587081-9.645008,1.907161-.164553.095909-.322822.211512-.461316.320672-1.509992,1.110603-2.189804,2.172878-2.189804,2.172878-1.504506,3.233245-1.611837,6.497483-.673399,9.709826.036829.183407.093312.360409.149835.537532,1.928303,5.974689,7.339831,11.7918,13.688119,16.876261.174564.139454.349089.278787.549631.43165,3.853428,3.040804,8.056574,5.818379,11.977555,8.187315-8.055055-1.873468-11.664526,4.546079-11.664526,4.546079-.040146.077776-.080373.15571-.100825.227202-.074088.175404-.154461.331114-.189283.493987-2.413769,5.886353-.097889,11.173715,4.441366,15.7517.257746.264538.529059.50318.806498.761434,5.169221,4.853805,12.778806,8.863891,19.780989,11.853718-6.339275-.70849-9.538697,3.802601-10.085422,4.670777-.059921.084219-.086657.136017-.086657.136017-.053636.103912-.100907.22736-.134888.324868-2.676709,6.013527-.471587,11.292967,4.022716,15.7985.231926.251211.503081.489771.780679.748106,3.89791,3.655353,9.305223,6.742239,14.746147,9.254885-4.154645.566997-6.426503,3.026316-7.560097,4.840444-.11976.168279-.219707.330236-.3002.485984-.46795.843038-.665116,1.447904-.665116,1.447904-1.598057,6.948237,2.61502,11.998797,9.242954,15.650132.285562.147298.551311.30092.836754.448256,13.910802,7.180335,37.312034,8.708939,41.848402,8.930565.267587.022972.463443.025569.594016.027168.110917.008003.176282.008843.176282.008843,0,0,17.93248-29.806622,12.992348-46.374559-.087066-.340836-.187503-.655573-.313918-.98372l-.006284-.019694c-1.198781-3.281025-3.378314-5.967255-6.922139-7.697873Z" fill="#5e9c1c"></path>
    <path d="m705.75203,516.12224c-1.681058-.309022-3.337977-.473986-4.924844-.487844-.11976.168279-.219707.330236-.3002.485984,1.658517.034392,3.380681.200234,5.127066.509976,7.278102,1.341031,12.946287,4.973414,14.139192,8.711597.238581.747637.30088,1.48643.167361,2.222747-.610881,3.316565-5.033404,5.42156-10.85578,5.653716.285562.147298.551311.30092.836754.448256,1.73889-.121319,3.336357-.414234,4.733163-.859973,3.187243-1.017092,5.372012-2.798177,5.79398-5.144022.877198-4.723871-5.737756-9.896828-14.716692-11.540438Z" fill="#fafafa"></path>
    <path d="m695.504814,486.116595c-2.223646-.786186-4.404938-1.304064-6.445527-1.585018-.059921.084219-.086657.136017-.086657.136017-.053636.103912-.100907.22736-.134888.324868,2.040709.280916,4.267672.805919,6.491199,1.592143,8.354844,2.948493,14.071819,8.364477,12.763659,12.077013-.630126,1.76196-2.760788,2.897035-6.023739,3.201311-2.700478.233015-5.915689-.128254-9.208402-1.071967.231926.251211.503081.489771.780679.748106,3.040216.764032,5.949571,1.049576,8.47993.82745,1.052773-.097529,2.015201-.27459,2.841492-.538271,1.888785-.602737,3.142919-1.63156,3.617623-2.997002,1.396656-3.979202-4.460302-9.697436-13.075369-12.71465Z" fill="#fafafa"></path>
    <path d="m681.813447,452.722813c-2.561765-.895013-5.114316-1.489577-7.50831-1.722853-.074088.175404-.154461.331114-.189283.493987,2.3743.23956,4.966239.821555,7.528124,1.71653,6.670699,2.358633,11.649329,6.276027,12.729228,9.660085.269965.845985.292157,1.662674.034312,2.416966-1.207373,3.485214-8.153682,4.271059-15.850296,1.958118.257746.264538.529059.50318.806498.761434,4.666999,1.242135,8.9957,1.356569,11.907473.427383,1.849398-.590168,3.135876-1.586046,3.62399-2.977467,1.396536-3.979163-4.460302-9.697436-13.081735-12.734185Z" fill="#fafafa"></path>
    <path d="m715.700386,427.601666c.429483,1.141869.812454,2.341978,1.156076,3.554777,2.559008,9.241836,1.543624,17.60841-2.264491,18.650171-3.801672,1.061536-8.960761-5.594806-11.519687-14.8368-1.179108-4.306101-1.640633-8.537802-1.249949-12.000825-.19057.08238-.374697.184536-.578637.293014-.305625,3.457579.163024,7.643608,1.330442,11.845077.149835.537532.299669,1.075063.462874,1.586497,2.768781,8.676477,7.864572,14.659308,11.692343,13.611143l.137735-.043953c3.974147-1.268204,5.09676-9.842325,2.487515-19.241589-.212641-.734348-.41896-1.448882-.638687-2.137438-.340366-.455031-.668163-.870676-1.015534-1.280074Z" fill="#fafafa"></path>
    <path d="m737.473705,485.166987c-1.837647-.32415-3.260881-2.406255-4.000784-5.812015-.791101-3.497785-.740352-7.958057.089456-12.558442.533475-2.879978,1.325575-5.560663,2.329028-7.918607-.169959.010971-.359651.028105-.568916.051487-.990044,2.331966-1.749003,4.980509-2.268229,7.769143-.850342,4.672035-.882314,9.191147-.092053,12.754298.110447.550101.253997,1.067939.410957,1.559799.866418,2.715077,2.25614,4.352592,4.002564,4.662454.59946.112227,1.168256.060779,1.778157-.133849,3.403753-1.086183,6.918852-6.781906,8.647951-14.270642-.07202-.497266-.151083-.949019-.256206-1.414022-1.796511,9.179358-6.253565,15.999442-10.071924,15.310397Z" fill="#fafafa"></path>
    <path d="m764.550363,498.00921c-2.773947,9.51297-8.457459,16.225884-12.641321,15.003033-4.183862-1.222851-5.338919-9.937306-2.558726-19.430702.642204-2.199267,1.432994-4.272489,2.344754-6.102623-.21639.069053-.452473.14439-.662578.233137-.832266,1.739669-1.562376,3.663466-2.163557,5.719711-1.782963,6.096808-1.948924,11.894335-.730919,15.711173.734596,2.301991,1.95508,3.88515,3.627415,4.370416.839351.252401,1.715001.211394,2.620067-.077425,3.954453-1.261919,8.329906-7.318989,10.665978-15.28311.184597-.644253.355784-1.262528.501152-1.894131-.087066-.340836-.187503-.655573-.313918-.98372-.188072.905354-.421657,1.803666-.688346,2.73424Z" fill="#fafafa"></path>
    <path d="m752.383996,542.624406c-.130572-.001598-.326428-.004195-.594016-.027168-17.678782-37.194033-43.401798-85.738222-69.758855-115.95738-8.592307-9.874638-15.151109-15.347205-19.462575-18.328639.138494-.10916.296762-.224763.461316-.320672,4.31775,3.001128,10.798776,8.433549,19.314027,18.202715,14.880634,17.08106,38.982073,51.033145,70.040102,116.431145Z" fill="#fafafa"></path>
    <rect x="511.297284" y="537.833541" width="152.634485" height="95.652626" fill="#d2e7b4"></rect>
    <line x1="643.404184" y1="537.833541" x2="643.404184" y2="633.486167" fill="none" stroke="#fafafa" stroke-miterlimit="10" stroke-width="2.828268"></line>
    <line x1="615.21693" y1="537.833541" x2="615.21693" y2="633.486167" fill="none" stroke="#fafafa" stroke-miterlimit="10" stroke-width="2.828268"></line>
    <line x1="587.029675" y1="537.833541" x2="587.029675" y2="633.486167" fill="none" stroke="#fafafa" stroke-miterlimit="10" stroke-width="2.828268"></line>
    <line x1="558.84242" y1="537.833541" x2="558.84242" y2="633.486167" fill="none" stroke="#fafafa" stroke-miterlimit="10" stroke-width="2.828268"></line>
    <line x1="530.655166" y1="537.833541" x2="530.655166" y2="633.486167" fill="none" stroke="#fafafa" stroke-miterlimit="10" stroke-width="2.828268"></line>
    <line x1="511.297284" y1="603.624364" x2="665.132009" y2="603.624364" fill="none" stroke="#fafafa" stroke-miterlimit="10" stroke-width="2.828268"></line>
    <line x1="511.297284" y1="571.06369" x2="665.132009" y2="571.06369" fill="none" stroke="#fafafa" stroke-miterlimit="10" stroke-width="2.828268"></line>
    <rect x="610.407737" y="564.330431" width="16.234004" height="70.090769" transform="translate(1237.049479 1198.751631) rotate(-180)" fill="#233212"></rect>
    <rect x="679.668979" y="516.480263" width="90.573443" height="116.98302" fill="#d2e7b4"></rect>
    <rect x="626.641742" y="565.350772" width="78.654" height="68.112511" fill="#5e9c1c"></rect>
    <line x1="732.846286" y1="516.480263" x2="732.846286" y2="633.463283" fill="none" stroke="#233212" stroke-miterlimit="10" stroke-width="1.798647"></line>
    <polyline points="705.295744 633.463283 770.242423 633.463283 770.242423 516.480263 679.668979 516.480263 679.668979 565.350785" fill="none" stroke="#233212" stroke-miterlimit="10" stroke-width="1.798647"></polyline>
    <rect x="626.641742" y="565.350772" width="78.654" height="68.112511" transform="translate(1331.937483 1198.814055) rotate(-180)" fill="none" stroke="#233212" stroke-miterlimit="10" stroke-width="1.798647"></rect>
    <g clip-path="url(#clippath)" fill="none">
      <path d="m639.124863,623.534715c-.005484-.017948-.010969-.035892-.016487-.053873.005471.017934.010975.035905.016487.053873Z" fill="#d2e7b4"></path>
    </g>
    <g clip-path="url(#clippath-1)" fill="none">
      <path d="m639.124863,623.534715c-.005484-.017948-.010969-.035892-.016487-.053873.005471.017934.010975.035905.016487.053873Z" fill="#d2e7b4"></path>
    </g>
    <rect x="626.641742" y="565.350772" width="78.654" height="68.112511" fill="none" stroke="#233212" stroke-miterlimit="10" stroke-width="1.798647"></rect>
    <g id="_29NnQ7.tif" data-name="29NnQ7.tif">
      <g>
        <path d="m672.107202,574.473941c.606723.217378,1.209821.445573,1.82081.650213,2.327207.779459,4.704752,1.370745,7.11427,1.824448,1.688827.317999,3.388466.579545,5.085454.852788.748433.12051,1.501602.212822,2.254158.305498.163986.020195.188582.091469.19938.236571.050567.679767.117553,1.358293.174474,2.037615.022991.274356.040835.549399.051226.824499.019685.52104.037112,1.042256.046957,1.563561.032899,1.742202.077744,3.484399.086193,5.226751.00445.91853-.045746,1.837954-.092179,2.755917-.043673.863379-.107859,1.72592-.176163,2.587789-.051418.648757-.118752,1.296385-.18816,1.943536-.049784.464193-.114697.926764-.172862,1.390062-.188729,1.064419-.357823,2.132769-.570157,3.192457-.484252,2.416696-1.175984,4.776058-2.216437,7.011803-.889022,1.910367-1.964367,3.718961-3.207396,5.430199-1.754185,2.414922-3.734855,4.624421-5.860502,6.713252-1.140926,1.121165-2.333883,2.180064-3.542707,3.227169-1.378921,1.194436-2.813444,2.314019-4.277431,3.396236-1.093439.808299-2.233335,1.55364-3.348002,2.333507-.126553.088529-.21203.042924-.310013-.024388-.728548-.500423-1.468687-.984963-2.182633-1.505426-1.198094-.873414-2.393522-1.751712-3.563143-2.662531-.836331-.65128-1.623495-1.365316-2.441594-2.040455-2.003034-1.652994-3.803308-3.516779-5.577103-5.404084-.713942-.759624-1.344472-1.599999-1.986327-2.424364-.646358-.830155-1.259642-1.686062-1.88742-2.530686-.44301-.708823-.90351-1.407423-1.325055-2.128787-.686072-1.17403-1.260058-2.403832-1.777071-3.662139-.570436-1.388321-.974787-2.826258-1.341302-4.27727-.026229-.103841-.058899-.206051-.088573-.309022-.476441-1.856587-.715181-3.755816-.997064-5.646411-.118802-.796806-.176481-1.603379-.243387-2.407056-.048905-.587457-.054501-1.178484-.101872-1.766109-.188466-2.337906-.139363-4.680147-.126949-7.021143.004591-.865742.078828-1.731164.123207-2.596634.03182-.620543.06481-1.241043.101023-1.861344.028145-.482114.054213-.964684.102698-1.444881.00656-.064973.133981-.160832.213102-.169105,2.133076-.223051,4.251821-.547042,6.355743-.955326,1.673792-.324812,3.350563-.655071,4.998302-1.088303,2.281377-.599832,4.528528-1.325392,6.691742-2.279511.899025-.39653,1.80787-.789046,2.652863-1.284645.83062-.487168,1.591525-1.095116,2.370001-1.66777.17137-.126062.276534-.128079.438332-.002775.545727.422642,1.095096.841285,1.655782,1.243748.955689.685996,2.04023,1.132566,3.100957,1.618052.641722.293711,1.309021.531549,1.964827.794492Zm-25.435856,23.674362c.081099.413938.160382.82824.243616,1.241748.32898,1.634374.718659,3.254094,1.349119,4.801183.358416.879526.784509,1.73147,1.18012,2.595827.038368.075105.072947.15244.115656.22499,1.255354,2.132603,2.731348,4.106373,4.369692,5.955089,1.34178,1.514072,2.807903,2.907189,4.338313,4.231.662289.572883,1.307534,1.16833,1.998607,1.704429,1.116659.866267,2.260928,1.697242,3.401609,2.532086.427496.312872.873705.600966,1.320922.885349.078918.050184.230797.071187.304876.028725.332723-.190723.659078-.39596.970294-.620167.947305-.682478,1.890062-1.371394,2.828105-2.066561,1.347138-.99834,2.631871-2.072368,3.854824-3.21965,2.172623-2.038197,4.227069-4.178181,5.969316-6.610749,1.00308-1.400521,1.893656-2.858873,2.593304-4.426661.647377-1.450643,1.216205-2.934695,1.541284-4.499718.165394-.796246.347919-1.588937.522699-2.383234.055445-.386991.114799-.773468.165425-1.161087.078312-.599654.162395-1.198914.222283-1.800508.061373-.616498.101709-1.235259.142104-1.853627.064828-.992299.159998-1.984572.173634-2.977798.019916-1.450717-.007604-2.902571-.040604-4.353357-.022637-.994711-.085206-1.988626-.137869-2.982476-.017365-.327749-.052916-.655088-.097009-.980329-.00737-.054351-.095502-.128539-.156095-.139501-.247945-.044852-.500023-.06626-.749956-.100808-1.093189-.151109-2.19083-.276626-3.277931-.463385-1.13428-.194867-2.264006-.424659-3.385596-.683122-1.961551-.452026-3.904885-.972967-5.779008-1.721608-.527828-.210846-1.053275-.427643-1.579816-.64171-.588119-.300758-1.195343-.569889-1.759364-.910546-.655983-.396204-1.289265-.8351-1.900004-1.29819-.198293-.150354-.287425-.167239-.466041-.01003-.253104.222772-.522679.43093-.804055.616812-1.742951,1.151414-3.642099,1.986647-5.607891,2.66004-1.20479.412708-2.440957.741869-3.677026,1.052954-1.228268.309119-2.466424.593062-3.714106.807333-1.528436.262486-3.071063.442641-4.608182.653836-.173726.023871-.273109.076235-.286364.277453-.063567.964928-.153811,1.928215-.208949,2.893547-.039357.689052-.058778,1.380654-.051014,2.070713.020818,1.850412.040553,3.701285.102067,5.550599.031349.942462.132366,1.884123.237646,2.822132.086355.769405.225575,1.532876.341362,2.298977Z" fill="#d2e7b4"></path>
        <path d="m667.866291,601.286942c.092996.501741.189537,1.002854.278084,1.505379.109617.622079.208268,1.246102.320008,1.867784.071083.395484.15734.788242.236762,1.18225-.004585.01494-.009141.029849-.013698.04476-1.305878.002002-2.611756.00372-3.917636.006103-.98326.001794-1.966522.004917-2.949781.006404-.286754.000431-.302933-.028829-.2526-.304437.222864-1.220339.440875-2.441569.660641-3.662468.106801-.572827.212207-1.145925.320833-1.718408.092689-.488514.179314-.978528.288917-1.463294.040361-.178517.008381-.277836-.146692-.381155-.583103-.388497-1.139152-.805066-1.536619-1.404638-.435184-.656465-.658577-1.376981-.766696-2.14943-.339223-2.423604,1.356138-4.571388,3.502165-5.188721.487948-.140361.991238-.130995,1.500788-.122547.586148.009719,1.125229.147035,1.649232.372984,1.491118.642967,2.464239,1.742409,2.790687,3.342697.309566,1.517497.013515,2.907665-1.007656,4.119486-.323148.383479-.699099.689017-1.111866.9577-.260724.169711-.372839.343371-.288937.694126.174248.728432.271956,1.475158.402767,2.214072.005075.028657.027145.054304.041296.081354Z" fill="#d2e7b4"></path>
        <path d="m668.687446,605.887116c.004557-.014912.009113-.02982.013698-.04476-.004545.0149-.009119.029832-.013698.04476Z" fill="#d2e7b4"></path>
      </g>
    </g>
    <path d="m393.659461,367.656083l9.139094,22.016909-2.680614,32.637508,91.221975-6.876511-5.458686-70.298333,1.099402-30.708233h-62.438239c-10.134708,0-20.087379,2.045195-29.290965,5.933184-8.838196,3.733634-16.675696,9.477181-23.247364,16.467669-6.978632,7.423388-19.913411,20.088975-28.489008,21.908575-12.24205,2.597561-36.866221-16.384987-36.866221-16.384987l-10.013048,29.584004s29.376641,18.66068,49.154961,18.66068,47.868712-22.940465,47.868712-22.940465Z" fill="#6faf2f" stroke="#233212" stroke-miterlimit="10" stroke-width="2"></path>
    <path d="m400.117942,422.3105l-23.084849,92.803957c-1.743901,7.318649-2.367674,14.859469-1.850038,22.365192l5.411013,78.459693h34.055774l-4.758529-65.553542c-.939276-12.939479,1.521157-25.899666,7.137176-37.594652l27.033158-56.29475,68.853332,52.357221c3.591073,2.730712,6.550061,6.204753,8.674619,10.184559l51.729193,96.901164h34.3543l-55.521986-116.690835c-1.360991-2.687527-3.102477-5.164718-5.170677-7.355073l-55.640511-76.459445-91.221975,6.876511Z" fill="#d2e7b4" stroke="#233212" stroke-miterlimit="10" stroke-width="2"></path>
    <path d="m470.563401,363.855038l-10.227612-44.270985c-.254127-1.100006.070394-2.253483.851307-3.068816,18.853345-19.684342,33.451649-40.069666,38.289617-47.06201.984721-1.423223,2.8701-1.858789,4.379311-1.011722,7.414802,4.161671,29.475506,16.077913,55.052593,25.497794,1.059414.390175,1.857005,1.28442,2.111132,2.384426l10.227612,44.270984c17.35204,75.109603-13.885301,118.360122-21.55282,127.57704-.960937,1.155116-2.560359,1.523601-3.929792.905258-10.916866-4.929313-57.851338-30.121155-75.201347-105.221968Z" fill="#5e9c1c" stroke="#233212" stroke-miterlimit="10" stroke-width="2"></path>
    <path d="m546.128204,461.667526c3.578253-4.710445,9.720309-13.96218,14.786801-27.515922,7.029395-18.810653,13.373694-50.043319,3.676256-92.019098l-9.80486-42.43664c-22.745991-8.522827-42.316673-18.712011-51.504341-23.75564-6.043995,8.563228-19.164652,26.302876-35.867518,43.939594l9.80486,42.43664c9.698358,41.980971,29.066673,67.274929,43.607383,81.100961,10.474467,9.960021,20.028479,15.583571,25.301419,18.250104Z" fill="none" stroke="#d2e7b4" stroke-miterlimit="10" stroke-width="2"></path>
    <line x1="379.818507" y1="604.693708" x2="413.833522" y2="604.693708" fill="#d2e7b4" stroke="#233212" stroke-miterlimit="10" stroke-width="2"></line>
    <line x1="567.315483" y1="604.693708" x2="601.868527" y2="604.693708" fill="#d2e7b4" stroke="#233212" stroke-miterlimit="10" stroke-width="2"></line>
    <path d="m411.598947,316.104088l-3.902164,19.950142,22.195661-12.220087,20.061513,6.383871-5.494862-15.790591h-4.948463s-2.982498,9.95793-12.060497,9.40672c-8.793585-.53394-13.427883-2.638186-15.712122-7.764819-.035589-.079873-.151099-.051847-.139067.034764Z" fill="#fff" stroke="#233212" stroke-miterlimit="10" stroke-width="2"></path>
  </g>
  <g id="Layer_6" data-name="Layer 6">
    <g clip-path="url(#clippath-2)" fill="none">
      <rect x="576.715496" y="148.440596" width="215.614035" height="117.068447" transform="translate(199.914394 -318.919293) rotate(30.516211)" fill="#6faf2f" stroke="#233212" stroke-miterlimit="10" stroke-width="1.442209"></rect>
      <polyline points="716.241149 225.452691 740.068443 307.658308 576.997729 211.540158 656.49559 194.099829" fill="#6faf2f" stroke="#233212" stroke-miterlimit="10" stroke-width="1.442209"></polyline>
      <polyline points="621.370961 101.805956 671.103253 232.483305 807.119331 211.290911" fill="none" stroke="#233212" stroke-miterlimit="10" stroke-width="1.442209"></polyline>
    </g>
    <circle cx="800.030155" cy="209.156599" r="31.311828" fill="#233212" stroke="#233212" stroke-miterlimit="10" stroke-width="1.020403"></circle>
    <g clip-path="url(#clippath-3)" fill="none">
      <rect x="557.156734" y="151.878983" width="215.614035" height="117.068447" transform="translate(77.373882 -165.337581) rotate(15.039186)" fill="#6faf2f" stroke="#233212" stroke-miterlimit="10" stroke-width="1.442209"></rect>
      <polyline points="700.463048 219.756845 745.363035 292.623123 562.556351 243.506194 634.517437 205.484134" fill="#6faf2f" stroke="#233212" stroke-miterlimit="10" stroke-width="1.442209"></polyline>
      <polyline points="576.037714 125.91014 658.838096 238.577647 784.266664 181.857584" fill="none" stroke="#233212" stroke-miterlimit="10" stroke-width="1.442209"></polyline>
    </g>
    <path d="m814.916824,223.873272l-6.438875-30.992826c-.528231-2.542581-3.6108-3.559868-5.548624-1.831116l-23.621137,21.072642c-1.937825,1.728752-1.277536,4.906978,1.188519,5.720808l30.060012,9.920184c2.466055.813829,4.888336-1.34711,4.360105-3.889692Z" fill="none" stroke="#ee9e55" stroke-miterlimit="10" stroke-width="2.038733"></path>
    <line x1="803.682527" y1="198.512403" x2="798.814172" y2="212.418079" fill="none" stroke="#ee9e55" stroke-miterlimit="10" stroke-width="2.038733"></line>
    <line x1="798.168987" y1="214.37311" x2="797.420826" y2="216.640177" fill="none" stroke="#ee9e55" stroke-miterlimit="10" stroke-width="2.038733"></line>
    <polyline points="692.724086 157.261709 695.626278 158.041477 697.646649 160.096369 677.182926 186.796398 677.792485 220.436194 657.328734 247.136216 657.724282 269.078297 655.337144 268.434755" fill="none" stroke="#233212" stroke-miterlimit="10" stroke-width="1.442209"></polyline>
    <polyline points="734.821953 168.676942 733.619576 167.96823 732.464959 172.451627 705.616465 192.725353 697.227139 225.30445 670.380021 245.575843 665.683369 263.816219 667.51621 264.894122" fill="none" stroke="#233212" stroke-miterlimit="10" stroke-width="1.442209"></polyline>
  </g>
  <g id="Layer_9" data-name="Layer 9">
    <rect x="281.141058" y="344.285759" width="11.811396" height="31.308222" fill="#bcdc90" stroke="#233212" stroke-miterlimit="10" stroke-width="2"></rect>
    <path d="m607.67309,615.939341l3.571449,5.469418c15.754322.512859,16.767855,11.757936,16.767855,11.757936h-48.564289l-5.596574-17.227354h33.821558Z" fill="#6faf2f" stroke="#233212" stroke-miterlimit="10" stroke-width="2"></path>
    <line x1="281.141058" y1="352.780575" x2="292.952454" y2="342.869682" fill="#bcdc90" stroke="#233212" stroke-miterlimit="10" stroke-width="2"></line>
    <path d="m414.649842,615.939341l-.88276,17.227354-57.019679.027367s1.5313-13.56399,22.968807-11.878958l.877858-5.375763h34.055774Z" fill="#6faf2f" stroke="#233212" stroke-miterlimit="10" stroke-width="2"></path>
    <path d="m306.648835,342.351864s-6.675778-9.479396-13.290642-9.479396h-20.726574s-1.763964,13.670719,6.173873,14.993692,14.993692,1.763964,14.993692,1.763964l7.903319,7.335905,4.946332-14.614164Z" fill="#ee9e55" stroke="#233212" stroke-miterlimit="10" stroke-width="2"></path>
    <rect x="257.904393" y="325.253549" width="58.284727" height="7.618919" fill="#bcdc90" stroke="#233212" stroke-miterlimit="10" stroke-width="2"></rect>
    <polygon points="297.991283 325.253549 276.102229 325.253549 272.006038 194.182505 287.046756 147.939803 302.087475 194.182505 297.991283 325.253549" fill="#bcdc90" stroke="#233212" stroke-miterlimit="10" stroke-width="2"></polygon>
    <line x1="287.046756" y1="325.253549" x2="287.046756" y2="188.332809" fill="#bcdc90" stroke="#233212" stroke-miterlimit="10" stroke-width="2"></line>
    <rect x="277.982518" y="375.593981" width="18.128477" height="7.471125" rx="3.735559" ry="3.735559" fill="#bcdc90" stroke="#233212" stroke-miterlimit="10" stroke-width="2"></rect>
    <line x1="281.141058" y1="372.688684" x2="292.952454" y2="362.77779" fill="#bcdc90" stroke="#233212" stroke-miterlimit="10" stroke-width="2"></line>
    <line x1="281.141058" y1="362.77779" x2="292.952454" y2="352.866896" fill="#bcdc90" stroke="#233212" stroke-miterlimit="10" stroke-width="2"></line>
    <path d="m293.799184,349.630123l1.758582-8.847315c.357658-1.799353.078694-3.667077-.789128-5.283392l-1.410445-2.626949" fill="none" stroke="#233212" stroke-miterlimit="10" stroke-width="2"></path>
    <line x1="294.428822" y1="344.693885" x2="282.340463" y2="342.869682" fill="none" stroke="#233212" stroke-miterlimit="10" stroke-width="2"></line>
    <line x1="294.533868" y1="338.980654" x2="282.445508" y2="337.156452" fill="none" stroke="#233212" stroke-miterlimit="10" stroke-width="2"></line>
  </g>
  <g id="clickerhand">
    <path d="m453.807535,255.911618c.743068,5.991678-3.511023,11.450487-9.490075,12.191989-5.815063.721165-11.124238-3.256766-12.115219-8.974421,0,0,1.971265,18.198155-17.775888,24.490415-7.678018,2.446535-15.270785-4.676556-16.262599-12.673981-.785308-6.332283,2.6084-12.222228,8.029656-14.879554l.011022-.0145,28.506386-15.011243,1.862814-.986496c.877012-.365176,1.818352-.622631,2.814912-.746221,5.991678-.743068,11.450506,3.511177,12.193574,9.502855.076652.618077.101232,1.22979.072175,1.822515,1.132104,1.48625,1.906098,3.28583,2.15324,5.278642Z" fill="#233212"></path>
    <path d="m425.987157,297.161029l10.108814-.128683c7.104752-.090442,12.42727-6.53974,11.168306-13.532644l-.821537-4.563218,4.111425-2.266909-4.933568-7.149538-1.247816-10.061685c-7.294722.904667-13.797685-4.163307-13.797685-4.163307,5.576529,20.252109-12.380505,25.799422-12.380505,25.799422,0,0-8.448952-8.402392-12.88906-.955651-4.440108,7.446741,7.971644,10.732118,7.971644,10.732118l-.742828,28.310615s21.418637,13.352521,27.113975-5.182931l-3.55235-16.966272-10.108814.128683Z" fill="#ee9e55" stroke="#233212" stroke-miterlimit="10" stroke-width="2"></path>
    <path d="m425.987157,297.161029l10.108814-.128683c7.104752-.090442,12.42727-6.53974,11.168306-13.532644l-.821537-4.563218,2.822332-1.556144c.690089-.380493.900599-1.273754.453031-1.922353l-4.097507-5.93795-1.247816-10.061685c-7.294722.904667-13.797685-4.163307-13.797685-4.163307,5.576529,20.252109-12.380505,25.799422-12.380505,25.799422,0,0-8.448952-8.402392-12.88906-.955651-4.440108,7.446741,7.971644,10.732118,7.971644,10.732118l-.742828,28.310615s21.418637,13.352521,27.113975-5.182931l-3.55235-16.966272" fill="none" stroke="#233212" stroke-miterlimit="10" stroke-width="2"></path>
    <circle cx="437.93761" cy="270.667086" r="1.99253" fill="#233212"></circle>
    <path d="m430.643312,285.961906l10.886833-1.350149s-.21005,5.695098-4.841097,6.074111c-4.631046.379013-6.045737-4.723962-6.045737-4.723962Z" fill="#fff"></path>
  </g>
</svg>
