<?xml version="1.0" encoding="UTF-8"?>
<svg xmlns="http://www.w3.org/2000/svg" width="1076" height="684" viewBox="0 0 1076 684">
  <g id="Layer_2" data-name="Layer 2">
    <g>
      <circle cx="246.088829" cy="212.700077" r="67.980932" fill="none" stroke="#d2e7b4" stroke-miterlimit="10" stroke-width="3.713884"></circle>
      <ellipse cx="246.088829" cy="212.700077" rx="43.828727" ry="67.980932" fill="none" stroke="#d2e7b4" stroke-miterlimit="10" stroke-width="3.713884"></ellipse>
      <line x1="246.088829" y1="144.719145" x2="246.088829" y2="280.681009" fill="none" stroke="#d2e7b4" stroke-miterlimit="10" stroke-width="3.713884"></line>
      <line x1="178.107897" y1="212.700077" x2="314.069762" y2="212.700077" fill="none" stroke="#d2e7b4" stroke-miterlimit="10" stroke-width="3.713884"></line>
      <polyline points="188.456367 176.639863 208.936624 176.639863 246.090014 176.639863 283.243403 176.639863 303.715679 176.639863" fill="none" stroke="#d2e7b4" stroke-miterlimit="10" stroke-width="3.713884"></polyline>
      <polyline points="188.456367 248.75974 208.936624 248.75974 246.090014 248.75974 283.243403 248.75974 303.715679 248.75974" fill="none" stroke="#d2e7b4" stroke-miterlimit="10" stroke-width="3.713884"></polyline>
    </g>
    <g>
      <path d="m315.956154,431.86876s-5.35845-1.507453-11.106324,1.084406c-.350133.155559-.732131.325276-1.068106.512701-2.734299,1.481668-5.479297,3.882892-7.718719,7.850944-.527129.958453-.987108,2.153929-1.348072,3.572269,2.237047-12.810702,3.423859-27.21287.62761-38.397135-.212165-.82054-.427773-1.563471-.689513-2.323831-2.732727-8.811017-8.306242-15.178251-18.287451-16.537788,0,0-1.336838-.092162-3.271569.271857-.282959.049636-.597869.113236-.944451.190907-3.798675.887365-9.341479,3.426038-12.41607,10.662404-4.351558-18.803023-12.115423-44.171065-24.305377-57.623834-.654344-.700397-1.280373-1.337062-1.938073-1.959657-6.005111-5.794392-13.078536-8.67452-21.249164-6.645322,0,0-1.234403.396039-2.872087,1.428652-.30439.173159-.594342.378292-.916354.597669-2.447727,1.697283-5.436871,4.664379-6.792029,9.421454-4.328622-5.281265-9.385776-11.001032-14.764858-16.158759-.254512-.229858-.463088-.442202-.717881-.672168-7.805052-7.357785-16.257619-13.513319-24.21547-15.466796-.35366-.109497-.693054-.187409-1.018571-.233564-1.188419-.272336-2.383919-.389371-3.551016-.442479-7.724714-.227453-12.77226,2.396427-15.821453,4.970724-.258281.191062-.502404.413989-.714554.622478-2.327692,2.139742-3.272282,4.045848-3.272282,4.045848-1.92831,5.69782-1.508243,11.190779.65575,16.404491.095465.300753.222709.587155.35004.87375,4.331498,9.663451,14.47444,18.422403,26.053397,25.780707.31833.201737.636573.40328,1.000926.622726,7.020098,4.390257,14.57819,8.274867,21.588055,11.526168-13.850492-1.660615-18.722545,9.766691-18.722545,9.766691-.053016.137788-.106141.275857-.127292.399488-.091983.307723-.198124.58358-.22657.863075-2.9652,10.313494,1.889814,18.753241,10.342419,25.594859.480796.396179.979581.746443,1.492242,1.128465,9.559586,7.188293,23.0559,12.513315,35.346224,16.239295-10.759455-.02266-15.29478,8.129314-16.051899,9.685506-.08499.152226-.120298.243992-.120298.243992-.070832.184092-.1274.399769-.166453.569509-3.382701,10.575062,1.285145,19.021887,9.649061,25.750287.435054.378579.933558.728735,1.4465,1.110865,7.207649,5.41251,16.841655,9.594399,26.426461,12.807268-6.861973,1.714403-10.219182,6.255616-11.786437,9.505787-.169872.304172-.307684.594101-.414019.870044-.629657,1.499561-.849063,2.549998-.849063,2.549998-1.402281,11.944037,6.590283,19.637992,18.374691,24.541933.505886.194487.979712.403218,1.485404.597791,24.644475,9.482372,64.162894,7.743819,71.809874,7.281551.452893-.010669.781767-.042317,1.000995-.063639.187448-.00697.297202-.017577.297202-.017577,0,0,24.5888-53.273848,13.260049-80.14563-.208638-.555483-.434898-1.064749-.707182-1.591723l-.014157-.031866c-2.613142-5.281017-6.761401-9.384446-13.021543-11.634792Z" fill="#5e9c1c"></path>
      <path d="m233.081187,489.425366c-2.875476-.209134-5.683997-.181159-8.347284.087303-.169872.304172-.307684.594101-.414019.870044,2.787199-.247202,5.705279-.285698,8.690424-.087365,12.449884.910684,22.621573,5.959268,25.308898,12.007895.537465,1.209725.777727,2.437027.689202,3.696171-.41463,5.673259-7.443046,10.015704-17.162895,11.475231.505886.194487.979712.403218,1.485404.597791,2.89334-.52306,5.51801-1.307843,7.778133-2.311986,5.157169-2.291261,8.493027-5.679253,8.76934-9.690157.602481-8.081879-11.439868-15.539548-26.797202-16.644927Z" fill="#fafafa"></path>
      <path d="m210.383801,440.997787c-3.87296-.909467-7.625582-1.376843-11.098733-1.472827-.08499.152226-.120298.243992-.120298.243992-.070832.184092-.1274.399769-.166453.569509,3.473346.095898,7.303857.566824,11.176622,1.476377,14.550767,3.408029,25.132125,11.438254,23.621137,17.903621-.732665,3.070152-4.096551,5.365017-9.511691,6.474999-4.485126.887102-9.942559.872373-15.637007-.104711.435054.378579.933558.728735,1.4465,1.110865,5.23805.722221,10.168726.666203,14.370613-.171371,1.747283-.357049,3.328462-.830845,4.665456-1.424854,3.056179-1.35782,4.969899-3.313407,5.514852-5.690138,1.610353-6.928759-9.261277-15.440043-24.260998-18.915464Z" fill="#fafafa"></path>
      <path d="m181.288717,387.522338c-4.459896-1.029789-8.849115-1.5575-12.906065-1.508577-.091983.307723-.198124.58358-.22657.863075,4.025084-.034766,8.478034.46463,12.938125,1.494333,11.61849,2.728575,20.686377,8.381797,23.119126,13.857427.608166,1.368859.795498,2.734144.501817,4.04628-1.383783,6.065685-12.886378,8.660197-26.216648,6.196819.480796.396179.979581.746443,1.492242,1.128465,8.053603,1.224834,15.33268.621009,20.044119-1.472221,2.992448-1.329505,4.966456-3.235799,5.529118-5.658553,1.610159-6.928673-9.261277-15.440043-24.275263-18.947049Z" fill="#fafafa"></path>
      <path d="m150.56972,338.542046c-4.244219-.973222-8.44599-1.507903-12.329649-1.497815.095465.300753.222709.587155.35004.87375,3.710174.028834,7.710533.538532,11.784904,1.472982,11.604527,2.696623,20.672414,8.349846,23.105163,13.825475.622323,1.400724.809656,2.766009.515974,4.078146-.736302,3.147846-4.238171,5.389781-9.352643,6.404104.31833.201737.636573.40328,1.000926.622726,1.340412-.328671,2.57501-.724797,3.657273-1.205632,2.992448-1.329505,4.966262-3.235712,5.543081-5.626601,1.596196-6.960625-9.261277-15.440043-24.275069-18.947135Z" fill="#fafafa"></path>
      <path d="m186.177668,327.143529c-.97668,3.292798-2.678188,5.383035-4.910059,6.10777-6.264235,1.944393-14.80818-7.677129-19.305411-21.574566-.35366-.109497-.693054-.187409-1.018571-.233564,4.574965,14.587158,13.812112,24.739422,20.582171,22.646378.237022-.06715.47385-.134214.696714-.23323,2.101184-.933528,3.692937-3.013158,4.673037-6.04062-.254512-.229858-.463088-.442202-.717881-.672168Z" fill="#fafafa"></path>
      <path d="m233.49004,339.172003c.930023,1.835653,1.792763,3.777509,2.591859,5.747874,5.989582,15.025621,5.825001,29.240714-.368665,31.687466-6.179228,2.478725-16.053166-7.733788-22.04264-22.75969-2.768585-7.003404-4.320304-14.013967-4.301806-19.892319-.30439.173159-.594342.378292-.916354.597669.123122,5.853588,1.678391,12.786262,4.408141,19.616375.35004.87375.70008,1.747501,1.067742,2.575034,6.237389,14.03911,15.881392,23.133968,22.106837,20.672864l.222865-.099016c6.430431-2.856955,6.736655-17.439757.6339-32.720108-.491528-1.192212-.968813-2.352363-1.463805-3.466492-.654344-.700397-1.280373-1.337062-1.938073-1.959657Z" fill="#fafafa"></path>
      <path d="m280.579534,431.690856c-3.140813-.205714-5.909917-3.435214-7.776576-9.009728-1.96942-5.719404-2.704213-13.207382-2.158493-21.073497.365096-4.926994,1.200467-9.567369,2.449546-13.705448-.282959.049636-.597869.113236-.944451.190907-1.231371,4.092056-2.017083,8.672444-2.375077,13.443661-.566979,7.990027.210114,15.573213,2.190141,21.402371.286309.902065.622192,1.74395.975782,2.539812,1.951828,4.393172,4.583018,6.883377,7.568248,7.081904,1.025759.077981,1.970016-.112839,2.956877-.551288,5.507495-2.446907,10.354365-12.643211,11.877013-25.517605-.212165-.82054-.427773-1.563471-.689513-2.323831-1.324911,15.721492-7.544501,27.976192-14.073498,27.522742Z" fill="#fafafa"></path>
      <path d="m328.340295,448.246517c-2.902477,16.46054-11.1982,28.760991-18.43817,27.479682-7.23997-1.281309-10.77857-15.680732-7.862021-32.1096.672532-3.805615,1.61737-7.427201,2.809728-10.663432-.350133.155559-.732131.325276-1.068106.512701-1.075696,3.069934-1.946259,6.42982-2.576295,9.988086-1.868827,10.550414-1.081399,20.301779,1.662469,26.477674,1.654867,3.724773,3.992297,6.154946,6.885544,6.661196,1.453756.268917,2.914443.039199,4.378899-.611439,6.398565-2.842797,12.62159-13.803131,15.074579-27.586186.191091-1.114168.364475-2.182313.492116-3.268058-.208638-.555483-.434898-1.064749-.707182-1.591723-.148923,1.552601-.375455,3.10176-.65156,4.711099Z" fill="#fafafa"></path>
      <path d="m316.141785,525.290348c-.219228.021322-.548101.052969-1.000995.063639-36.479443-59.114461-88.533234-135.781328-138.281641-181.605606-16.222086-14.97762-28.225359-22.947974-36.002546-27.154488.21215-.208489.456273-.431417.714554-.622478,7.791345,4.23838,19.656829,12.155718,35.730326,26.970653,28.090563,25.90489,74.743103,78.402887,138.840302,182.348281Z" fill="#fafafa"></path>
    </g>
    <g>
      <path d="m891.2225,325.388167c2.099274.752132,4.186007,1.541693,6.300043,2.249752,8.052185,2.696945,16.278544,4.742808,24.615528,6.312631,5.843379,1.100283,11.724165,2.00524,17.595781,2.950666,2.589593.416966,5.195576.73637,7.799434,1.057029.567395.069874.652499.316484.689858.81854.174964,2.352009.406736,4.699724.603683,7.050194.07955.949278.141289,1.900934.177244,2.852784.068111,1.802811.128407,3.606227.162473,5.409954.11383,6.028057.268995,12.056095.298228,18.084673.015396,3.178133-.158281,6.359359-.318941,9.535533-.15111,2.98731-.373196,5.971722-.609527,8.953805-.177906,2.244713-.410886,4.485519-.651037,6.724677-.172255,1.606118-.396855,3.206624-.598108,4.809644-.653006,3.682913-1.238076,7.379428-1.972756,11.04597-1.675524,8.361821-4.06893,16.525263-7.66892,24.260991-3.076034,6.609913-6.796752,12.867686-11.09766,18.788608-6.069517,8.355683-12.922678,16.000597-20.277462,23.227999-3.947628,3.879255-8.075287,7.54307-12.257844,11.166076-4.771096,4.132775-9.734578,8.006555-14.800003,11.75105-3.783324,2.796732-7.727386,5.375627-11.584161,8.073983-.437877.306313-.733628.148519-1.072652-.084383-2.520791-1.731475-5.081688-3.407994-7.551956-5.208807-4.145433-3.022033-8.281638-6.060962-12.328554-9.212415-2.893724-2.253443-5.617327-4.724023-8.447969-7.060017-6.93054-5.719395-13.15953-12.16813-19.296896-18.698248-2.470253-2.628316-4.651903-5.536032-6.872734-8.388353-2.236414-2.872355-4.358389-5.833809-6.530514-8.756229-1.532824-2.452543-3.126163-4.869716-4.584719-7.365649-2.373824-4.062169-4.359826-8.31731-6.148704-12.671079-1.973722-4.803622-3.372783-9.778914-4.640933-14.799448-.090754-.359292-.203792-.712941-.306465-1.069222-1.648495-6.42383-2.474541-12.995205-3.449864-19.536704-.411058-2.756966-.610629-5.547725-.842123-8.328467-.169211-2.032615-.188575-4.07758-.352478-6.110774-.652096-8.089207-.4822-16.19341-.439247-24.293307.015886-2.995486.272747-5.989865.426299-8.984411.110098-2.147092.224245-4.294036.349542-6.440291.097383-1.668125.18758-3.337828.355339-4.999319.022699-.224807.463577-.556482.737338-.585107,7.38049-.77176,14.711394-1.892777,21.991009-3.305448,5.791357-1.123858,11.593022-2.26656,17.294234-3.765554,7.893615-2.075431,15.668806-4.585884,23.153571-7.887158,3.110645-1.372003,6.255268-2.730117,9.178964-4.444899,2.873963-1.685612,5.506712-3.789125,8.200254-5.770521.592944-.436176.956815-.443157,1.516639-.009602,1.888228,1.462352,3.789055,2.910864,5.729043,4.303395,3.306705,2.373562,7.059239,3.918704,10.729377,5.598494,2.220372,1.016246,4.52924,1.839172,6.798343,2.748961Zm-88.008612,81.913804c.280604,1.432236.554925,2.865729.842918,4.296474,1.138279,5.654968,2.486576,11.259237,4.667982,16.612198,1.240126,3.043178,2.714417,5.990922,4.08324,8.981619.132753.259864.2524.527444.400173.77847,4.343554,7.378852,9.450523,14.208141,15.119231,20.604736,4.642588,5.238722,9.715404,10.058938,15.010657,14.639353,2.291533,1.982189,4.524096,4.042447,6.915223,5.89736,3.863665,2.997302,7.82286,5.872493,11.769641,8.761071,1.479144,1.082542,3.023037,2.079356,4.570419,3.063328.273057.173639.798562.24631,1.054879.099389,1.151228-.659905,2.280425-1.370031,3.357237-2.145792,3.277697-2.361388,6.539657-4.745052,9.785306-7.150347,4.661125-3.454279,9.106332-7.170439,13.337775-11.14006,7.517324-7.052204,14.62575-14.456597,20.653962-22.873336,3.470677-4.845834,6.55209-9.891761,8.972887-15.316341,2.239938-5.019258,4.208095-10.154109,5.332877-15.569121.572267-2.755027,1.203806-5.497758,1.80855-8.246042.19184-1.338996.397205-2.676218.572374-4.017386.270962-2.074816.561889-4.148268.769105-6.229798.212351-2.133095.351915-4.274024.491683-6.41359.224307-3.433378.553597-6.866663.600777-10.303246.068909-5.019511-.02631-10.042958-.140491-15.062708-.078323-3.441723-.294816-6.880689-.47703-10.319431-.060082-1.13402-.183091-2.266618-.335653-3.391961-.0255-.188055-.33044-.444747-.540092-.482675-.857894-.155188-1.730092-.229262-2.594865-.348797-3.782458-.52284-7.58032-.957131-11.341711-1.603321-3.924633-.674243-7.833509-1.469331-11.714235-2.363618-6.78701-1.564019-13.510986-3.366486-19.995493-5.956802-1.826295-.729533-3.644355-1.479655-5.466197-2.22033-2.034905-1.040628-4.135913-1.971828-6.087438-3.15051-2.269716-1.370875-4.460886-2.889465-6.574055-4.491766-.686097-.520226-.994495-.578649-1.61251-.034703-.875745.770797-1.808482,1.491027-2.782047,2.134182-6.030649,3.983918-12.60174,6.873843-19.403424,9.203795-4.168599,1.427978-8.445765,2.566883-12.722591,3.643244-4.249835,1.069559-8.533881,2.052006-12.850886,2.793391-5.288422.908208-10.625946,1.531549-15.944409,2.262288-.601097.082595-.944961.263776-.990827.959992-.219944,3.33867-.532189,6.671665-.722967,10.011734-.136177,2.384135-.203372,4.777094-.17651,7.164713.072031,6.402467.140313,12.806526.353155,19.205193.108469,3.260937.45799,6.519108.822261,9.76464.298789,2.662157.780495,5.303783,1.181121,7.95451Z" fill="#d2e7b4"></path>
      <path d="m876.548858,418.161734c.321768,1.736036.655803,3.469898.962175,5.208642.379277,2.152408.720611,4.311539,1.107234,6.462573.245949,1.368383.544399,2.727335.819201,4.090612-.015863.051692-.031629.103277-.047395.154872-4.518366.006929-9.036731.012873-13.555107.021117-3.402099.006207-6.804208.017014-10.206307.022159-.992176.001491-1.048156-.09975-.874001-1.053359.771113-4.222401,1.525437-8.44788,2.285831-12.67222.369532-1.981994.734242-3.964924,1.110088-5.94573.320705-1.690268.620431-3.385729.999659-5.063028.139651-.617674.028998-.961317-.507557-1.318806-2.017551-1.344208-3.94149-2.785545-5.316734-4.860078-1.505745-2.271382-2.278691-4.764383-2.652784-7.437073-1.173718-8.385723,4.692266-15.817101,12.117568-17.953086,1.688309-.485652,3.429704-.453244,5.19276-.424017,2.028084.033626,3.893315.508745,5.706378,1.290533,5.159299,2.224679,8.52632,6.028772,9.655839,11.565803,1.071103,5.250571.046763,10.060585-3.48651,14.253511-1.118098,1.326845-2.418897,2.384014-3.847079,3.313663-.902112.587205-1.290032,1.18807-.999728,2.401689.602902,2.520391.940972,5.104079,1.393582,7.660738.017559.099155.093923.187894.142887.281486Z" fill="#d2e7b4"></path>
    </g>
    <path d="m276.259333,197.116695h547.187576c5.554081,0,10.063289,4.509209,10.063289,10.063289v330.538191H266.196044V207.179984c0-5.554081,4.509209-10.063289,10.063289-10.063289Z" fill="#6faf2f" stroke="#233212" stroke-miterlimit="10" stroke-width="2.780085"></path>
    <rect x="389.621166" y="113.972003" width="320.461933" height="527.030411" transform="translate(927.339341 -172.364924) rotate(90)" fill="#2f2f41"></rect>
    <path d="m246.088829,537.718175h607.528583v13.43952c0,9.455751-7.67687,17.132621-17.132621,17.132621H263.22145c-9.455751,0-17.132621-7.67687-17.132621-17.132621v-13.43952h0Z" fill="#bcdc90" stroke="#233212" stroke-miterlimit="10" stroke-width="2.780085"></path>
    <path d="m595.465588,537.978795v3.507557c0,6.145975-4.982297,11.128272-11.128272,11.128272h-68.968392c-6.145975,0-11.128272-4.982297-11.128272-11.128272v-3.507557" fill="none" stroke="#233212" stroke-miterlimit="10" stroke-width="2.410613"></path>
  </g>
  <g id="Layer_7" data-name="Layer 7">
    <path d="m352.045059,306.337559h461.322278v190.940725h-474.863169v-177.399834c0-7.473421,6.06747-13.540891,13.540891-13.540891Z" fill="#5e9c1c"></path>
    <path d="m813.365144,356.027743v62.353597h-474.85932v-62.353597h109.622218c3.523309,0,6.815-1.75549,8.777922-4.681348l21.539419-32.105863c2.233301-3.323548,5.970065-5.319437,9.979445-5.319437h221.559358c4.000579,0,7.746145,1.995889,9.970644,5.319437l21.539525,32.105881c1.962923,2.925848,5.254608,4.68133,8.77791,4.68133h63.092879Z" fill="#d2e7b4"></path>
    <path d="m813.365144,414.322602l-347.804904-.879766c-9.318142,0-16.871989-7.553847-16.871989-16.871989v-17.305136c0-9.318142,7.553847-16.871989,16.871989-16.871989l347.804904.879766" fill="#fff" stroke="#d2e7b4" stroke-miterlimit="10" stroke-width=".879239"></path>
    <circle cx="360.590709" cy="333.43185" r="10.917406" fill="none" stroke="#5e9c1c" stroke-miterlimit="10" stroke-width="2.637716"></circle>
    <circle cx="391.357944" cy="333.43185" r="10.917406" fill="#d2e7b4"></circle>
    <circle cx="423.448502" cy="333.43185" r="10.917406" fill="#fff"></circle>
    <rect x="338.505585" y="418.383611" width="474.85932" height="117.806994" fill="#fff"></rect>
    <line x1="769.317435" y1="322.505374" x2="769.317435" y2="344.425782" fill="none" stroke="#d2e7b4" stroke-miterlimit="10" stroke-width="2.637716"></line>
    <line x1="780.277639" y1="333.465578" x2="758.35723" y2="333.465578" fill="none" stroke="#d2e7b4" stroke-miterlimit="10" stroke-width="2.637716"></line>
    <line x1="385.259415" y1="386.60673" x2="364.178077" y2="386.60673" fill="none" stroke="#233212" stroke-miterlimit="10" stroke-width="2.637716"></line>
    <polyline points="375.85023 398.874401 363.106144 386.60673 374.718746 375.172784" fill="none" stroke="#233212" stroke-miterlimit="10" stroke-width="2.637716"></polyline>
    <line x1="400.18526" y1="386.60673" x2="421.266598" y2="386.60673" fill="none" stroke="#fff" stroke-miterlimit="10" stroke-width="2.637716"></line>
    <polyline points="409.594445 398.874401 422.33853 386.60673 410.725929 375.172784" fill="none" stroke="#fff" stroke-miterlimit="10" stroke-width="2.637716"></polyline>
    <g>
      <path d="m512.272953,379.836279v16.160156h-1.893555l-8.806152-12.688477h-.157715v12.688477h-1.956543v-16.160156h1.893555l8.837402,12.719727h.157715v-12.719727h1.925293Z"></path>
      <path d="m520.857914,396.249365c-1.094238,0-2.052734-.260742-2.875977-.78125-.823242-.521484-1.464844-1.25-1.925293-2.185547-.460449-.936523-.69043-2.03125-.69043-3.283203,0-1.262695.22998-2.364258.69043-3.305664s1.102051-1.672852,1.925293-2.193359c.823242-.521484,1.781738-.78125,2.875977-.78125s2.052734.259766,2.876465.78125c.822754.520508,1.464844,1.251953,1.925293,2.193359.459961.941406.689941,2.042969.689941,3.305664,0,1.251953-.22998,2.34668-.689941,3.283203-.460449.935547-1.102539,1.664062-1.925293,2.185547-.82373.520508-1.782227.78125-2.876465.78125Zm0-1.672852c.831055,0,1.515137-.213867,2.051758-.639648s.933594-.986328,1.191406-1.680664.386719-1.446289.386719-2.256836c0-.80957-.128906-1.564453-.386719-2.264648-.257812-.699219-.654785-1.264648-1.191406-1.696289-.536621-.430664-1.220703-.646484-2.051758-.646484s-1.514648.21582-2.05127.646484c-.536621.431641-.934082.99707-1.191406,1.696289-.257812.700195-.386719,1.455078-.386719,2.264648,0,.810547.128906,1.5625.386719,2.256836.257324.694336.654785,1.254883,1.191406,1.680664s1.220215.639648,2.05127.639648Z"></path>
      <path d="m534.460942,383.876318v1.578125h-6.280762v-1.578125h6.280762Zm-4.450195-2.90332h1.862305v11.551758c0,.526367.077637.918945.23291,1.179688.154785.259766.35498.433594.599609.520508s.503418.129883.776855.129883c.205566,0,.373535-.011719.505371-.035156.131348-.023438.236328-.042969.31543-.05957l.378906,1.672852c-.126465.047852-.302734.09668-.528809.146484s-.512695.075195-.859863.075195c-.526367,0-1.040527-.113281-1.542969-.339844-.502441-.225586-.917969-.570312-1.246582-1.033203s-.493164-1.046875-.493164-1.751953v-12.056641Z"></path>
      <path d="m552.104008,386.591162l-1.672363.473633c-.105469-.279297-.259277-.551758-.461914-.817383s-.477051-.485352-.824707-.658203c-.347168-.173828-.791504-.260742-1.333496-.260742-.741699,0-1.358398.169922-1.850098.508789-.491699.339844-.737793.769531-.737793,1.290039,0,.462891.168457.829102.504883,1.09668.336914.268555.862793.492188,1.578125.670898l1.799316.442383c1.083496.262695,1.890625.664062,2.422363,1.203125.53125.539062.796875,1.232422.796875,2.079102,0,.694336-.19873,1.314453-.595703,1.862305-.397461.546875-.950684.978516-1.661133,1.293945-.709961.31543-1.536133.473633-2.477539.473633-1.236328,0-2.259277-.268555-3.069336-.805664-.810059-.536133-1.323242-1.320312-1.538574-2.350586l1.76709-.442383c.168457.652344.488281,1.141602.958984,1.467773s1.087402.489258,1.850098.489258c.868164,0,1.558594-.185547,2.071289-.556641.513184-.370117.769531-.816406.769531-1.336914,0-.420898-.147461-.774414-.441895-1.061523-.294922-.287109-.74707-.500977-1.357422-.643555l-2.019531-.472656c-1.110352-.263672-1.924316-.671875-2.442383-1.227539-.518066-.554688-.777344-1.25-.777344-2.086914,0-.683594.193359-1.289062.580078-1.814453.386719-.526367.915527-.939453,1.585938-1.239258.670898-.299805,1.432129-.449219,2.28418-.449219,1.199707,0,2.142578.262695,2.829102.789062.686523.525391,1.174316,1.219727,1.463379,2.083008Z"></path>
      <path d="m560.215336,396.249365c-1.16748,0-2.173828-.259766-3.018066-.777344-.844238-.518555-1.493652-1.244141-1.94873-2.177734s-.682617-2.021484-.682617-3.262695c0-1.242188.227539-2.336914.682617-3.287109.455078-.949219,1.091309-1.69043,1.909668-2.224609.817871-.53418,1.773926-.800781,2.868164-.800781.630859,0,1.254395.104492,1.869629.31543.615723.209961,1.175781.550781,1.681152,1.021484.504883.470703.907227,1.092773,1.207031,1.866211s.449707,1.725586.449707,2.856445v.789062h-9.342285v-1.609375h7.44873c0-.683594-.135742-1.293945-.40625-1.831055-.270996-.536133-.655273-.959961-1.152344-1.270508-.49707-.30957-1.082031-.464844-1.755371-.464844-.741699,0-1.382324.182617-1.921387.547852-.539551.366211-.953613.84082-1.242676,1.424805-.289551.583008-.434082,1.209961-.434082,1.87793v1.072266c0,.916016.158691,1.69043.477051,2.324219s.761719,1.115234,1.32959,1.444336c.568359.328125,1.228516.493164,1.980469.493164.489258,0,.932617-.070312,1.32959-.209961.397461-.138672.740723-.349609,1.029785-.630859.289551-.28125.513184-.632812.670898-1.053711l1.798828.505859c-.189453.609375-.507812,1.145508-.95459,1.605469-.447266.459961-.999512.817383-1.657227,1.073242-.657227.254883-1.396484.382812-2.217285.382812Z"></path>
      <path d="m572.998051,396.249365c-1.13623,0-2.114746-.268555-2.935059-.805664-.820801-.536133-1.452148-1.275391-1.894043-2.216797s-.662598-2.017578-.662598-3.227539c0-1.230469.227539-2.318359.682617-3.262695s1.091309-1.682617,1.909668-2.216797c.817871-.53418,1.773926-.800781,2.868164-.800781.852051,0,1.620117.157227,2.303711.472656.684082.316406,1.244141.757812,1.680664,1.326172s.70752,1.230469.812988,1.988281h-1.862305c-.14209-.552734-.456543-1.042969-.942871-1.47168-.486816-.428711-1.140137-.642578-1.960938-.642578-.725586,0-1.36084.1875-1.905273.563477s-.968262.905273-1.270508,1.585938c-.302734.681641-.453613,1.479492-.453613,2.395508,0,.935547.148438,1.750977.445801,2.445312.296875.694336.717773,1.234375,1.262207,1.618164s1.185059.576172,1.921387.576172c.483887,0,.92334-.083984,1.317871-.25293.394531-.167969.728516-.410156,1.001953-.725586s.468262-.694336.583984-1.136719h1.862305c-.105469.71582-.364258,1.358398-.777344,1.929688-.413086.570312-.95752,1.022461-1.633301,1.356445s-1.460938.501953-2.355469.501953Z"></path>
      <path d="m588.116215,391.041357v-7.165039h1.862305v12.120117h-1.862305v-2.051758h-.125977c-.28418.615234-.726074,1.137695-1.325684,1.566406s-1.357422.643555-2.272461.643555c-.757812,0-1.431152-.166992-2.02002-.500977-.589355-.333984-1.052246-.839844-1.388672-1.515625-.336914-.675781-.504883-1.529297-.504883-2.560547v-7.701172h1.861816v7.575195c0,.883789.248535,1.588867.745605,2.114258.49707.526367,1.132324.789062,1.905762.789062.462891,0,.935059-.118164,1.416504-.354492.480957-.237305.88623-.599609,1.214844-1.088867s.493164-1.113281.493164-1.870117Z"></path>
      <path d="m593.387211,395.996436v-12.120117h1.798828v1.831055h.126465c.220703-.599609.620605-1.085938,1.199219-1.459961.578613-.373047,1.230957-.560547,1.956543-.560547.136719,0,.308105.00293.513184.007812.205078.005859.360352.013672.465332.024414v1.893555c-.062988-.015625-.206543-.041016-.429688-.075195-.223633-.03418-.458984-.050781-.706543-.050781-.588867,0-1.11377.12207-1.574219.366211-.459961.245117-.823242.582031-1.088867,1.009766-.265625.429688-.398438.916992-.398438,1.463867v7.669922h-1.861816Z"></path>
      <path d="m606.358403,396.249365c-1.16748,0-2.173828-.259766-3.018066-.777344-.844238-.518555-1.493652-1.244141-1.94873-2.177734s-.682617-2.021484-.682617-3.262695c0-1.242188.227539-2.336914.682617-3.287109.455078-.949219,1.091309-1.69043,1.909668-2.224609.817871-.53418,1.773926-.800781,2.868164-.800781.630859,0,1.254395.104492,1.869629.31543.615723.209961,1.175781.550781,1.681152,1.021484.504883.470703.907227,1.092773,1.207031,1.866211s.449707,1.725586.449707,2.856445v.789062h-9.342285v-1.609375h7.44873c0-.683594-.135742-1.293945-.40625-1.831055-.270996-.536133-.655273-.959961-1.152344-1.270508-.49707-.30957-1.082031-.464844-1.755371-.464844-.741699,0-1.382324.182617-1.921387.547852-.539551.366211-.953613.84082-1.242676,1.424805-.289551.583008-.434082,1.209961-.434082,1.87793v1.072266c0,.916016.158691,1.69043.477051,2.324219s.761719,1.115234,1.32959,1.444336c.568359.328125,1.228516.493164,1.980469.493164.489258,0,.932617-.070312,1.32959-.209961.397461-.138672.740723-.349609,1.029785-.630859.289551-.28125.513184-.632812.670898-1.053711l1.798828.505859c-.189453.609375-.507812,1.145508-.95459,1.605469-.447266.459961-.999512.817383-1.657227,1.073242-.657227.254883-1.396484.382812-2.217285.382812Z"></path>
    </g>
    <g>
      <path d="m644.604496,400.541357c-.315918,0-.597168-.025391-.844238-.075195-.247559-.049805-.418457-.098633-.513184-.145508l.473633-1.641602c.452148.116211.852051.158203,1.199219.125977.347168-.03125.65625-.18457.927246-.460938s.519531-.722656.745605-1.337891l.347168-.946289-4.481934-12.183594h2.02002l3.345703,9.658203h.126465l3.345215-9.658203h2.02002l-5.144531,13.887695c-.231445.625977-.518066,1.145508-.859863,1.558594-.342285.412109-.737793.71875-1.1875.918945-.450195.200195-.956543.299805-1.519043.299805Z" fill="#5e9c1c"></path>
      <path d="m660.258793,396.249365c-1.094238,0-2.052734-.260742-2.875977-.78125-.823242-.521484-1.464844-1.25-1.925293-2.185547-.460449-.936523-.69043-2.03125-.69043-3.283203,0-1.262695.22998-2.364258.69043-3.305664s1.102051-1.672852,1.925293-2.193359c.823242-.521484,1.781738-.78125,2.875977-.78125s2.052734.259766,2.876465.78125c.822754.520508,1.464844,1.251953,1.925293,2.193359.459961.941406.689941,2.042969.689941,3.305664,0,1.251953-.22998,2.34668-.689941,3.283203-.460449.935547-1.102539,1.664062-1.925293,2.185547-.82373.520508-1.782227.78125-2.876465.78125Zm0-1.672852c.831055,0,1.515137-.213867,2.051758-.639648s.933594-.986328,1.191406-1.680664.386719-1.446289.386719-2.256836c0-.80957-.128906-1.564453-.386719-2.264648-.257812-.699219-.654785-1.264648-1.191406-1.696289-.536621-.430664-1.220703-.646484-2.051758-.646484s-1.514648.21582-2.05127.646484c-.536621.431641-.934082.99707-1.191406,1.696289-.257812.700195-.386719,1.455078-.386719,2.264648,0,.810547.128906,1.5625.386719,2.256836.257324.694336.654785,1.254883,1.191406,1.680664s1.220215.639648,2.05127.639648Z" fill="#5e9c1c"></path>
      <path d="m676.229496,391.041357v-7.165039h1.862305v12.120117h-1.862305v-2.051758h-.125977c-.28418.615234-.726074,1.137695-1.325684,1.566406s-1.357422.643555-2.272461.643555c-.757812,0-1.431152-.166992-2.02002-.500977-.589355-.333984-1.052246-.839844-1.388672-1.515625-.336914-.675781-.504883-1.529297-.504883-2.560547v-7.701172h1.861816v7.575195c0,.883789.248535,1.588867.745605,2.114258.49707.526367,1.132324.789062,1.905762.789062.462891,0,.935059-.118164,1.416504-.354492.480957-.237305.88623-.599609,1.214844-1.088867s.493164-1.113281.493164-1.870117Z" fill="#5e9c1c"></path>
      <path d="m681.500492,395.996436v-12.120117h1.798828v1.831055h.126465c.220703-.599609.620605-1.085938,1.199219-1.459961.578613-.373047,1.230957-.560547,1.956543-.560547.136719,0,.308105.00293.513184.007812.205078.005859.360352.013672.465332.024414v1.893555c-.062988-.015625-.206543-.041016-.429688-.075195-.223633-.03418-.458984-.050781-.706543-.050781-.588867,0-1.11377.12207-1.574219.366211-.459961.245117-.823242.582031-1.088867,1.009766-.265625.429688-.398438.916992-.398438,1.463867v7.669922h-1.861816Z" fill="#5e9c1c"></path>
      <path d="m698.354008,386.591162l-1.672363.473633c-.105469-.279297-.259277-.551758-.461914-.817383s-.477051-.485352-.824707-.658203c-.347168-.173828-.791504-.260742-1.333496-.260742-.741699,0-1.358398.169922-1.850098.508789-.491699.339844-.737793.769531-.737793,1.290039,0,.462891.168457.829102.504883,1.09668.336914.268555.862793.492188,1.578125.670898l1.799316.442383c1.083496.262695,1.890625.664062,2.422363,1.203125.53125.539062.796875,1.232422.796875,2.079102,0,.694336-.19873,1.314453-.595703,1.862305-.397461.546875-.950684.978516-1.661133,1.293945-.709961.31543-1.536133.473633-2.477539.473633-1.236328,0-2.259277-.268555-3.069336-.805664-.810059-.536133-1.323242-1.320312-1.538574-2.350586l1.76709-.442383c.168457.652344.488281,1.141602.958984,1.467773s1.087402.489258,1.850098.489258c.868164,0,1.558594-.185547,2.071289-.556641.513184-.370117.769531-.816406.769531-1.336914,0-.420898-.147461-.774414-.441895-1.061523-.294922-.287109-.74707-.500977-1.357422-.643555l-2.019531-.472656c-1.110352-.263672-1.924316-.671875-2.442383-1.227539-.518066-.554688-.777344-1.25-.777344-2.086914,0-.683594.193359-1.289062.580078-1.814453.386719-.526367.915527-.939453,1.585938-1.239258.670898-.299805,1.432129-.449219,2.28418-.449219,1.199707,0,2.142578.262695,2.829102.789062.686523.525391,1.174316,1.219727,1.463379,2.083008Z" fill="#5e9c1c"></path>
      <path d="m702.331059,381.856787c-.363281,0-.674805-.124023-.935059-.371094-.260742-.24707-.390625-.543945-.390625-.891602s.129883-.644531.390625-.891602c.260254-.24707.571777-.371094.935059-.371094.362793,0,.674316.124023.935059.371094.260254.24707.390625.543945.390625.891602s-.130371.644531-.390625.891602c-.260742.24707-.572266.371094-.935059.371094Zm-.946777,14.139648v-12.120117h1.861816v12.120117h-1.861816Z" fill="#5e9c1c"></path>
      <path d="m711.925785,383.876318v1.578125h-6.280762v-1.578125h6.280762Zm-4.450195-2.90332h1.862305v11.551758c0,.526367.077637.918945.23291,1.179688.154785.259766.35498.433594.599609.520508s.503418.129883.776855.129883c.205566,0,.373535-.011719.505371-.035156.131348-.023438.236328-.042969.31543-.05957l.378906,1.672852c-.126465.047852-.302734.09668-.528809.146484s-.512695.075195-.859863.075195c-.526367,0-1.040527-.113281-1.542969-.339844-.502441-.225586-.917969-.570312-1.246582-1.033203s-.493164-1.046875-.493164-1.751953v-12.056641Z" fill="#5e9c1c"></path>
      <path d="m719.689946,396.249365c-1.16748,0-2.173828-.259766-3.018066-.777344-.844238-.518555-1.493652-1.244141-1.94873-2.177734s-.682617-2.021484-.682617-3.262695c0-1.242188.227539-2.336914.682617-3.287109.455078-.949219,1.091309-1.69043,1.909668-2.224609.817871-.53418,1.773926-.800781,2.868164-.800781.630859,0,1.254395.104492,1.869629.31543.615723.209961,1.175781.550781,1.681152,1.021484.504883.470703.907227,1.092773,1.207031,1.866211s.449707,1.725586.449707,2.856445v.789062h-9.342285v-1.609375h7.44873c0-.683594-.135742-1.293945-.40625-1.831055-.270996-.536133-.655273-.959961-1.152344-1.270508-.49707-.30957-1.082031-.464844-1.755371-.464844-.741699,0-1.382324.182617-1.921387.547852-.539551.366211-.953613.84082-1.242676,1.424805-.289551.583008-.434082,1.209961-.434082,1.87793v1.072266c0,.916016.158691,1.69043.477051,2.324219s.761719,1.115234,1.32959,1.444336c.568359.328125,1.228516.493164,1.980469.493164.489258,0,.932617-.070312,1.32959-.209961.397461-.138672.740723-.349609,1.029785-.630859.289551-.28125.513184-.632812.670898-1.053711l1.798828.505859c-.189453.609375-.507812,1.145508-.95459,1.605469-.447266.459961-.999512.817383-1.657227,1.073242-.657227.254883-1.396484.382812-2.217285.382812Z" fill="#5e9c1c"></path>
      <path d="m728.906254,396.122412c-.38916,0-.723145-.138672-1.001953-.417969-.278809-.27832-.418457-.612305-.418457-1.001953s.139648-.723633.418457-1.001953c.278809-.279297.612793-.417969,1.001953-.417969s.723145.138672,1.001953.417969c.278809.27832.418457.612305.418457,1.001953,0,.257812-.064453.494141-.193359.709961s-.299805.387695-.513184.516602c-.212891.128906-.450684.193359-.713867.193359Z" fill="#5e9c1c"></path>
      <path d="m738.595219,396.249365c-1.13623,0-2.114746-.268555-2.935059-.805664-.820801-.536133-1.452148-1.275391-1.894043-2.216797s-.662598-2.017578-.662598-3.227539c0-1.230469.227539-2.318359.682617-3.262695s1.091309-1.682617,1.909668-2.216797c.817871-.53418,1.773926-.800781,2.868164-.800781.852051,0,1.620117.157227,2.303711.472656.684082.316406,1.244141.757812,1.680664,1.326172s.70752,1.230469.812988,1.988281h-1.862305c-.14209-.552734-.456543-1.042969-.942871-1.47168-.486816-.428711-1.140137-.642578-1.960938-.642578-.725586,0-1.36084.1875-1.905273.563477s-.968262.905273-1.270508,1.585938c-.302734.681641-.453613,1.479492-.453613,2.395508,0,.935547.148438,1.750977.445801,2.445312.296875.694336.717773,1.234375,1.262207,1.618164s1.185059.576172,1.921387.576172c.483887,0,.92334-.083984,1.317871-.25293.394531-.167969.728516-.410156,1.001953-.725586s.468262-.694336.583984-1.136719h1.862305c-.105469.71582-.364258,1.358398-.777344,1.929688-.413086.570312-.95752,1.022461-1.633301,1.356445s-1.460938.501953-2.355469.501953Z" fill="#5e9c1c"></path>
      <path d="m750.999028,396.249365c-1.094238,0-2.052734-.260742-2.875977-.78125-.823242-.521484-1.464844-1.25-1.925293-2.185547-.460449-.936523-.69043-2.03125-.69043-3.283203,0-1.262695.22998-2.364258.69043-3.305664s1.102051-1.672852,1.925293-2.193359c.823242-.521484,1.781738-.78125,2.875977-.78125s2.052734.259766,2.876465.78125c.822754.520508,1.464844,1.251953,1.925293,2.193359.459961.941406.689941,2.042969.689941,3.305664,0,1.251953-.22998,2.34668-.689941,3.283203-.460449.935547-1.102539,1.664062-1.925293,2.185547-.82373.520508-1.782227.78125-2.876465.78125Zm0-1.672852c.831055,0,1.515137-.213867,2.051758-.639648s.933594-.986328,1.191406-1.680664.386719-1.446289.386719-2.256836c0-.80957-.128906-1.564453-.386719-2.264648-.257812-.699219-.654785-1.264648-1.191406-1.696289-.536621-.430664-1.220703-.646484-2.051758-.646484s-1.514648.21582-2.05127.646484c-.536621.431641-.934082.99707-1.191406,1.696289-.257812.700195-.386719,1.455078-.386719,2.264648,0,.810547.128906,1.5625.386719,2.256836.257324.694336.654785,1.254883,1.191406,1.680664s1.220215.639648,2.05127.639648Z" fill="#5e9c1c"></path>
      <path d="m759.331547,395.996436v-12.120117h1.798828v1.893555h.157715c.252441-.646484.660156-1.150391,1.223145-1.510742s1.23877-.540039,2.027832-.540039c.799316,0,1.466309.179688,2.000488.540039.533691.360352.950684.864258,1.250488,1.510742h.125977c.310547-.625977.775879-1.124023,1.396973-1.495117.620605-.370117,1.364746-.555664,2.23291-.555664,1.083496,0,1.969727.337891,2.65918,1.013672.688965.675781,1.033691,1.726562,1.033691,3.152344v8.111328h-1.862305v-8.111328c0-.894531-.244629-1.533203-.733887-1.917969-.489258-.383789-1.064941-.575195-1.728027-.575195-.852051,0-1.512207.255859-1.980469.768555-.468262.513672-.702148,1.162109-.702148,1.945312v7.890625h-1.894043v-8.300781c0-.689453-.223633-1.245117-.67041-1.668945-.447266-.423828-1.023438-.634766-1.728027-.634766-.483887,0-.935059.128906-1.353516.386719-.417969.256836-.754883.613281-1.009766,1.068359-.255371.455078-.382812.980469-.382812,1.574219v7.575195h-1.861816Z" fill="#5e9c1c"></path>
    </g>
    <line x1="625.463858" y1="374.861638" x2="625.463858" y2="401.324938" fill="none" stroke="#d2e7b4" stroke-miterlimit="10" stroke-width=".879239"></line>
    <g>
      <path d="m488.727404,394.150569l-12.781084-22.137487c-1.048531-1.816109-3.669859-1.816109-4.71839,0l-12.781084,22.137487c-1.048531,1.816109.262133,4.086246,2.359195,4.086246h25.562168c2.097062,0,3.407726-2.270137,2.359195-4.086246Z" fill="#233212" stroke="#233212" stroke-miterlimit="10" stroke-width=".548782"></path>
      <g>
        <line x1="477.906942" y1="383.120691" x2="469.267308" y2="391.760325" fill="none" stroke="#ee9e55" stroke-miterlimit="10" stroke-width="1.646346"></line>
        <line x1="469.267308" y1="383.120691" x2="477.906942" y2="391.760325" fill="none" stroke="#ee9e55" stroke-miterlimit="10" stroke-width="1.646346"></line>
      </g>
    </g>
  </g>
  <g id="Layer_6" data-name="Layer 6">
    <line x1="625.463858" y1="374.861638" x2="625.463858" y2="401.324938" fill="none" stroke="#000" stroke-miterlimit="10" stroke-width=".879239"></line>
    <g>
      <path d="m849.195815,277.464729c-3.322746,18.085134-20.730392,30.010391-38.79479,26.576703l-211.062457-40.324142c-17.973145-3.30217-29.86632-20.549222-26.56415-38.522367l6.132608-33.378727c3.30217-17.973145,20.549222-29.86632,38.522367-26.56415l211.46225,40.400134c17.908272,3.404011,29.708104,20.628571,26.414076,38.557399l-6.109903,33.255149Z" fill="#fff" stroke="#233212" stroke-miterlimit="10" stroke-width="4.41152"></path>
      <g>
        <path d="m701.875413,223.602714c.100098-1.576172-.419922-2.90918-1.5625-4.000977-1.14209-1.09082-2.657227-1.80957-4.543945-2.15625-1.380371-.253906-2.625977-.250977-3.737793.006836-1.112305.256836-2.026367.723633-2.742676,1.399414-.717285.675781-1.166992,1.510742-1.349609,2.504883-.152832.832031-.083496,1.581055.208008,2.249023.291992.666992.716309,1.253906,1.273926,1.759766.557129.505859,1.158203.947266,1.802734,1.323242.644043.375,1.241211.691406,1.791504.949219l3.009277,1.43457c.772461.363281,1.623535.823242,2.554688,1.382812.929688.558594,1.79541,1.244141,2.595215,2.056641.799805.813477,1.406738,1.777344,1.820801,2.891602.414551,1.114258.486816,2.40332.218262,3.864258-.309082,1.683594-1.027832,3.125-2.155273,4.324219-1.126953,1.197266-2.604492,2.042969-4.430664,2.537109-1.826172.492188-3.9375.518555-6.332031.078125-2.231934-.410156-4.095703-1.125-5.591797-2.144531s-2.589844-2.257812-3.281738-3.717773c-.692383-1.458008-.941895-3.051758-.750488-4.779297l3.896484.71582c-.115234,1.196289.10498,2.240234.65918,3.134766.553711.893555,1.332031,1.624023,2.334961,2.191406,1.001953.566406,2.122559.963867,3.359863,1.191406,1.440918.264648,2.77832.265625,4.01123.004883,1.233398-.260742,2.262695-.753906,3.087891-1.478516.825195-.723633,1.342773-1.65332,1.551758-2.790039.189941-1.035156.055176-1.930664-.403809-2.685547-.459473-.755859-1.123047-1.422852-1.991699-2.00293-.869629-.578125-1.82373-1.121094-2.864258-1.626953l-3.633301-1.800781c-2.307129-1.147461-4.05127-2.500977-5.23291-4.061523-1.181641-1.55957-1.580078-3.388672-1.194336-5.489258.320801-1.745117,1.075684-3.182617,2.263672-4.3125,1.188477-1.128906,2.65332-1.908203,4.39502-2.338867,1.740723-.429688,3.605957-.462891,5.594727-.097656,2.009277.369141,3.729004,1.056641,5.160156,2.058594s2.492188,2.206055,3.183105,3.613281c.69043,1.40625.916992,2.900391.679199,4.482422l-3.652832-.670898Z" fill="#5e9c1c"></path>
        <path d="m717.093186,251.068535c-2.25293-.414062-4.101074-1.270508-5.545898-2.569336-1.444824-1.297852-2.440918-2.928711-2.987305-4.890625-.547363-1.961914-.600098-4.140625-.160156-6.535156s1.266602-4.426758,2.480957-6.097656c1.213867-1.669922,2.704102-2.875,4.471191-3.615234,1.766602-.739258,3.705566-.916016,5.816406-.52832,1.217285.224609,2.382812.648438,3.495117,1.272461s2.072266,1.479492,2.879883,2.56543c.806641,1.087891,1.362793,2.430664,1.666992,4.027344.304199,1.597656.255859,3.487305-.14502,5.669922l-.279785,1.521484-18.019531-3.310547.570312-3.104492,14.367188,2.639648c.242676-1.319336.197754-2.544922-.134766-3.675781-.333008-1.130859-.922852-2.083008-1.771973-2.858398-.848145-.774414-1.922852-1.282227-3.221191-1.520508-1.430664-.262695-2.730957-.136719-3.900391.37793-1.169922.513672-2.137207,1.282227-2.901855,2.305664s-1.265625,2.180664-1.502441,3.46875l-.379883,2.069336c-.324219,1.765625-.292969,3.317383.09668,4.652344.38916,1.334961,1.07373,2.419922,2.052734,3.254883.979492.836914,2.194336,1.387695,3.645508,1.654297.943359.173828,1.823242.195312,2.638672.067383s1.551758-.412109,2.209473-.852539,1.213379-1.038086,1.66748-1.793945l3.291016,1.611328c-.582031,1.110352-1.385254,2.029297-2.411133,2.759766-1.025391.728516-2.217285,1.222656-3.575684,1.482422-1.358887.258789-2.830078.243164-4.412598-.047852Z" fill="#5e9c1c"></path>
        <path d="m741.74846,255.597832c-2.191895-.402344-3.983887-1.266602-5.376465-2.591797-1.392578-1.326172-2.348633-2.975586-2.866699-4.948242-.518555-1.972656-.563477-4.125977-.134766-6.459961.436035-2.374023,1.259766-4.390625,2.472656-6.050781,1.211914-1.660156,2.70166-2.860352,4.46875-3.600586,1.766602-.740234,3.705078-.916016,5.815918-.52832,1.644043.302734,3.069336.878906,4.276855,1.730469,1.207031.850586,2.130859,1.901367,2.771484,3.152344.641113,1.25.928223,2.625.862793,4.123047l-3.591797-.660156c-.078125-1.115234-.510742-2.172852-1.297363-3.172852-.786133-.999023-1.970703-1.644531-3.553711-1.935547-1.400391-.256836-2.691895-.119141-3.875488.413086-1.183105.533203-2.1875,1.402344-3.012207,2.609375-.825195,1.207031-1.399414,2.692383-1.724121,4.458984-.331543,1.805664-.334473,3.430664-.006836,4.875977.327148,1.444336.947754,2.633789,1.861816,3.567383.914062.932617,2.081543,1.53125,3.501953,1.791992.933105.170898,1.810547.164062,2.630859-.020508.821289-.18457,1.550781-.533203,2.19043-1.044922.639648-.512695,1.149414-1.173828,1.528809-1.985352l3.591797.660156c-.456543,1.342773-1.184082,2.491211-2.182617,3.445312-.999023.955078-2.209473,1.634766-3.631348,2.040039-1.422363.404297-2.996094.448242-4.720703.130859Z" fill="#5e9c1c"></path>
        <path d="m772.754319,250.910332l2.539062-13.818359,3.591797.65918-4.29541,23.37793-3.591797-.660156.727051-3.957031-.243652-.044922c-.765137,1.086914-1.803223,1.9375-3.111816,2.550781-1.308594.615234-2.845703.759766-4.61084.435547-1.460938-.268555-2.701172-.829102-3.719238-1.682617-1.017578-.852539-1.731934-1.990234-2.141113-3.414062-.410645-1.422852-.432617-3.128906-.066895-5.118164l2.729004-14.853516,3.591797.660156-2.68457,14.610352c-.312988,1.705078-.083008,3.152344.688965,4.342773.772461,1.191406,1.904297,1.923828,3.396484,2.197266.892578.164062,1.844727.102539,2.856934-.182617,1.013184-.286133,1.922363-.842773,2.730469-1.669922.807129-.827148,1.345215-1.97168,1.61377-3.432617Z" fill="#5e9c1c"></path>
        <path d="m781.163987,262.337089l4.29541-23.37793,3.470215.637695-.648926,3.530273.243652.044922c.638184-1.078125,1.582031-1.875,2.830566-2.389648,1.248047-.515625,2.572754-.644531,3.973145-.386719.263672.047852.592773.113281.98584.196289.394531.083008.69043.152344.889648.210938l-.670898,3.652344c-.116211-.053711-.383789-.152344-.802734-.296875s-.867188-.260742-1.344238-.348633c-1.136719-.208984-2.191406-.15918-3.166016.148438-.975098.30957-1.793945.830078-2.458008,1.563477-.664551.732422-1.09375,1.625977-1.287598,2.681641l-2.718262,14.792969-3.591797-.65918Z" fill="#5e9c1c"></path>
        <path d="m806.095628,267.420097c-2.252441-.413086-4.101074-1.269531-5.545898-2.568359-1.444824-1.297852-2.440918-2.928711-2.987305-4.890625-.547363-1.962891-.600098-4.140625-.160156-6.535156s1.266602-4.426758,2.480957-6.097656c1.213867-1.669922,2.70459-2.875,4.471191-3.615234,1.76709-.740234,3.705566-.916016,5.816406-.52832,1.217285.223633,2.382324.648438,3.495117,1.271484,1.112305.625,2.072266,1.479492,2.879395,2.566406.807617,1.087891,1.363281,2.430664,1.66748,4.027344.304199,1.597656.255859,3.487305-.14502,5.668945l-.279297,1.521484-18.019531-3.310547.570312-3.104492,14.367188,2.639648c.242188-1.318359.197266-2.543945-.134766-3.675781-.333008-1.129883-.92334-2.082031-1.772461-2.858398-.848633-.774414-1.922852-1.28125-3.221191-1.519531-1.430664-.262695-2.730957-.136719-3.900391.37793-1.169434.512695-2.137207,1.28125-2.901855,2.305664-.764648,1.023438-1.265625,2.180664-1.501953,3.467773l-.380371,2.070312c-.324707,1.765625-.292969,3.316406.09668,4.652344.38916,1.334961,1.07373,2.419922,2.052734,3.254883.979492.836914,2.194336,1.387695,3.645508,1.654297.943359.172852,1.823242.195312,2.638672.067383s1.551758-.412109,2.209473-.852539,1.213379-1.038086,1.666992-1.793945l3.291504,1.611328c-.581543,1.110352-1.384766,2.029297-2.410645,2.758789-1.025391.729492-2.217773,1.223633-3.576172,1.483398-1.358887.257812-2.830078.242188-4.412598-.048828Z" fill="#5e9c1c"></path>
      </g>
      <rect x="609.54003" y="205.345734" width="43.297269" height="43.297269" rx="3.575598" ry="3.575598" transform="translate(51.409521 -110.321089) rotate(10.410735)" fill="#5e9c1c"></rect>
      <path d="m630.786846,188.228301h10.299874c4.29,0,7.772936,3.482936,7.772936,7.772936v18.072811h-25.845747v-18.072811c0-4.29,3.482936-7.772936,7.772936-7.772936Z" transform="translate(46.817732 -111.604531) rotate(10.410735)" fill="none" stroke="#5e9c1c" stroke-miterlimit="10" stroke-width="4.192343"></path>
      <circle cx="632.026542" cy="222.433944" r="4.642715" fill="#fff"></circle>
      <rect x="628.919304" y="223.032154" width="3.5699" height="13.197556" transform="translate(51.877982 -110.190151) rotate(10.410735)" fill="#fff"></rect>
    </g>
    <path d="m589.3348,239.721869l-13.144179,19.924714c-.425479.644965-1.420517.438364-1.554066-.322672l-1.891689-10.779879c-.085089-.484886-.566088-.80265-1.045085-.688999-25.122645,5.960812-41.711688,22.47711-49.361888,49.124557-4.051098,14.12103-4.483146,27.739849-4.293315,35.44468.01138.461902.390911.825603.852952.826241l11.770693.01624c.738146.001018,1.127452.874757.634599,1.424263l-15.279061,17.035375c-.320933.357824-.873824.380425-1.222892.049989l-18.042452-17.079437c-.561228-.531272-.184454-1.47537.58835-1.474252l10.814124.015643c.480526.000695.86518-.390315.854474-.870722-.18574-8.334181.325344-22.546808,4.592548-37.598224,8.511718-29.99471,28.050309-49.217849,56.630656-55.811381.440933-.101724.728164-.526596.649958-.972302l-1.790528-10.20448c-.127592-.727163.665241-1.262706,1.292179-.872841l18.682733,11.61796c.408159.253816.526561.794323.26189,1.195528Z" fill="#5e9c1c"></path>
  </g>
  <g id="clickerhand">
    <g>
      <path d="m696.046092,351.605816c-.010564,0-.02054,0-.031104-.000293-8.899316-.016438-16.148052-7.266944-16.15861-16.162739-.005279-4.317319,1.679338-8.381401,4.743688-11.443987,3.055254-3.052902,7.105254-4.733406,11.406433-4.733403.010564,0,.02054,0,.031104.000293,8.899023.016732,16.147758,7.267238,16.15861,16.162739.005572,4.317025-1.679338,8.381108-4.743688,11.4434-3.055254,3.053196-7.105254,4.733699-11.406433,4.73399Zm-.039593-31.659358c-4.119543-.000003-7.998176,1.609489-10.924905,4.53416-2.935532,2.933474-4.549431,6.826484-4.544445,10.961579.010558,8.521371,6.954121,15.466704,15.479013,15.482555h.02993c4.119543.000003,7.998176-1.609783,10.925199-4.534454,2.935239-2.933768,4.549137-6.826484,4.544152-10.961285-.010851-8.521078-6.954414-15.46641-15.479013-15.482555h-.02993Z" fill="#fff"></path>
      <g>
        <path d="m687.306294,328.764827c.454378-.037543.840166-.067972,1.225633-.102028.140201-.012386.282136-.022212.418938-.052689.357971-.079751.547889-.330562.505018-.649467-.042398-.315392-.260833-.510105-.61922-.497477-.610795.021521-1.220305.08865-1.83105.100382-.927677.017818-1.855949.004659-2.842819.004659,2.057132-3.006694,4.801174-5.044368,8.328266-5.908836,4.87707-1.195339,9.224711-.047575,13.076495,3.186356-.057472.0414-.080886.073006-.104778.073373-1.68171.025836-2.836077,1.744219-2.229308,3.481787.241161.690587.62016,1.339508.987562,1.977963.499601.868188.969515,1.742228,1.221767,2.720487.314652,1.22024.227819,2.432431-.116132,3.621125-.688429,2.379194-1.413821,4.747694-2.125599,7.120118-.012797.042649-.04611.079144-.090756.153175-1.707935-5.080361-3.40499-10.128351-5.118227-15.22448.418825-.036444.809368-.067635,1.199247-.105617.174881-.017038.35313-.030319.521579-.075886.313994-.084937.460988-.319217.415972-.64007-.044232-.315268-.241288-.491069-.55111-.482776-.599071.016038-1.197468.089206-1.795998.087489-1.703543-.004888-3.407029-.034416-5.110496-.057246-.246613-.003305-.493374-.037751-.739409-.03157-.322069.008092-.52917.213837-.561261.522734-.032168.309642.127001.556018.451535.608424.42826.069156.866098.079533,1.293871.150852.128938.021498.30398.137111.34648.251138.701026,1.880889,1.386131,3.767736,2.066584,5.65621.039497.109617.042444.255629.005926.366023-.984515,2.976117-1.976348,5.949816-2.967866,8.923613-.013746.04123-.039215.078552-.095.187757-1.730641-5.147697-3.439788-10.231457-5.165845-15.365521Z" fill="#fff"></path>
        <path d="m700.726068,348.871045c-2.885962.977786-5.773188,1.059107-8.71977.218268,1.419055-4.123941,2.830254-8.225054,4.268766-12.405544,1.498001,4.101666,2.968858,8.129017,4.451004,12.187276Z" fill="#fff"></path>
        <path d="m683.038976,329.688489c2.255229,6.179286,4.497758,12.323776,6.755428,18.509751-6.983709-3.28868-9.864289-11.843534-6.755428-18.509751Z" fill="#fff"></path>
        <path d="m703.206721,347.68961c.277411-.808232.54093-1.582348.808686-2.354999,1.321858-3.814382,2.658122-7.623843,3.961236-11.444612.563945-1.6535.755431-3.363457.562306-5.111855,1.182045,1.181187,2.005121,6.063715,1.584882,8.74432-.776018,4.949973-3.941684,8.528258-6.91711,10.167146Z" fill="#fff"></path>
      </g>
    </g>
    <g>
      <path d="m418.87545,520.714772c-.025642,0-.049859,0-.075501-.000712-21.601937-.039902-39.197305-17.639567-39.222932-39.232957-.012814-10.479732,4.076375-20.344766,11.514689-27.778796,7.416233-7.410525,17.247083-11.489729,27.68764-11.489722.025642,0,.049859,0,.075501.000712,21.601225.040614,39.196593,17.640279,39.222932,39.232957.013526,10.47902-4.076375,20.344053-11.514689,27.777371-7.416233,7.411237-17.247083,11.490441-27.68764,11.491147Zm-.096106-76.848992c-9.999657-.000007-19.414537,3.906826-26.518793,11.006087-7.125624,7.120629-11.043154,16.570405-11.031052,26.607813.025628,20.684525,16.880228,37.543421,37.5733,37.581898h.072652c9.999657.000007,19.414537-3.907539,26.519505-11.006799,7.124912-7.121341,11.042442-16.570405,11.03034-26.607101-.02634-20.683812-16.88094-37.542708-37.5733-37.581898h-.072652Z" fill="#d2e7b4"></path>
      <g>
        <path d="m397.660722,465.271229c1.102943-.091131,2.039394-.164992,2.975066-.24766.34032-.030066.684848-.053916,1.016918-.127896.868927-.193585,1.32993-.802396,1.225866-1.576498-.102916-.765574-.633139-1.238213-1.503078-1.207562-1.482626.05224-2.962133.215187-4.444636.243665-2.251817.043251-4.505075.011309-6.900574.011308,4.993421-7.29836,11.654227-12.244551,20.215787-14.342933,11.838455-2.90153,22.391792-.115481,31.741499,7.734467-.139507.100493-.196341.177213-.254335.178103-4.082133.062713-6.88421,4.233867-5.411357,8.451587.585388,1.676311,1.505358,3.251483,2.397178,4.801249,1.212717,2.107415,2.353372,4.229033,2.965681,6.603629.763776,2.961974.553,5.904412-.281895,8.789812-1.671071,5.775186-3.431868,11.524413-5.159616,17.283163-.031062.103526-.111927.192111-.220299.371813-4.145791-12.331919-8.265173-24.58526-12.423834-36.955454,1.016644-.088462,1.964635-.164174,2.911016-.256372.424501-.041357.857178-.073595,1.266065-.184204.762179-.206173,1.118989-.774857,1.009718-1.553688-.107368-.765273-.585696-1.192007-1.337749-1.171876-1.454167.038931-2.906698.216535-4.359553.212368-4.13513-.011864-8.270121-.083541-12.405067-.138958-.598622-.008022-1.197603-.091637-1.794819-.076631-.781782.019642-1.284492.519061-1.362388,1.268869-.078084.751616.308279,1.349661,1.096044,1.476871,1.039546.167867,2.102341.193056,3.140705.366175.31298.052184.737873.332819.841035.609606,1.701651,4.565615,3.364654,9.145692,5.016364,13.729718.095873.266081.103026.620507.014386.888473-2.389784,7.224138-4.797328,14.442409-7.204111,21.660914-.033367.100081-.095188.190674-.2306.455756-4.200907-12.495368-8.349639-24.835538-12.539419-37.297813Z" fill="#d2e7b4"></path>
        <path d="m430.235486,514.07647c-7.005299,2.373449-14.013667,2.570846-21.166113.529817,3.444572-10.010333,6.870074-19.965254,10.361877-30.112851,3.636203,9.956264,7.206518,19.732137,10.804236,29.583034Z" fill="#d2e7b4"></path>
        <path d="m387.30236,467.513298c5.474276,14.999416,10.917726,29.914371,16.397927,44.930023-16.95205-7.982845-23.944284-28.748646-16.397927-44.930023Z" fill="#d2e7b4"></path>
        <path d="m436.256949,511.20869c.67338-1.961879,1.313037-3.840945,1.962981-5.716455,3.20864-9.258918,6.452247-18.505891,9.615387-27.780314,1.368903-4.013657,1.833711-8.164356,1.364925-12.408365,2.869262,2.867179,4.867172,14.718883,3.847095,21.225704-1.883684,12.015419-9.567927,20.701241-16.790389,24.67943Z" fill="#d2e7b4"></path>
      </g>
    </g>
  </g>
</svg>
