<?xml version="1.0" encoding="UTF-8"?>
<svg xmlns="http://www.w3.org/2000/svg" xmlns:xlink="http://www.w3.org/1999/xlink" viewBox="0 0 1076 684">
  <defs>
    <style>
      .cls-1 {
        fill: #233212;
      }

      .cls-1, .cls-2, .cls-3, .cls-4, .cls-5, .cls-6, .cls-7, .cls-8 {
        stroke-width: 0px;
      }

      .cls-9, .cls-2, .cls-10, .cls-11, .cls-12, .cls-13, .cls-14, .cls-15 {
        fill: none;
      }

      .cls-9, .cls-10 {
        stroke-width: 2px;
      }

      .cls-9, .cls-10, .cls-16, .cls-11, .cls-12, .cls-13, .cls-14, .cls-15 {
        stroke-miterlimit: 10;
      }

      .cls-9, .cls-16, .cls-13 {
        stroke: #233212;
      }

      .cls-17 {
        clip-path: url(#clippath);
      }

      .cls-10, .cls-15 {
        stroke: #5e9a2c;
      }

      .cls-16, .cls-11, .cls-12, .cls-13, .cls-15 {
        stroke-width: 1.86px;
      }

      .cls-16, .cls-5 {
        fill: #5e9a2c;
      }

      .cls-11 {
        stroke: #fff;
      }

      .cls-3 {
        fill: #2f2f41;
      }

      .cls-18 {
        clip-path: url(#clippath-1);
      }

      .cls-4 {
        fill: #2f4e0e;
      }

      .cls-12 {
        stroke: #d5e5b8;
      }

      .cls-6 {
        fill: #d5e5b8;
      }

      .cls-14 {
        stroke: #f8f8f8;
        stroke-width: .93px;
      }

      .cls-7 {
        fill: #fff;
      }

      .cls-8 {
        fill: #e1a162;
      }
    </style>
    <clipPath id="clippath">
      <path class="cls-2" d="M603.85,100.94c.46-5.94-1.27-11.9-4.18-17.1-2.91-5.19-6.95-9.67-11.3-13.74-1.99-1.85-4.3-3.73-7.02-3.72-1.84,0-3.66.97-4.69,2.5s-1.26,3.57-.58,5.28c-2.45-3.11-5.02-6.32-8.55-8.11-1.74-.88-3.72-1.39-5.64-1.09-1.92.3-3.76,1.52-4.49,3.33s-.12,4.15,1.56,5.12c-2.39-.3-4.81-.6-7.21-.36-2.4.24-4.82,1.05-6.56,2.72-1.74,1.67-2.69,4.28-1.97,6.58,1.01,3.23,4.77,4.8,8.15,4.8,3.38,0,6.66-1.12,10.03-1.36-1.28,1.45-2.66,3.3-2.05,5.13.46,1.39,1.92,2.18,3.31,2.64,3.03,1.01,6.35,1.12,9.44.3,4.26-1.13,8.17-3.96,12.57-3.75,3.25.15,6.22,2.01,8.42,4.41s3.73,5.31,5.23,8.2"></path>
    </clipPath>
    <clipPath id="clippath-1">
      <path class="cls-2" d="M427.44,311.98c-8.82-6.52-21.62-2.78-30.49,3.67-8.87,6.45-16.05,15.34-25.92,20.12-6.24,3.02-13.23,4.21-19.56,7.06-7.86,3.54-14.45,9.51-22.39,12.88-18.42,7.83-40.42-.26-54.94-14.04-2.94-2.79-5.75-5.86-9.35-7.73s-8.32-2.28-11.52.22c-3.6,2.82-4,8.08-3.56,12.64s1.36,9.38-.59,13.52c-1.92,4.05-6.48,7.22-6.08,11.68.41,4.65,6.01,7.15,7.5,11.57,1.41,4.18-1.24,8.68-.89,13.08.61,7.65,9.28,11.53,16.6,13.81,11.23,3.5,22.61,7.03,34.36,7.6s24.11-2.11,33.03-9.77c8.11-6.96,12.59-17.23,19.73-25.19,6.71-7.48,15.51-12.68,23.63-18.59,8.12-5.92,21.09-16.66,24.38-26.16l14.25-18.44,11.8-7.93Z"></path>
    </clipPath>
  </defs>
  <g id="Layer_9" data-name="Layer 9">
    <polygon class="cls-6" points="685.28 235.24 684.99 234.27 673.57 202.82 674.67 200.09 663.62 184.41 656.77 178.72 639.29 178.72 633.82 173.68 630.65 169.09 631.65 153.07 631.65 149.71 628.52 117.08 614.16 104.75 609.69 103.7 607.59 103.52 603.84 100.94 598.32 102.72 597.93 111.85 586.7 126.85 587.22 148.83 590.1 150.06 590.92 168.92 584.81 175.53 579.65 178.45 576.35 176.78 554.17 176.45 548.65 178.23 531.38 195.57 530.68 198.79 507.59 227.07 504.42 225.61 499.75 233 499.2 233.88 497.01 243.06 498.69 249.69 502.95 257.81 504.75 260.12 507.05 259.74 517.42 265.97 521.55 267.91 532.56 273.09 546.86 277.78 551.5 279.3 546.16 257.31 530.68 248.54 532.95 247.2 533.18 243.64 532.59 242.3 545.87 229.31 556.15 219.57 565.22 220.2 568.06 224.35 573.83 255.39 637.26 256.72 637.26 256.69 637.14 251.64 642.15 244.4 646.18 233.93 647.9 220.2 667.56 246.87 685.28 235.24"></polygon>
    <polygon class="cls-8" points="628.52 129.29 630.72 133.76 630.94 142.14 630.83 147.52 629.45 156.84 625.21 163.1 623.2 164.85 623.2 171.9 618.95 173.06 609 173.57 603.86 173.5 603.58 147.19 600.9 146.32 599.07 143.31 599.07 140.65 602.15 138 607.61 137.54 610.76 134.74 613.52 129.29 628.52 129.29"></polygon>
    <polygon class="cls-5" points="601.11 138.1 606.48 138.06 610.53 135.9 613.1 129.16 632.94 129.2 636.74 127.32 638.56 123.86 637.27 119.63 634.89 116.35 630.72 116.94 626.73 116.68 623.28 118.49 621.24 122.24 615.97 122.24 606.34 132.57 601.11 138.1"></polygon>
    <g class="cls-17">
      <path class="cls-5" d="M603.85,100.94c.46-5.94-1.27-11.9-4.18-17.1-2.91-5.19-6.95-9.67-11.3-13.74-1.99-1.85-4.3-3.73-7.02-3.72-1.84,0-3.66.97-4.69,2.5s-1.26,3.57-.58,5.28c-2.45-3.11-5.02-6.32-8.55-8.11-1.74-.88-3.72-1.39-5.64-1.09-1.92.3-3.76,1.52-4.49,3.33s-.12,4.15,1.56,5.12c-2.39-.3-4.81-.6-7.21-.36-2.4.24-4.82,1.05-6.56,2.72-1.74,1.67-2.69,4.28-1.97,6.58,1.01,3.23,4.77,4.8,8.15,4.8,3.38,0,6.66-1.12,10.03-1.36-1.28,1.45-2.66,3.3-2.05,5.13.46,1.39,1.92,2.18,3.31,2.64,3.03,1.01,6.35,1.12,9.44.3,4.26-1.13,8.17-3.96,12.57-3.75,3.25.15,6.22,2.01,8.42,4.41s3.73,5.31,5.23,8.2"></path>
      <path class="cls-14" d="M601.74,81.29c-4.64,1.85-10.33.68-13.87-2.85-3.54-3.53-4.72-9.22-2.88-13.86"></path>
      <path class="cls-14" d="M584.77,95.34c-1.8-4.9-7.19-8.21-12.37-7.6s-9.66,5.08-10.28,10.26"></path>
      <path class="cls-14" d="M539.91,81.46c3.76.74,7.84-.45,10.61-3.09s4.15-6.67,3.58-10.45"></path>
    </g>
    <path class="cls-4" d="M640.68,273.35c.67-4.12,1.37-8.31,3.24-12.05,1.87-3.73,5.15-6.99,9.24-7.79,3.43-.67,7.25.38,10.32-1.29,5.55-3.03,4.36-12.23,9.49-15.93,5.46-3.94,13.75,1.17,19.64-2.09,6.31-3.49,5.49-13.99,11.71-17.64,4.85-2.85,11.52.05,16.45-2.65,4.36-2.39,5.82-8.32,10.18-10.71,4.34-2.37,9.84-.38,14.58-1.78,4.38-1.3,7.46-5.29,11.65-7.12,4.6-2.01,10.1-1.11,14.43,1.44,4.32,2.55,7.59,6.57,10.21,10.85l-15.8.79-21.75,10.54-103.58,55.44Z"></path>
    <g class="cls-18">
      <path class="cls-4" d="M427.44,311.98c-8.82-6.52-21.62-2.78-30.49,3.67-8.87,6.45-16.05,15.34-25.92,20.12-6.24,3.02-13.23,4.21-19.56,7.06-7.86,3.54-14.45,9.51-22.39,12.88-18.42,7.83-40.42-.26-54.94-14.04-2.94-2.79-5.75-5.86-9.35-7.73s-8.32-2.28-11.52.22c-3.6,2.82-4,8.08-3.56,12.64s1.36,9.38-.59,13.52c-1.92,4.05-6.48,7.22-6.08,11.68.41,4.65,6.01,7.15,7.5,11.57,1.41,4.18-1.24,8.68-.89,13.08.61,7.65,9.28,11.53,16.6,13.81,11.23,3.5,22.61,7.03,34.36,7.6s24.11-2.11,33.03-9.77c8.11-6.96,12.59-17.23,19.73-25.19,6.71-7.48,15.51-12.68,23.63-18.59,8.12-5.92,21.09-16.66,24.38-26.16l14.25-18.44,11.8-7.93Z"></path>
      <path class="cls-15" d="M286.61,341.44c2.11,7.08,5.73,13.71,10.55,19.31,3.74,4.35,8.43,8.2,14.05,9.37,8.36,1.74,17.01-2.98,22.34-9.65,5.34-6.67,8.03-15.01,10.62-23.15"></path>
      <path class="cls-15" d="M252.14,415.77c4.34-12.11,18.17-19.98,30.8-17.53,8.4,1.63,16.38,7.21,24.76,5.5,5.8-1.18,10.28-5.6,15.27-8.77,11.21-7.11,26.21-7.77,38.01-1.68"></path>
      <path class="cls-15" d="M237.86,383.1c10.58-4.2,19.28-12.94,23.43-23.54,4.15-10.6,3.7-22.92-1.22-33.19"></path>
      <path class="cls-15" d="M366.48,376.55c-1.86-11.74,2.92-24.32,12.11-31.86,9.19-7.54,22.46-9.77,33.62-5.64"></path>
    </g>
    <polygon class="cls-5" points="774.88 549.76 769.98 561.68 758.5 547.27 756.36 528.6 764.1 525.95 774.88 549.76"></polygon>
    <polyline class="cls-5" points="764.1 525.95 769.99 523.94 767.59 512.18 774.86 499.5 769.99 474.91 763.84 455.65 758.86 444.22 752.41 435.9 693.6 427.8 692.12 430.05 681.81 437.08 695.48 483.97 698.91 496.57 698.64 502.17 694.57 510.05 682.36 517.96 647.33 537.94 639.26 541.25 625.85 541.9 617.59 541.38 606 545.56 585.11 549.93 587.55 537.94 594.26 523.82 600.7 519.04 614.21 527.76 616.12 522.81 619.61 519.45 624.81 519.66 635.2 525.06 642.23 524.67 649.33 522.81 660.76 513.63 670.95 494.72 639.26 450.65 503.86 473.14 496.98 479.25 496.56 484.37 501.58 491.52 524.46 511.93 540.25 529.38 545.11 539.22 547.19 548.83 547.89 563.27 545.82 584.8 536.17 576.76 520.19 563.14 521.79 558.39 531.01 553.12 529.16 546.26 522.7 541.51 519.27 539.93 519 528.19 508.72 516.18 489.72 500.62 473.36 490.33 463.08 483.87 460.04 478.59 460.17 473.18 463.35 467.66 448.21 456.1 445.14 460.65 434.19 470.68 412.29 479.78 388.15 484.79 381.43 489.54 376.15 495.34 369.95 505.24 360.58 523.44 353.33 548.37 351.09 556.94 350.97 563.68 351.86 570.56 354 578.53 359.13 590.97 370.09 609.66 372.81 613.48 364.03 614.72 351.25 612.85 339.5 608.54 340.74 590.66 326.86 581.1 333.8 561.07 343.04 524.2 352.94 471.99 397.44 438.29 671.84 257.6 729.33 225.51 763.24 207.83 772.57 206.46 781.82 206.59 810.5 187.72 805.66 207.83 826.75 198.38 815.16 215.4 807.44 223 812.84 231.51 830.49 279.3 833.48 287.4 833.83 296.19 831.42 304.92 828.02 312.1 823.2 316.11 817.51 314.32 814.26 311.58 806.9 312.69 802.88 311.41 801.26 305.6 801.77 297.64 796.3 285.77 787.4 274.38 772.95 267.46 755.14 304.1 713.85 391.01 771.07 414.4 776.77 418.57 779.32 426.78 789.49 486.36 792.87 506.77 792.87 511.55 780.11 533.55 778.95 539.86 774.88 549.76"></polyline>
    <polygon class="cls-3" points="318.45 444.96 334.68 436.8 351.85 424.23 365.56 409.94 376.01 394.02 384.91 372.27 396.94 346.99 407.22 329.34 425.49 312.3 437.57 306.02 454 300.71 468.31 299.04 513.67 301.58 621.7 284.13 648.81 269.39 671.84 257.6 666.08 282.78 658.46 331.17 656.28 379.93 654.06 403.59 646.53 431.25 632.67 461.84 608.97 497.56 595.08 497.56 574.82 490.77 553.5 476.28 540.66 472.35 531.83 472.67 503.86 478.17 486.63 478.97 465.93 469.87 433.22 445.85 415.83 438.56 395.34 438.19 369.55 445.54 352.03 448.48 332.86 448.43 318.45 444.96"></polygon>
    <polygon class="cls-4" points="510.53 301.58 502.47 360.67 502.47 380.91 571.64 380.91 645.55 383.05 646.67 300.74 648.81 269.39 621.7 284.13 510.53 301.58"></polygon>
    <polygon class="cls-8" points="508.42 289.94 510.28 297.7 517.82 308.88 523.38 316.27 528.57 331.4 533.94 343.35 544.68 356.47 554.02 362.48 567.03 365.99 582.16 366.07 593.41 362.36 606.33 351.44 611.6 338.67 624.36 306.21 630.61 298.46 634.08 291.5 634.85 284.72 633.15 277.78 534.09 296.51 508.42 289.94"></polygon>
    <g id="_29NnQ7.tif" data-name="29NnQ7.tif">
      <g>
        <path class="cls-5" d="M603.57,427.32c.43.23.85.48,1.28.7,1.64.86,3.34,1.59,5.08,2.21,1.22.44,2.46.84,3.69,1.24.54.18,1.09.34,1.64.5.12.03.13.09.12.2-.04.51-.08,1.03-.11,1.54-.02.21-.04.41-.06.62-.05.39-.1.78-.15,1.17-.18,1.3-.36,2.61-.56,3.91-.11.68-.25,1.36-.4,2.04-.14.64-.29,1.27-.44,1.91-.12.48-.24.95-.37,1.43-.09.34-.2.68-.3,1.02-.27.77-.52,1.55-.81,2.31-.65,1.74-1.45,3.42-2.49,4.96-.89,1.32-1.91,2.54-3.04,3.66-1.6,1.59-3.34,3-5.17,4.3-.98.7-2,1.34-3.03,1.98-1.17.72-2.37,1.39-3.59,2.02-.91.47-1.85.89-2.77,1.34-.1.05-.16,0-.23-.06-.48-.46-.98-.91-1.45-1.38-.79-.79-1.57-1.59-2.34-2.41-.55-.59-1.05-1.21-1.57-1.81-1.29-1.47-2.41-3.08-3.51-4.7-.44-.65-.81-1.35-1.19-2.04-.38-.7-.74-1.41-1.1-2.11-.25-.58-.5-1.16-.73-1.75-.37-.96-.65-1.94-.89-2.94-.26-1.1-.39-2.22-.49-3.35,0-.08-.02-.16-.03-.24-.13-1.44-.08-2.88-.07-4.33,0-.61.06-1.22.11-1.82.03-.44.1-.88.14-1.33.14-1.76.46-3.5.75-5.25.11-.64.27-1.28.4-1.92.1-.46.2-.92.3-1.37.08-.36.16-.71.25-1.06.01-.05.12-.1.18-.1,1.62.09,3.23.1,4.85.05,1.29-.04,2.58-.09,3.85-.21,1.77-.17,3.53-.44,5.26-.9.72-.19,1.44-.37,2.13-.64.68-.26,1.32-.63,1.97-.96.14-.07.22-.06.33.05.36.38.72.76,1.08,1.13.63.63,1.38,1.09,2.12,1.58.44.3.91.55,1.37.83ZM581.78,441.91c.01.32.02.64.03.95.05,1.26.15,2.51.43,3.74.16.7.38,1.38.57,2.08.02.06.04.12.06.18.68,1.74,1.54,3.39,2.54,4.96.82,1.29,1.74,2.5,2.73,3.67.42.51.83,1.03,1.29,1.51.73.78,1.48,1.54,2.23,2.29.28.28.58.55.88.82.05.05.16.08.22.06.27-.1.54-.22.8-.35.79-.4,1.57-.8,2.36-1.2,1.12-.58,2.21-1.23,3.26-1.94,1.86-1.26,3.65-2.61,5.24-4.21.92-.92,1.75-1.9,2.46-2.99.66-1,1.26-2.04,1.69-3.17.22-.57.45-1.14.68-1.71.09-.28.18-.56.26-.85.13-.44.26-.87.38-1.32.12-.45.22-.91.33-1.36.17-.73.36-1.46.49-2.2.19-1.08.34-2.16.49-3.25.1-.74.17-1.49.25-2.24.03-.25.04-.49.05-.74,0-.04-.06-.11-.1-.12-.18-.06-.36-.11-.55-.16-.8-.24-1.6-.47-2.39-.74-.82-.28-1.64-.59-2.44-.91-1.41-.57-2.79-1.19-4.1-1.98-.37-.22-.73-.44-1.1-.67-.4-.29-.82-.57-1.2-.89-.44-.37-.86-.78-1.26-1.2-.13-.14-.19-.16-.35-.06-.22.14-.44.26-.67.36-1.44.65-2.95,1.04-4.5,1.31-.95.16-1.91.26-2.87.34-.95.08-1.91.15-2.86.16-1.17.01-2.34-.04-3.51-.07-.13,0-.21.02-.25.17-.16.71-.35,1.42-.5,2.13-.11.51-.21,1.02-.29,1.54-.21,1.38-.41,2.76-.59,4.15-.09.71-.13,1.42-.16,2.13-.03.58-.02,1.17-.02,1.75Z"></path>
        <path class="cls-5" d="M597.2,446.79c0,.39.02.77.03,1.16,0,.48,0,.95.01,1.43,0,.3.02.61.03.91,0,.01-.01.02-.02.03-.97-.15-1.95-.31-2.92-.46-.73-.12-1.47-.23-2.2-.35-.21-.03-.22-.06-.15-.26.31-.88.62-1.77.93-2.65.15-.41.3-.83.44-1.24.13-.35.25-.71.39-1.06.05-.13.04-.21-.06-.3-.39-.36-.75-.74-.98-1.23-.25-.54-.33-1.1-.31-1.69.04-1.85,1.56-3.24,3.23-3.45.38-.05.75.02,1.13.09.44.08.82.24,1.18.48,1.03.66,1.63,1.59,1.68,2.83.05,1.17-.34,2.17-1.24,2.95-.29.25-.6.43-.94.58-.21.1-.32.21-.3.48.04.56.03,1.13.03,1.7,0,.02.01.04.02.07Z"></path>
        <path class="cls-5" d="M597.26,450.32s.01-.02.02-.03c0,.01-.01.02-.02.03Z"></path>
      </g>
    </g>
    <polygon class="cls-6" points="546.86 277.78 534.09 299.49 559.39 308.88 559.39 314.71 612.81 339.65 611.6 344.58 599.79 369.43 602.08 370.95 593.15 383.05 594.87 385.43 586.82 400.12 575.44 420 579.44 420.21 575.58 427.15 587.8 433.64 607.65 441.78 624.25 444.56 623.43 438.99 614.36 429.57 606.94 418.42 612.72 407.21 620.43 395.52 627.72 381.65 642.23 357.94 644.36 357.94 646.93 351.44 648.22 340.51 647.48 334.16 644.14 327.66 637.43 321.66 611.03 297.87 621.7 284.13 633.15 277.78 634.26 256.66 546.86 277.78"></polygon>
    <polygon class="cls-4" points="659.82 322.53 684.87 364.42 703.93 386.51 713.85 391.01 725.7 366.07 710.14 358.2 695.51 346.6 661.91 309.23 659.82 322.53"></polygon>
    <g id="_29NnQ7.tif-2" data-name="29NnQ7.tif">
      <g>
        <path class="cls-5" d="M502.89,410.46c.4.28.79.57,1.19.84,1.53,1.04,3.14,1.95,4.8,2.77,1.16.57,2.35,1.11,3.52,1.65.52.24,1.05.46,1.58.68.12.05.12.1.1.21-.1.5-.19,1.01-.29,1.52-.04.2-.08.41-.13.61-.09.38-.18.77-.28,1.15-.33,1.27-.65,2.55-1,3.82-.18.67-.41,1.33-.63,1.98-.21.62-.43,1.23-.65,1.85-.17.46-.35.92-.53,1.37-.13.33-.27.65-.41.98-.35.74-.69,1.48-1.06,2.21-.84,1.66-1.82,3.23-3.03,4.65-1.03,1.21-2.18,2.31-3.43,3.3-1.76,1.4-3.65,2.6-5.62,3.69-1.06.58-2.14,1.11-3.23,1.63-1.24.59-2.51,1.11-3.8,1.6-.96.37-1.94.68-2.91,1.02-.11.04-.16-.01-.22-.08-.43-.51-.87-1.01-1.28-1.54-.69-.88-1.38-1.76-2.05-2.66-.48-.64-.9-1.32-1.36-1.98-1.12-1.61-2.05-3.33-2.96-5.06-.36-.7-.65-1.44-.95-2.17-.3-.73-.57-1.48-.86-2.22-.18-.61-.37-1.21-.53-1.82-.26-.99-.43-2-.55-3.02-.13-1.12-.14-2.25-.11-3.38,0-.08,0-.16,0-.24.03-1.45.24-2.88.42-4.31.08-.6.2-1.2.31-1.8.08-.44.2-.87.28-1.3.34-1.74.85-3.43,1.33-5.13.18-.63.41-1.24.62-1.86.15-.44.3-.89.45-1.33.12-.34.24-.69.37-1.03.02-.05.13-.09.19-.08,1.6.27,3.2.46,4.81.59,1.28.1,2.57.2,3.85.22,1.78.03,3.56-.05,5.33-.3.73-.11,1.47-.21,2.19-.4.7-.19,1.38-.47,2.06-.73.15-.06.23-.04.32.09.31.42.63.83.95,1.24.56.69,1.25,1.24,1.93,1.81.41.34.84.65,1.27.98ZM479.6,422.51c-.02.32-.05.63-.07.95-.09,1.25-.14,2.51,0,3.76.08.71.22,1.42.33,2.13.01.06.02.13.04.19.48,1.8,1.15,3.54,1.97,5.22.67,1.37,1.45,2.68,2.3,3.96.37.55.71,1.11,1.11,1.64.64.86,1.3,1.69,1.96,2.53.25.31.51.61.78.91.05.05.15.1.22.08.28-.07.56-.15.83-.25.83-.3,1.65-.61,2.48-.93,1.18-.45,2.33-.97,3.46-1.56,1.99-1.04,3.92-2.18,5.68-3.6,1.01-.81,1.96-1.69,2.78-2.69.76-.92,1.48-1.89,2.03-2.96.28-.55.58-1.08.86-1.63.12-.27.24-.54.36-.81.18-.42.36-.84.53-1.26.17-.44.32-.88.48-1.32.25-.71.52-1.41.73-2.13.31-1.05.58-2.11.85-3.17.19-.73.34-1.46.5-2.2.05-.24.09-.49.13-.73,0-.04-.04-.11-.09-.13-.17-.08-.35-.15-.52-.23-.76-.33-1.54-.65-2.29-1-.79-.37-1.56-.77-2.32-1.18-1.33-.73-2.64-1.5-3.85-2.42-.34-.26-.68-.52-1.02-.79-.37-.34-.75-.66-1.09-1.02-.4-.42-.77-.87-1.12-1.33-.11-.15-.18-.18-.34-.1-.23.11-.47.21-.71.29-1.5.48-3.05.71-4.62.8-.96.06-1.92.04-2.89.02-.96-.02-1.91-.07-2.86-.17-1.16-.12-2.32-.3-3.48-.46-.13-.02-.21,0-.26.14-.24.69-.5,1.37-.74,2.06-.17.49-.32.99-.46,1.5-.36,1.35-.72,2.7-1.05,4.06-.17.69-.29,1.4-.4,2.1-.09.58-.15,1.16-.22,1.74Z"></path>
        <path class="cls-5" d="M494.37,429.09c-.03.38-.07.77-.1,1.15-.05.47-.1.95-.15,1.42-.03.3-.05.6-.07.91,0,0-.01.02-.02.03-.95-.26-1.9-.53-2.85-.79-.72-.2-1.43-.4-2.15-.59-.21-.06-.21-.08-.12-.27.41-.84.82-1.69,1.22-2.53.19-.39.39-.79.58-1.18.17-.34.33-.68.51-1.01.07-.12.06-.2-.03-.31-.35-.4-.66-.82-.83-1.33-.18-.57-.2-1.13-.12-1.72.24-1.83,1.91-3.05,3.6-3.06.38,0,.75.11,1.12.22.42.13.79.34,1.12.61.95.77,1.44,1.77,1.35,3-.08,1.17-.58,2.12-1.57,2.79-.31.21-.65.36-1,.47-.22.07-.34.17-.35.45-.02.56-.1,1.13-.16,1.69,0,.02,0,.04.01.07Z"></path>
        <path class="cls-5" d="M494.04,432.6s.01-.02.02-.03c0,0-.01.02-.02.03Z"></path>
      </g>
    </g>
    <g id="_29NnQ7.tif-3" data-name="29NnQ7.tif">
      <g>
        <path class="cls-5" d="M423.27,374.83c.36.31.71.63,1.07.94,1.38,1.16,2.85,2.21,4.38,3.17,1.07.67,2.16,1.31,3.25,1.95.48.28.97.55,1.46.82.11.06.1.11.07.22-.15.48-.29.96-.43,1.44-.06.19-.12.39-.19.58-.13.36-.26.72-.39,1.08-.45,1.2-.89,2.41-1.35,3.6-.24.63-.53,1.25-.81,1.86-.26.58-.54,1.15-.82,1.72-.21.43-.43.86-.65,1.28-.16.3-.33.6-.49.9-.42.68-.82,1.36-1.25,2.03-.98,1.52-2.09,2.95-3.41,4.2-1.12,1.07-2.35,2.02-3.66,2.85-1.85,1.18-3.8,2.16-5.82,3.02-1.08.46-2.18.86-3.29,1.25-1.27.45-2.55.83-3.84,1.17-.97.26-1.95.46-2.92.7-.11.03-.16-.03-.21-.1-.36-.54-.74-1.07-1.09-1.62-.58-.92-1.17-1.84-1.72-2.78-.4-.67-.74-1.37-1.12-2.05-.93-1.67-1.66-3.43-2.36-5.2-.28-.71-.49-1.46-.71-2.19-.22-.74-.41-1.49-.61-2.24-.11-.6-.24-1.21-.33-1.81-.15-.99-.21-1.98-.23-2.99-.02-1.1.09-2.2.23-3.29.01-.08.02-.16.02-.24.17-1.4.52-2.76.84-4.13.13-.58.31-1.14.48-1.71.12-.42.28-.82.41-1.24.5-1.65,1.17-3.24,1.8-4.84.24-.59.52-1.16.78-1.74.19-.42.38-.83.57-1.25.15-.32.3-.65.46-.96.02-.04.14-.07.19-.06,1.52.42,3.06.77,4.61,1.06,1.23.23,2.47.45,3.71.6,1.72.2,3.46.31,5.19.24.72-.03,1.45-.05,2.16-.16.7-.11,1.38-.32,2.07-.5.15-.04.22-.01.3.12.26.44.52.87.8,1.3.47.73,1.09,1.32,1.69,1.94.36.37.75.72,1.13,1.07ZM399.48,384.18c-.06.31-.11.61-.17.92-.22,1.21-.38,2.42-.37,3.65,0,.7.07,1.4.11,2.09,0,.06,0,.12.02.19.28,1.8.76,3.55,1.39,5.25.51,1.4,1.14,2.75,1.83,4.06.3.57.58,1.15.91,1.7.53.89,1.09,1.77,1.65,2.65.21.33.44.65.67.96.04.06.14.11.2.1.28-.04.56-.09.83-.16.83-.21,1.66-.43,2.49-.65,1.19-.32,2.36-.71,3.51-1.17,2.04-.81,4.02-1.72,5.87-2.92,1.06-.69,2.07-1.45,2.97-2.33.83-.82,1.62-1.68,2.27-2.66.33-.5.67-.99,1-1.49.14-.25.29-.5.43-.75.22-.39.43-.78.64-1.17.21-.41.4-.82.6-1.23.31-.66.64-1.32.92-1.99.4-.99.78-1.99,1.14-2.99.25-.69.48-1.38.71-2.08.08-.23.14-.46.2-.7,0-.04-.03-.11-.07-.14-.16-.1-.32-.18-.49-.27-.71-.4-1.42-.78-2.12-1.2-.72-.44-1.44-.9-2.13-1.38-1.22-.84-2.41-1.72-3.49-2.73-.3-.29-.61-.58-.91-.86-.32-.36-.66-.71-.96-1.1-.34-.45-.66-.92-.95-1.4-.1-.16-.15-.19-.32-.13-.23.08-.47.15-.72.21-1.5.32-3.03.38-4.55.31-.94-.04-1.87-.15-2.8-.27-.92-.12-1.85-.26-2.76-.45-1.12-.23-2.22-.52-3.33-.79-.13-.03-.21-.02-.27.11-.3.64-.62,1.28-.92,1.92-.21.46-.41.93-.59,1.4-.48,1.27-.97,2.54-1.43,3.83-.23.65-.42,1.33-.6,2-.15.55-.26,1.11-.39,1.67Z"></path>
        <path class="cls-5" d="M413.14,392.04c-.07.37-.14.74-.22,1.11-.09.46-.19.91-.28,1.36-.06.29-.1.58-.16.87,0,0-.01.02-.02.03-.89-.35-1.79-.7-2.68-1.05-.67-.26-1.35-.53-2.02-.79-.2-.08-.2-.1-.09-.28.48-.78.96-1.55,1.44-2.33.23-.36.45-.73.68-1.09.2-.31.39-.62.59-.92.08-.11.08-.19,0-.3-.29-.42-.56-.86-.67-1.38-.12-.57-.08-1.12.05-1.68.42-1.75,2.16-2.76,3.79-2.61.37.04.71.18,1.06.32.4.16.73.4,1.03.7.85.84,1.22,1.86,1.01,3.04-.2,1.12-.77,1.99-1.8,2.55-.32.18-.66.28-1.02.36-.22.05-.35.13-.38.4-.08.55-.21,1.08-.32,1.62,0,.02,0,.04,0,.07Z"></path>
        <path class="cls-5" d="M412.46,395.41s.01-.02.02-.03c0,0-.01.02-.02.03Z"></path>
      </g>
    </g>
    <circle class="cls-6" cx="783.96" cy="242.79" r="4.82"></circle>
  </g>
  <g id="Layer_12" data-name="Layer 12">
    <path class="cls-10" d="M510.53,301.58s-10.13,65.93-7.67,79.33h92.22"></path>
    <polyline class="cls-10" points="627.28 383.05 645.09 383.05 645.55 354.87"></polyline>
    <line class="cls-10" x1="645.78" y1="330.03" x2="649.4" y2="269.39"></line>
    <path class="cls-10" d="M638.2,275.16l-.59,46.84"></path>
    <line class="cls-10" x1="635.49" y1="368.96" x2="635.21" y2="383.05"></line>
    <path class="cls-10" d="M516.5,305.78s-6.25,68.23-5.63,75.13"></path>
    <path class="cls-10" d="M523.38,318.54s-3.18,56.92-3.18,62.37"></path>
    <path class="cls-10" d="M531.83,338.67s-3.03,35.76-2.56,42.24"></path>
    <path class="cls-10" d="M539.15,350.43s-.91,26.9-.91,30.48"></path>
    <path class="cls-10" d="M547.98,358.78s.21,20.83,0,22.13"></path>
    <line class="cls-10" x1="556.56" y1="362.93" x2="556.56" y2="380.91"></line>
    <line class="cls-10" x1="567.03" y1="365.35" x2="567.03" y2="380.91"></line>
    <line class="cls-10" x1="577.21" y1="366.07" x2="577.21" y2="379.93"></line>
    <line class="cls-10" x1="586.82" y1="364.47" x2="586.82" y2="380.91"></line>
    <line class="cls-10" x1="595.71" y1="360.67" x2="595.71" y2="380.91"></line>
    <path class="cls-10" d="M615.31,403.59s26.87,5.97,36.31,11.16"></path>
    <path class="cls-10" d="M406.4,438.19s49.09-50.2,63.57-73.72,21.83-64.19,21.83-64.19"></path>
    <path class="cls-10" d="M564.03,379.93s-17.54,82.69-42.24,94.44"></path>
    <path class="cls-10" d="M343.04,431.25s57.65-13.56,82.5-4.1,29.6,28.1,61.76,31.39,41.36-16.91,58.51-9.74,40.77,32.76,61.66,33.86,2.92,0,2.92,0"></path>
    <path class="cls-10" d="M392.42,354.87s33.9-9.41,56.68,11.21,38.16,32.62,74.27,32.46,53.96-1.85,64.29.03"></path>
    <path class="cls-9" d="M651.62,422.27s78.99,11.37,100.26,13.41c0,0,15.25,10.07,22.64,63.9l-5.64,9.76c-.98,1.7-1.26,3.72-.78,5.63l2.25,8.84-13.88,5.25s-.38,23.63,13.5,32.63c0,0,10.13-20.25,10.13-28.13l11.24-20.42c1.34-2.44,1.82-5.26,1.35-8.01l-13.99-81.93c-.65-3.79-3.2-6.97-6.75-8.42l-82.79-33.85"></path>
    <path class="cls-9" d="M512.88,301.74l-36.81-2.54c-29.19-2.01-57.34,11.87-73.05,36.54-7.28,11.42-14.61,26.03-21.08,44.64-16.6,47.73-63.49,64.58-63.49,64.58,0,0,22.43,11,65.39-3.55,42.96-14.54,65.53,19.99,89.73,32.77,24.19,12.78,45.95-3.81,68.24-1.63,22.3,2.17,24.2,25.56,67.16,25.01,0,0,47.58-56.01,47.31-118.54-.28-62.53,15.56-122.34,15.56-122.34"></path>
    <path class="cls-9" d="M800.76,217.19c2.61,1.96,4.77,3.9,6.43,5.55,2.5,2.48,4.43,5.47,5.65,8.77l20.64,55.89c1.77,13.03-3.53,21.77-7.58,26.36-2.07,2.36-5.63,2.67-8.09.72l-3.45-2.73c-18.8,6.17-12.33-13.25-12.33-13.25-8.01-26.21-29.29-31.45-29.29-31.45l-58.89,123.96"></path>
    <path class="cls-9" d="M605.73,292.81l151.82-82.56c6.64-3.61,14.36-4.81,21.73-3.18.77.17,1.53.36,2.27.56"></path>
    <path class="cls-9" d="M639.26,448.8s28.68-1.04,55.31-20.49"></path>
    <path class="cls-9" d="M639.26,450.65s23.52,35.19,31.56,44.32c0,0-9.99,31.5-35.63,30.2l-10.28-5.01c-3.87-1.89-8.5.28-9.53,4.47l-.83,3.37-14.34-8.69s-13.47,8.26-14.77,30.63c0,0,25.85-4.13,33.46-9.34l12.24,1.18c5.28.51,10.59-.63,15.21-3.26l44.1-25.16c6.83-3.9,10.1-11.97,7.9-19.53l-16.74-57.44"></path>
    <path class="cls-9" d="M398.4,438.19l-45.32,33.1s-17.89,94.38-26.21,109.8l13.88,9.56-1.23,17.89s12.95,8.02,33.31,4.93c0,0-21.9-28.66-21.9-51.8s22.51-72.79,37.93-77.11,47.79-6.35,59.36-28.46"></path>
    <path class="cls-9" d="M463.35,467.66l-2.15,3.54c-2.8,4.62-1.36,10.63,3.24,13.46,16.02,9.86,49.87,31.83,54.55,44.01v11.41s11.72,1.54,11.72,13.57c0,0-8.64,1.23-10.79,9.56l25.9,21.59s5.86-29.92-1.85-48.73c-7.71-18.81-44.08-42.91-46.88-49.96-.91-2.31-1.01-4.81-.72-7.13"></path>
    <path class="cls-9" d="M774.58,211.83s28.85-19.9,35.92-24.11c0,0-3.17,38.08-26.65,40.23"></path>
    <path class="cls-9" d="M805.66,207.83l21.08-9.46s-14.6,23.36-19.36,24.56"></path>
    <path class="cls-9" d="M599.07,547.27s3.29-19.33,6.94-24.46"></path>
    <path class="cls-9" d="M775.31,549.93s-7.82-8.67-10.64-23.98"></path>
    <line class="cls-9" x1="524.46" y1="556.39" x2="547.89" y2="565.11"></line>
    <line class="cls-9" x1="340.09" y1="600.09" x2="364.03" y2="600.09"></line>
    <path class="cls-9" d="M535.43,296.86l-27.01-6.91s-1.24,6.83,8.08,15.84c9.31,9.01,13.04,48.76,40.06,57.15,27.02,8.38,47.52-.94,54.35-22.37.23-.72.46-1.43.69-2.16"></path>
    <path class="cls-9" d="M546.78,278.02l-12.84,21.31,25.98,11.07v4.74l54.23,24.4-14.01,29.6,2.26,1.81-8.81,11.98,1.36,2.26-18.8,34.57s23.89,2.34,30.64-1.53l35.46-60.84,1.9.82s12.64-24.7-6.52-36.2l-35.27-32.29"></path>
    <path class="cls-9" d="M579.6,420.04l-3.46,6.86s30.68,18.15,48.11,17.34v-.68c0-2.61-1.04-5.13-2.9-6.96-3.7-3.63-10.15-10.53-14.57-18.37"></path>
    <path class="cls-9" d="M594.95,385.19s12,9.68,25.07,10.33"></path>
    <path class="cls-9" d="M602.4,370.95s11.79,8.55,27.32,7.9"></path>
    <path class="cls-11" d="M539.1,184.66c3.09,3.12,6.26,6.29,10.17,8.29,3.91,2,8.77,2.65,12.66.61,3.7-1.94,5.91-5.99,6.66-10.1.75-4.11.24-8.33-.26-12.47"></path>
    <path class="cls-11" d="M648.15,178.94c-.21,2.82-.3,5.7.38,8.44s2.22,5.39,4.66,6.83c2.33,1.38,5.25,1.53,7.85.79s4.9-2.31,6.88-4.17"></path>
    <path class="cls-11" d="M497.83,243.18c11.51-.4,23.06.19,34.48,1.74"></path>
    <path class="cls-13" d="M530.68,196.77s13.22,28.48,37.63,22.63c24.41-5.85,23.9-33.31,8.65-42.98h-22.21c-2.37,0-4.68.75-6.6,2.14-4.56,3.3-12.98,10.12-17.48,18.2Z"></path>
    <path class="cls-13" d="M639.95,178.45h15.07c1.49,0,2.92.55,4.02,1.55,4.17,3.77,14.4,13.7,15.74,21.61,0,0-16.57,28.43-30.69,15.44-14.12-12.99-11.11-32.57-4.14-38.6Z"></path>
    <path class="cls-13" d="M647.9,219.58s-.5,20.69-10.26,31.71h-49.16c-11.39-5.6-22.23-30.84-22.23-30.84"></path>
    <line class="cls-13" x1="530.68" y1="198.31" x2="508.11" y2="226.85"></line>
    <line class="cls-13" x1="556.16" y1="219.58" x2="531.75" y2="242.7"></line>
    <line class="cls-13" x1="667.84" y1="246.11" x2="649.4" y2="220.45"></line>
    <path class="cls-13" d="M504.75,225.28s-16.29,15.45,0,34.84l28.21-12.92.57-3.74-28.78-18.17Z"></path>
    <line class="cls-13" x1="545.88" y1="257.81" x2="530.04" y2="248.54"></line>
    <path class="cls-13" d="M506.47,259.33s18.58,13.44,45.6,20.11"></path>
    <polyline class="cls-13" points="629.16 256.68 637.15 256.68 637.15 251.29"></polyline>
    <path class="cls-13" d="M579.05,177.94s9.15-3.07,11.31-9.18c.04-.1.14-.14.23-.09,1.13.73,8.05,4.83,22,4.83s17.87-4.08,18.48-4.83c.04-.05.12-.04.14.02.38,1.11,3.73,8.57,8.09,10.03"></path>
    <path class="cls-13" d="M622.17,121.88l-6.19.36-24.81,27.02c-1.11,1.22-3.1,1-3.94-.43l-.19-.32c-.21-.38-.33-.81-.33-1.24v-20.42s9.65-19.72,24.86-23.18c0,0,11.25,5.8,16.96,13.41"></path>
    <line class="cls-13" x1="586.71" y1="126.86" x2="594.59" y2="145.53"></line>
    <line class="cls-13" x1="611.57" y1="103.68" x2="615.97" y2="122.24"></line>
    <path class="cls-13" d="M597.46,112.09l-.03-6.36c-.01-1.93,1.26-3.64,3.12-4.17l1.53-.44c2.65-.77,5.33,1.12,5.51,3.87h0"></path>
    <path class="cls-5" d="M592.25,144.54c0,1.07-.87,1.94-1.94,1.94-1.07,0-1.94-.87-1.94-1.94,0-1.07.87-1.94,1.94-1.94s1.94.87,1.94,1.94Z"></path>
    <circle class="cls-5" cx="592.31" cy="175.54" r="1.94"></circle>
    <circle class="cls-5" cx="612.72" cy="196.38" r="1.94"></circle>
    <circle class="cls-5" cx="536.78" cy="199.45" r="1.94"></circle>
    <circle class="cls-5" cx="543.95" cy="207.09" r="1.94"></circle>
    <circle class="cls-5" cx="554.22" cy="213.46" r="1.94"></circle>
    <circle class="cls-5" cx="564.31" cy="214.34" r="1.94"></circle>
    <circle class="cls-5" cx="573.83" cy="211.52" r="1.94"></circle>
    <circle class="cls-5" cx="580.98" cy="203.64" r="1.94"></circle>
    <circle class="cls-5" cx="582.24" cy="194.44" r="1.94"></circle>
    <circle class="cls-5" cx="579.05" cy="186.2" r="1.94"></circle>
    <circle class="cls-5" cx="640.46" cy="186.2" r="1.94"></circle>
    <circle class="cls-5" cx="639.29" cy="193.13" r="1.94"></circle>
    <circle class="cls-5" cx="640.46" cy="200.78" r="1.94"></circle>
    <circle class="cls-5" cx="643.17" cy="208.4" r="1.94"></circle>
    <circle class="cls-5" cx="648.54" cy="214.34" r="1.94"></circle>
    <circle class="cls-5" cx="655.95" cy="213.91" r="1.94"></circle>
    <circle class="cls-5" cx="662.76" cy="209.54" r="1.94"></circle>
    <circle class="cls-5" cx="668.2" cy="203.21" r="1.94"></circle>
    <circle class="cls-5" cx="628.43" cy="177.97" r="1.94"></circle>
    <line class="cls-13" x1="590.1" y1="150.06" x2="591.1" y2="168.9"></line>
    <path class="cls-13" d="M628.32,129.16c5.06,3.25,2.34,23.5,2.34,23.5,0,7.4-6,13.4-13.4,13.4-7.4,0-13.4-6-13.4-13.4"></path>
    <path class="cls-13" d="M603.86,173.06v-25.88s0,0,0,0c-.09,0-.18,0-.28,0-2.52,0-4.56-2.04-4.56-4.56,0-2.52,2.04-4.56,4.56-4.56"></path>
    <path class="cls-13" d="M609.68,129.29h22.02c1.36,0,2.71-.32,3.86-1.03,1.34-.83,2.69-2.29,2.69-4.82.01-5.05-3.31-9.86-7.91-5.91"></path>
    <line class="cls-13" x1="623.2" y1="164.85" x2="623.2" y2="172.09"></line>
    <line class="cls-13" x1="630.72" y1="169.71" x2="630.94" y2="150.06"></line>
    <path class="cls-13" d="M621.55,149.38h2.68c1.47,0,2.51-1.45,2.03-2.84l-1.74-5.12c-.35-1.03.41-2.1,1.5-2.1h5.36"></path>
    <path class="cls-7" d="M612.31,151.82l10.56,3.57s-1.39,5.13-6.82,3.3-3.74-6.86-3.74-6.86Z"></path>
    <path class="cls-13" d="M603.36,137.98s8.05.81,9.74-8.82"></path>
    <line class="cls-13" x1="591.95" y1="125.76" x2="597.23" y2="136.97"></line>
    <line class="cls-13" x1="595.62" y1="120.24" x2="600.9" y2="131.44"></line>
    <line class="cls-13" x1="600.18" y1="115.02" x2="605.46" y2="126.23"></line>
    <line class="cls-13" x1="605.59" y1="109.62" x2="610.87" y2="122.24"></line>
    <line class="cls-13" x1="620.76" y1="121.79" x2="618.84" y2="112.09"></line>
    <path class="cls-13" d="M583.89,176.13c5.67,1.85,10.22,6.14,13.99,10.77,3.77,4.63,6.97,9.72,11.09,14.04,1.36,1.43,3.07,2.85,5.04,2.71,1.73-.13,3.11-1.43,4.31-2.69,7.01-7.32,11.33-18.75,18.59-23.99"></path>
    <path class="cls-13" d="M614.01,203.64s1.32,17.52,1.3,23.51"></path>
    <line class="cls-13" x1="591.1" y1="164.85" x2="603.86" y2="168.1"></line>
    <line class="cls-13" x1="591.1" y1="159.48" x2="603.86" y2="162.73"></line>
    <line class="cls-13" x1="591.1" y1="154.57" x2="603.86" y2="157.81"></line>
    <line class="cls-13" x1="591.1" y1="150.06" x2="603.86" y2="153.31"></line>
    <line class="cls-13" x1="593.93" y1="146.25" x2="603.86" y2="148.78"></line>
    <line class="cls-13" x1="623.2" y1="167.89" x2="630.94" y2="164.22"></line>
    <path class="cls-13" d="M631.8,121.51c-1.36-6.49-9.44-7.05-10.14,2.07"></path>
    <circle class="cls-1" cx="615.97" cy="140.55" r="2.46"></circle>
    <circle class="cls-1" cx="805.66" cy="253.98" r="4.13"></circle>
    <path class="cls-16" d="M619.44,286.94h-.01c-7.56,12.83-18.23,23.46-31.76,31.61-13.52-8.15-24.2-18.78-31.76-31.61h-.01c-6.9-11.72-10.37-25.36-10.06-39.44l.42-18.57c15.74-.92,30.44-5.42,41.29-12.63h.12s.12.01.12.01c10.85,7.2,25.55,11.69,41.29,12.61l.42,18.57c.31,14.08-3.16,27.73-10.06,39.44Z"></path>
    <path class="cls-12" d="M587.67,307.5c-9.92-6.85-17.9-15.34-23.76-25.28l-.59-1c-5.63-10-8.46-21.56-8.2-33.52l.24-10.35c11.9-1.63,23.01-5.17,32.31-10.29,9.3,5.12,20.42,8.65,32.32,10.29l.23,10.35c.27,12-2.59,23.6-8.26,33.62l-.53.9c-5.86,9.94-13.84,18.42-23.76,25.28Z"></path>
    <line class="cls-13" x1="684.93" y1="235.21" x2="674.05" y2="204.14"></line>
    <path class="cls-9" d="M559.92,310.4s1.25-9.28,4.1-11.94"></path>
    <path class="cls-9" d="M634.11,256.68l-1.18,21.34.36.7c3.47,6.69,2.1,14.73-3.09,20.2-2.51,2.65-4.81,6.06-6.92,9.96"></path>
    <path class="cls-13" d="M640.68,273.35c.67-4.12,1.37-8.31,3.24-12.05,1.87-3.73,5.15-6.99,9.24-7.79,3.43-.67,7.25.38,10.32-1.29,5.55-3.03,4.36-12.23,9.49-15.93,5.46-3.94,13.75,1.17,19.64-2.09,6.31-3.49,5.49-13.99,11.71-17.64,4.85-2.85,11.52.05,16.45-2.65,4.36-2.39,5.82-8.32,10.18-10.71,4.34-2.37,9.84-.38,14.58-1.78,4.38-1.3,7.46-5.29,11.65-7.12,4.6-2.01,10.1-1.11,14.43,1.44,4.32,2.55,7.59,6.57,10.21,10.85"></path>
    <path class="cls-9" d="M661.65,308.88s37.92,50.86,64.09,57.1"></path>
    <path class="cls-9" d="M659.88,322s26.58,52.98,45.96,65.73"></path>
    <path class="cls-9" d="M802.03,298.5s9.27-3.83,14.17-1.2c0,0,6.93-13.23,15.93-13.53"></path>
    <line class="cls-9" x1="825.43" y1="298.5" x2="823.2" y2="306.06"></line>
    <path class="cls-9" d="M770.73,206.42s-1.88,26.92,7.75,33.16"></path>
    <circle class="cls-9" cx="783.96" cy="242.79" r="5.48"></circle>
    <path class="cls-9" d="M789.44,242.79s19.03-5.18,23.4-11.28"></path>
    <line class="cls-9" x1="781.55" y1="248.27" x2="775.41" y2="267.96"></line>
    <line class="cls-9" x1="786.59" y1="248.27" x2="809.28" y2="288.9"></line>
    <line class="cls-9" x1="800.75" y1="294.76" x2="829.56" y2="276.78"></line>
    <line class="cls-9" x1="782.33" y1="219.21" x2="799.87" y2="203.78"></line>
    <path class="cls-9" d="M637.61,322c-12.29,2.37-23.46,17.54-23.46,17.54,0,0,11.14,12.25,28.08,17.84"></path>
  </g>
</svg>
