<?xml version="1.0" encoding="UTF-8"?>
<!-- Generator: Adobe Illustrator 27.7.0, SVG Export Plug-In . SVG Version: 6.00 Build 0)  -->
<svg xmlns="http://www.w3.org/2000/svg" xmlns:xlink="http://www.w3.org/1999/xlink" version="1.1" id="Layer_1" x="0px" y="0px" viewBox="0 0 1076 684" style="enable-background:new 0 0 1076 684;" xml:space="preserve">
<style type="text/css">
	.st0{fill:#5E9C1C;stroke:#233212;stroke-width:2.5044;stroke-miterlimit:10;}
	.st1{fill:#D2E7B4;}
	.st2{fill:#FFFFFF;}
	.st3{fill:#6FAF2F;}
	.st4{fill:#538323;}
	.st5{fill:#FAFAFA;}
	.st6{fill:#233212;}
	.st7{fill:#5E9C1C;}
	.st8{fill:none;stroke:#233212;stroke-width:2.5044;stroke-miterlimit:10;}
	.st9{fill:#EE9E55;}
	.st10{fill:none;stroke:#FFFFFF;stroke-width:2.7881;stroke-miterlimit:10;}
	.st11{clip-path:url(#SVGID_00000129208067288797736430000004897657045113658242_);}
	.st12{fill:none;stroke:#D2E7B4;stroke-width:2.7881;stroke-miterlimit:10;}
	.st13{fill:#EDF5E1;}
	.st14{fill:none;stroke:#477515;stroke-width:2.7881;stroke-miterlimit:10;}
	.st15{fill:none;stroke:#233212;stroke-width:2.7881;stroke-miterlimit:10;}
	.st16{fill:#477515;}
</style>
<g id="Layer_4">
	<path class="st0" d="M391,34h360.6c11.3,0,20.4,9.1,20.4,20.4v275.2c0,11.3-9.1,20.4-20.4,20.4H391c-11.3,0-20.4-9.1-20.4-20.4   V54.5C370.6,43.2,379.7,34,391,34z"></path>
	<path class="st1" d="M714.1,246.2H471.6c-8.7,0-15.7-7.1-15.7-15.7v-7.3c0-8.7,7.1-15.7,15.7-15.7h242.5c8.7,0,15.7,7.1,15.7,15.7   v7.3C729.9,239.1,722.8,246.2,714.1,246.2z M471.6,210.6c-6.9,0-12.6,5.6-12.6,12.6v7.3c0,6.9,5.6,12.6,12.6,12.6h242.5   c6.9,0,12.6-5.6,12.6-12.6v-7.3c0-6.9-5.6-12.6-12.6-12.6C714.1,210.6,471.6,210.6,471.6,210.6z"></path>
	<path class="st1" d="M714.1,183H471.6c-8.7,0-15.7-7.1-15.7-15.7V160c0-8.7,7.1-15.7,15.7-15.7h242.5c8.7,0,15.7,7.1,15.7,15.7v7.3   C729.9,176,722.8,183,714.1,183z M471.6,147.4c-6.9,0-12.6,5.6-12.6,12.6v7.3c0,6.9,5.6,12.5,12.6,12.5h242.5   c6.9,0,12.6-5.6,12.6-12.5V160c0-6.9-5.6-12.6-12.6-12.6H471.6z"></path>
	<g>
		<path class="st2" d="M487.7,218.7l-5.3,7v0.1l8.5-1.1v3.8l-8.5-1v0.1l5.4,6.7l-3.5,2l-3.4-7.8h-0.1l-3.6,7.9l-3.2-2l5.3-6.8v-0.1    l-8.3,1.1v-3.8l8.2,1.1v-0.1l-5.3-6.8l3.4-2l3.5,7.8h0.1l3.4-7.8L487.7,218.7L487.7,218.7z"></path>
		<path class="st2" d="M514.3,218.7l-5.3,7v0.1l8.5-1.1v3.8l-8.5-1v0.1l5.4,6.7l-3.5,2l-3.4-7.8h-0.1l-3.6,7.9l-3.2-2l5.3-6.8v-0.1    l-8.3,1.1v-3.8l8.2,1.1v-0.1l-5.3-6.8l3.4-2l3.5,7.8h0.1l3.4-7.8L514.3,218.7L514.3,218.7z"></path>
		<path class="st2" d="M540.9,218.7l-5.3,7v0.1l8.5-1.1v3.8l-8.5-1v0.1l5.4,6.7l-3.5,2l-3.4-7.8H534l-3.6,7.9l-3.2-2l5.3-6.8v-0.1    l-8.3,1.1v-3.8l8.2,1.1v-0.1l-5.3-6.8l3.4-2l3.5,7.8h0.1l3.4-7.8C537.6,216.8,540.9,218.7,540.9,218.7z"></path>
		<path class="st2" d="M567.5,218.7l-5.3,7v0.1l8.5-1.1v3.8l-8.5-1v0.1l5.4,6.7l-3.5,2l-3.4-7.8h-0.1l-3.6,7.9l-3.2-2l5.3-6.8v-0.1    l-8.3,1.1v-3.8l8.2,1.1v-0.1l-5.3-6.8l3.4-2l3.5,7.8h0.1l3.4-7.8L567.5,218.7L567.5,218.7z"></path>
		<path class="st2" d="M594.2,218.7l-5.3,7v0.1l8.5-1.1v3.8l-8.5-1v0.1l5.4,6.7l-3.5,2l-3.4-7.8h-0.1l-3.6,7.9l-3.2-2l5.3-6.8v-0.1    l-8.3,1.1v-3.8l8.2,1.1v-0.1l-5.3-6.8l3.4-2l3.5,7.8h0.1l3.4-7.8L594.2,218.7L594.2,218.7z"></path>
		<path class="st2" d="M620.8,218.7l-5.3,7v0.1l8.5-1.1v3.8l-8.5-1v0.1l5.4,6.7l-3.5,2l-3.4-7.8h-0.1l-3.6,7.9l-3.2-2l5.3-6.8v-0.1    l-8.3,1.1v-3.8l8.2,1.1v-0.1l-5.3-6.8l3.4-2l3.5,7.8h0.1l3.4-7.8L620.8,218.7L620.8,218.7z"></path>
		<path class="st2" d="M647.4,218.7l-5.3,7v0.1l8.5-1.1v3.8l-8.5-1v0.1l5.4,6.7l-3.5,2l-3.4-7.8h-0.1l-3.6,7.9l-3.2-2l5.3-6.8v-0.1    l-8.3,1.1v-3.8l8.2,1.1v-0.1l-5.3-6.8l3.4-2l3.5,7.8h0.1l3.4-7.8L647.4,218.7L647.4,218.7z"></path>
	</g>
	<g>
		<path class="st2" d="M474.8,152.2v13.5c0,5.1,2.3,7.3,5.3,7.3c3.4,0,5.6-2.2,5.6-7.3v-13.5h3v13.3c0,7-3.7,9.9-8.6,9.9    c-4.7,0-8.2-2.7-8.2-9.8v-13.5C471.8,152.2,474.8,152.2,474.8,152.2z"></path>
		<path class="st2" d="M493.1,172c0.9,0.6,2.4,1.2,3.9,1.2c2.2,0,3.2-1.1,3.2-2.4c0-1.4-0.8-2.2-3.1-3c-2.9-1.1-4.3-2.7-4.3-4.6    c0-2.6,2.1-4.8,5.7-4.8c1.7,0,3.1,0.5,4,1l-0.7,2.2c-0.6-0.4-1.8-0.9-3.4-0.9c-1.8,0-2.7,1-2.7,2.2c0,1.4,1,2,3.1,2.8    c2.8,1.1,4.3,2.5,4.3,5c0,2.9-2.2,4.9-6.1,4.9c-1.8,0-3.5-0.4-4.6-1.1C492.4,174.2,493.1,172,493.1,172z"></path>
		<path class="st2" d="M508.6,167.4c0.1,4,2.6,5.7,5.6,5.7c2.1,0,3.4-0.4,4.5-0.8l0.5,2.1c-1.1,0.5-2.8,1-5.5,1    c-5.1,0-8.1-3.3-8.1-8.3s2.9-8.8,7.7-8.8c5.4,0,6.8,4.7,6.8,7.7c0,0.6-0.1,1.1-0.1,1.4C520.1,167.4,508.6,167.4,508.6,167.4z     M517.3,165.2c0-1.9-0.8-4.8-4.1-4.8c-3,0-4.3,2.8-4.6,4.8C508.6,165.2,517.3,165.2,517.3,165.2z"></path>
		<path class="st2" d="M523.9,163.7c0-1.9,0-3.6-0.1-5.1h2.6l0.1,3.2h0.1c0.7-2.2,2.5-3.6,4.5-3.6c0.3,0,0.6,0,0.8,0.1v2.8    c-0.3-0.1-0.6-0.1-1-0.1c-2.1,0-3.6,1.6-4,3.8c-0.1,0.4-0.1,0.9-0.1,1.4v8.7h-2.9C523.9,175,523.9,163.7,523.9,163.7z"></path>
		<path class="st2" d="M535.1,163c0-1.7,0-3.1-0.1-4.4h2.6l0.2,2.7h0.1c0.8-1.6,2.7-3.1,5.4-3.1c2.3,0,5.8,1.4,5.8,7v9.8h-3v-9.5    c0-2.6-1-4.8-3.8-4.8c-2,0-3.5,1.4-4,3.1c-0.1,0.4-0.2,0.9-0.2,1.4v9.9h-3L535.1,163L535.1,163z"></path>
		<path class="st2" d="M563,175l-0.2-2.1h-0.1c-0.9,1.3-2.7,2.4-5,2.4c-3.3,0-5-2.3-5-4.7c0-4,3.5-6.1,9.9-6.1v-0.3    c0-1.4-0.4-3.8-3.7-3.8c-1.5,0-3.1,0.5-4.3,1.2l-0.7-2c1.4-0.9,3.3-1.5,5.4-1.5c5,0,6.2,3.4,6.2,6.7v6.1c0,1.4,0.1,2.8,0.3,3.9    H563L563,175z M562.6,166.6c-3.3-0.1-7,0.5-7,3.7c0,1.9,1.3,2.8,2.8,2.8c2.1,0,3.5-1.4,4-2.7c0.1-0.3,0.2-0.6,0.2-0.9V166.6z"></path>
		<path class="st2" d="M570.3,163c0-1.7,0-3.1-0.1-4.4h2.6l0.1,2.6h0.1c0.9-1.6,2.4-3,5.2-3c2.2,0,3.9,1.4,4.6,3.3h0.1    c0.5-0.9,1.2-1.6,1.8-2.1c1-0.7,2.1-1.2,3.6-1.2c2.2,0,5.4,1.4,5.4,7.1v9.7h-2.9v-9.3c0-3.2-1.2-5.1-3.6-5.1c-1.7,0-3,1.3-3.5,2.7    c-0.1,0.4-0.2,0.9-0.2,1.5V175h-2.9v-9.8c0-2.6-1.2-4.5-3.4-4.5c-1.9,0-3.2,1.5-3.7,3c-0.2,0.4-0.2,0.9-0.2,1.5v9.9h-2.9    C570.3,175,570.3,163,570.3,163z"></path>
		<path class="st2" d="M600.2,167.4c0.1,4,2.6,5.7,5.6,5.7c2.1,0,3.4-0.4,4.5-0.8l0.5,2.1c-1.1,0.5-2.8,1-5.5,1    c-5.1,0-8.1-3.3-8.1-8.3s2.9-8.8,7.7-8.8c5.4,0,6.8,4.7,6.8,7.7c0,0.6-0.1,1.1-0.1,1.4L600.2,167.4L600.2,167.4z M608.9,165.2    c0-1.9-0.8-4.8-4.1-4.8c-3,0-4.3,2.8-4.6,4.8H608.9z"></path>
	</g>
	<g id="_29NnQ7.tif">
		<g>
			<path class="st3" d="M734.8,467.6c1.8,2.7,3.6,5.4,5.5,8.1c7.2,10.1,15.2,19.6,23.8,28.6c6,6.3,12.2,12.4,18.3,18.6     c2.7,2.7,5.5,5.3,8.3,7.9c0.6,0.6,0.5,0.9,0.1,1.6c-1.8,2.9-3.5,5.9-5.3,8.9c-0.7,1.2-1.5,2.4-2.2,3.5c-1.5,2.2-2.9,4.4-4.4,6.6     c-5,7.2-10,14.5-15.1,21.7c-2.7,3.8-5.6,7.4-8.6,11c-2.7,3.4-5.6,6.8-8.4,10.1c-2.1,2.5-4.3,5-6.5,7.4c-1.6,1.8-3.2,3.5-4.8,5.2     c-3.9,3.8-7.8,7.7-11.8,11.4c-9.2,8.5-19,16.1-29.9,22.2c-9.3,5.2-19.1,9.4-29.3,12.8c-14.4,4.7-29,7.9-43.9,10.2     c-8,1.2-16,2-24.1,2.7c-9.2,0.8-18.4,1.1-27.6,1.2c-6.9,0.1-13.8-0.2-20.7-0.4c-0.8,0-1-0.5-1.2-1c-1.5-4.2-3.1-8.4-4.5-12.6     c-2.3-7.1-4.6-14.3-6.7-21.5c-1.5-5.2-2.6-10.4-4-15.6c-3.3-12.7-5.2-25.7-6.9-38.7c-0.7-5.2-0.8-10.6-1-15.8     c-0.2-5.3-0.2-10.7-0.2-16c0.3-4.2,0.5-8.5,0.9-12.7c0.7-6.9,2-13.6,3.6-20.3c1.8-7.4,4.4-14.5,7.2-21.5c0.2-0.5,0.4-1,0.6-1.5     c3.6-9,8.2-17.5,12.7-26.1c1.9-3.6,4-7.1,6.1-10.6c1.5-2.6,3.3-5,4.8-7.5c6.2-10.1,13.3-19.6,20.3-29.2c2.6-3.5,5.5-6.9,8.2-10.3     c2-2.5,3.9-4.9,5.9-7.3c1.5-1.9,3.1-3.8,4.7-5.6c0.2-0.2,1-0.3,1.4-0.1c9.4,5.4,19.1,10.4,28.9,14.9c7.8,3.6,15.7,7.2,23.7,10.4     c11.1,4.3,22.5,8,34.2,10.5c4.9,1,9.8,2.1,14.7,2.6c4.9,0.5,9.8,0.2,14.7,0.2c1.1,0,1.5,0.3,1.8,1.3c1,3.4,2,6.7,3.1,10     c1.9,5.6,5,10.7,7.9,15.8C730.9,461.6,732.9,464.6,734.8,467.6L734.8,467.6z M560.3,489.3c-0.9,1.9-1.8,3.9-2.7,5.8     c-3.5,7.7-6.7,15.5-8.7,23.7c-1.1,4.7-1.9,9.4-2.9,14.1c-0.1,0.4-0.2,0.8-0.2,1.3c-1.2,12.5-1,24.9,0.3,37.4     c1,10.2,2.9,20.3,5.2,30.2c1,4.3,1.9,8.7,3.1,12.9c2,6.9,4.2,13.7,6.4,20.5c0.8,2.6,1.8,5.1,2.8,7.5c0.2,0.4,0.7,1,1.2,1     c1.9,0.2,3.9,0.3,5.8,0.3c5.9,0,11.8,0,17.7-0.1c8.5-0.1,16.9-0.7,25.4-1.8c15-1.9,29.7-4.6,44.1-9.4c8.3-2.8,16.2-6.1,23.8-10.5     c7-4,13.7-8.4,19.7-13.9c3-2.8,6.1-5.5,9.2-8.2c1.4-1.4,2.8-2.8,4.1-4.3c2.1-2.2,4.2-4.4,6.3-6.7c2.1-2.3,4.1-4.8,6.1-7.2     c3.2-3.9,6.5-7.7,9.5-11.7c4.4-5.9,8.6-11.9,12.7-18c2.9-4.1,5.5-8.4,8.3-12.6c0.9-1.4,1.7-2.8,2.5-4.3c0.1-0.2,0-0.8-0.2-1     c-0.9-0.9-1.9-1.8-2.8-2.6c-4-3.9-8.2-7.6-12.1-11.6c-4.1-4.2-8-8.5-11.9-12.8c-6.7-7.7-13.1-15.6-18.6-24.2     c-1.5-2.4-3.1-4.9-4.6-7.3c-1.5-3-3.2-5.9-4.5-9c-1.5-3.6-2.8-7.2-3.9-11c-0.4-1.2-0.7-1.5-1.9-1.4c-1.7,0.2-3.4,0.2-5.1,0.1     c-10.6-0.4-20.8-2.7-30.9-5.7c-6.2-1.9-12.2-4.2-18.2-6.6c-6-2.4-11.9-4.9-17.6-7.7c-7-3.5-13.9-7.3-20.8-11     c-0.8-0.4-1.3-0.5-2,0.3c-3.1,3.8-6.3,7.5-9.4,11.2c-2.2,2.7-4.3,5.5-6.3,8.3c-5.4,7.7-10.8,15.3-16,23.1c-2.7,4-5,8.1-7.4,12.3     C563.8,482.2,562.1,485.8,560.3,489.3L560.3,489.3z"></path>
			<path class="st3" d="M637.9,565c-1.1,2.3-2.2,4.7-3.3,7c-1.4,2.9-2.8,5.7-4.2,8.6c-0.9,1.8-1.7,3.7-2.5,5.6     c-0.1,0-0.1,0.1-0.2,0.1c-5.4-3.9-10.7-7.7-16.1-11.6c-4-2.9-8.1-5.8-12.1-8.7c-1.2-0.8-1.2-1-0.1-2c4.5-4.3,9-8.7,13.6-13.1     c2.1-2,4.3-4.1,6.4-6.1c1.8-1.7,3.6-3.5,5.5-5.1c0.7-0.6,0.9-1.1,0.5-2c-1.2-3.3-2.3-6.7-2.1-10.3c0.2-4,1.4-7.6,3.2-11.1     c5.8-10.9,19.1-14.7,29.8-10.9c2.4,0.9,4.5,2.4,6.5,3.9c2.4,1.8,4.2,3.9,5.7,6.4c4.2,7.1,4.9,14.5,1.5,22     c-3.2,7.1-8.6,12-16.3,13.9c-2.5,0.6-4.9,0.8-7.4,0.6c-1.6-0.1-2.5,0.3-3.2,2c-1.4,3.5-3.3,6.9-4.9,10.3     C637.9,564.7,637.9,564.8,637.9,565L637.9,565z"></path>
			<path class="st3" d="M627.6,586.3c0.1,0,0.1-0.1,0.2-0.1C627.8,586.2,627.7,586.2,627.6,586.3z"></path>
		</g>
	</g>
	<path class="st1" d="M430,160.1c2.8-0.9,4.9-3.5,4.9-6.6c0-3.8-3.1-6.9-6.9-6.9s-6.9,3.1-6.9,6.9c0,3.1,2.1,5.7,4.9,6.6   c-7.4,1-13.2,7.4-13.2,15.1v0.8c0,2.7,2.2,4.9,4.9,4.9h20.7c2.7,0,4.9-2.2,4.9-4.9v-0.8C443.2,167.5,437.4,161.1,430,160.1z    M424.1,153.5c0-2.1,1.7-3.8,3.8-3.8s3.8,1.7,3.8,3.8s-1.7,3.8-3.8,3.8S424.1,155.6,424.1,153.5z M440.1,175.9c0,1-0.8,1.8-1.8,1.8   h-20.7c-1,0-1.8-0.8-1.8-1.8v-0.8c0-6.7,5.4-12.1,12.1-12.1c6.7,0,12.1,5.4,12.1,12.1C440.1,175.2,440.1,175.9,440.1,175.9z"></path>
	<g>
		<path class="st1" d="M430.9,247.6H425c-6.6,0-11.9-5.3-11.9-11.9v-13.8c0-2.2,1.8-4,4-4h21.7c2.2,0,4,1.8,4,4v13.8    C442.8,242.3,437.5,247.6,430.9,247.6z M417.1,221c-0.5,0-0.9,0.4-0.9,0.9v13.8c0,4.8,3.9,8.8,8.8,8.8h5.9c4.8,0,8.8-3.9,8.8-8.8    v-13.8c0-0.5-0.4-0.9-0.9-0.9H417.1z"></path>
		<path class="st1" d="M439.8,219.5h-3.1v-3.8c0-2.3-0.9-4.5-2.6-6.2c-1.6-1.6-3.8-2.6-6.2-2.6c-4.8,0-8.7,3.9-8.7,8.7v3.8h-3.1    v-3.8c0-6.5,5.3-11.8,11.8-11.8c3.2,0,6.1,1.2,8.4,3.5c2.2,2.2,3.5,5.2,3.5,8.4V219.5z"></path>
		<path class="st1" d="M430.5,228.5c0.2,0.9-0.2,1.8-0.8,2.3c-0.3,0.3-0.5,0.6-0.4,1l0.5,4.3c0,0.4-0.3,0.8-0.7,0.8h-2.2    c-0.4,0-0.7-0.4-0.7-0.8l0.5-4.3c0-0.4-0.1-0.8-0.4-1c-0.5-0.5-0.8-1.1-0.8-1.9c0-1.5,1.4-2.8,3-2.5    C429.4,226.6,430.3,227.5,430.5,228.5z"></path>
	</g>
	<g>
		<path class="st4" d="M345.1,580.4c0,0-5-0.8-9.8,2.2c-0.3,0.2-0.6,0.4-0.9,0.6c-2.3,1.6-4.5,4.1-6,7.9c-0.4,0.9-0.6,2-0.8,3.3    c0.6-11.7,0-24.7-3.7-34.4c-0.3-0.7-0.6-1.4-0.9-2c-3.4-7.6-9.1-12.7-18.2-12.8c0,0-1.2,0.1-2.9,0.6c-0.2,0.1-0.5,0.2-0.8,0.3    c-3.3,1.2-8,4.1-9.9,10.9c-6-16.3-15.7-38.2-28.1-48.8c-0.7-0.6-1.3-1.1-2-1.5c-6-4.5-12.7-6.3-19.7-3.6c0,0-1.1,0.5-2.4,1.6    c-0.3,0.2-0.5,0.4-0.8,0.6c-2,1.8-4.3,4.8-5,9.2c-4.5-4.2-9.6-8.8-15-12.8c-0.3-0.2-0.5-0.3-0.7-0.5c-7.8-5.7-16-10.3-23.4-11.1    c-0.3-0.1-0.6-0.1-0.9-0.1c-1.1-0.1-2.2-0.1-3.2,0c-6.9,0.7-11.2,3.6-13.6,6.2c-0.2,0.2-0.4,0.4-0.6,0.6c-1.8,2.2-2.5,4-2.5,4    c-1.1,5.3-0.1,10.2,2.4,14.6c0.1,0.3,0.3,0.5,0.4,0.7c4.9,8.2,15,14.9,26.2,20.2c0.3,0.1,0.6,0.3,1,0.4c6.8,3.1,14,5.8,20.6,7.9    c-12.6,0.1-15.7,10.8-15.7,10.8c0,0.1-0.1,0.3-0.1,0.4c0,0.3-0.1,0.5-0.1,0.8c-1.5,9.6,3.8,16.6,12.1,21.7c0.5,0.3,1,0.6,1.5,0.8    c9.4,5.4,22,8.6,33.4,10.6c-9.6,1.2-12.8,9-13.3,10.4c-0.1,0.1-0.1,0.2-0.1,0.2c0,0.2-0.1,0.4-0.1,0.5c-1.9,9.8,3.3,16.9,11.5,22    c0.4,0.3,0.9,0.5,1.4,0.8c7,4,16.1,6.7,25.1,8.5c-5.9,2.3-8.4,6.7-9.5,9.8c-0.1,0.3-0.2,0.6-0.3,0.8c-0.4,1.4-0.5,2.4-0.5,2.4    c0.1,10.8,8.1,16.8,19.2,19.9c0.5,0.1,0.9,0.3,1.4,0.4c23.1,5.7,58.3-0.2,65-1.5c0.4-0.1,0.7-0.1,0.9-0.2c0.2,0,0.3,0,0.3,0    s16.1-50.4,3-73.2c-0.2-0.5-0.5-0.9-0.8-1.3l0,0C355.1,585,350.9,581.8,345.1,580.4L345.1,580.4z"></path>
		<path class="st5" d="M277.3,641.1c-2.6,0.1-5.1,0.5-7.5,1c-0.1,0.3-0.2,0.6-0.3,0.8c2.5-0.5,5.1-0.9,7.8-1    c11.2-0.6,20.9,2.8,24,7.9c0.6,1,1,2.1,1,3.2c0.3,5.1-5.5,9.8-14.1,12.2c0.5,0.1,0.9,0.3,1.4,0.4c2.5-0.8,4.8-1.8,6.7-2.9    c4.4-2.6,7-6,6.8-9.6C302.8,645.8,291.2,640.4,277.3,641.1L277.3,641.1z"></path>
		<path class="st5" d="M251.6,600.4c-3.6-0.4-7-0.4-10.1-0.1c-0.1,0.1-0.1,0.2-0.1,0.2c0,0.2-0.1,0.4-0.1,0.5    c3.1-0.3,6.6-0.3,10.2,0.1c13.4,1.4,23.8,7.4,23.1,13.4c-0.3,2.8-3.1,5.3-7.8,6.8c-3.9,1.3-8.8,1.9-14,1.6    c0.4,0.3,0.9,0.5,1.4,0.8c4.8,0.1,9.2-0.5,12.8-1.8c1.5-0.5,2.9-1.1,4-1.8c2.6-1.6,4.1-3.5,4.3-5.7    C276.1,608.2,265.4,601.8,251.6,600.4z"></path>
		<path class="st5" d="M219.7,555.8c-4.1-0.4-8.1-0.4-11.7,0.1c0,0.3-0.1,0.5-0.1,0.8c3.6-0.5,7.6-0.5,11.7-0.1    c10.7,1.1,19.4,5.2,22.2,9.8c0.7,1.2,1,2.4,0.9,3.6c-0.6,5.6-10.6,9.2-22.8,8.5c0.5,0.3,1,0.6,1.5,0.8c7.3,0.2,13.8-1.1,17.8-3.5    c2.5-1.5,4.1-3.4,4.3-5.7C244.1,563.6,233.5,557.2,219.7,555.8L219.7,555.8z"></path>
		<path class="st5" d="M186.7,515.4c-3.9-0.4-7.7-0.4-11.2,0c0.1,0.3,0.3,0.5,0.4,0.7c3.3-0.4,7-0.4,10.7,0    c10.7,1.1,19.4,5.2,22.2,9.8c0.7,1.2,1,2.4,0.9,3.6c-0.3,2.9-3.2,5.3-7.7,6.8c0.3,0.1,0.6,0.3,1,0.4c1.2-0.4,2.2-0.9,3.1-1.5    c2.5-1.5,4.1-3.4,4.3-5.6C211.2,523.2,200.6,516.8,186.7,515.4z"></path>
		<path class="st5" d="M217.3,501.2c-0.5,3.1-1.8,5.1-3.7,6c-5.4,2.4-14.1-5.2-19.7-17.2c-0.3-0.1-0.6-0.1-0.9-0.1    c5.7,12.5,15.1,20.6,20.9,18c0.2-0.1,0.4-0.2,0.6-0.3c1.8-1.1,3-3.1,3.5-5.9C217.8,501.5,217.6,501.4,217.3,501.2z"></path>
		<path class="st5" d="M261,506.7c1,1.5,2,3.2,3,4.9c7,12.8,8.5,25.5,3.2,28.4c-5.3,2.9-15.2-5.1-22.2-17.9    c-3.3-6-5.4-12.1-6.1-17.3c-0.3,0.2-0.5,0.4-0.8,0.6c0.8,5.2,2.9,11.3,6.1,17.1c0.4,0.7,0.8,1.5,1.2,2.2    c7.1,11.9,16.8,18.9,22.1,16l0.2-0.1c5.4-3.3,4.1-16.3-3.1-29.3c-0.6-1-1.1-2-1.7-2.9C262.3,507.7,261.6,507.2,261,506.7z"></path>
		<path class="st5" d="M313.4,584.2c-2.8,0.2-5.7-2.4-8-7.2c-2.4-4.9-3.9-11.5-4.3-18.6c-0.2-4.4,0-8.7,0.7-12.5    c-0.2,0.1-0.5,0.2-0.8,0.3c-0.6,3.8-0.8,8-0.6,12.3c0.4,7.2,1.9,13.9,4.3,18.9c0.4,0.8,0.8,1.5,1.2,2.2c2.2,3.7,4.9,5.6,7.6,5.5    c0.9,0,1.7-0.3,2.6-0.8c4.7-2.8,7.9-12.5,7.8-24.1c-0.3-0.7-0.6-1.4-0.9-2C323.5,572.2,319.3,583.9,313.4,584.2L313.4,584.2z"></path>
		<path class="st5" d="M358,593.7c-0.8,15-6.8,27-13.4,26.6s-11.4-12.8-10.6-27.8c0.2-3.5,0.6-6.8,1.3-9.9c-0.3,0.2-0.6,0.4-0.9,0.6    c-0.6,2.9-1,6-1.2,9.2c-0.5,9.6,1.3,18.3,4.4,23.5c1.9,3.1,4.3,5.1,6.9,5.2c1.3,0.1,2.6-0.3,3.8-1c5.4-3.3,9.8-13.8,10.4-26.4    c0-1,0.1-2,0.1-3c-0.2-0.5-0.5-0.9-0.8-1.3C358,590.8,358,592.2,358,593.7L358,593.7z"></path>
		<path class="st5" d="M355.6,664c-0.2,0-0.5,0.1-0.9,0.2c-39.2-48.8-94.3-111.6-143.9-147.1c-16.2-11.6-27.8-17.4-35.2-20.3    c0.2-0.2,0.4-0.4,0.6-0.6c7.4,2.9,18.9,8.7,35,20.2C239.1,536.4,286.7,578.1,355.6,664z"></path>
	</g>
</g>
<g id="Layer_3">
	<path class="st6" d="M624.2,325.4H524c-7.9,0-14.3-6.4-14.3-14.3v-17.7c0-7.9,6.4-14.3,14.3-14.3h100.2c4.9,0-2-7,2.3-5.5   c6.4,2.2,12,8.5,12,19.7v17.7C638.5,319.1,632.1,325.4,624.2,325.4z"></path>
	<path class="st1" d="M518.5,272.7h100.2c7.9,0,14.3,6.4,14.3,14.3v17.7c0,7.9-6.4,14.3-14.3,14.3H518.5c-7.9,0-14.3-6.4-14.3-14.3   V287C504.2,279.1,510.6,272.7,518.5,272.7z"></path>
	<g>
		<path class="st1" d="M571.3,124C571.3,124,571.3,124,571.3,124c-21.5,0-39-17.5-39-38.9c0-10.4,4-20.2,11.4-27.6    c7.4-7.4,17.1-11.4,27.5-11.4c0,0,0,0,0.1,0c21.4,0,38.9,17.5,38.9,38.9c0,10.4-4,20.2-11.4,27.6C591.4,119.9,581.7,124,571.3,124    L571.3,124z M571.2,47.7c-9.9,0-19.3,3.9-26.3,10.9c-7.1,7.1-11,16.4-10.9,26.4c0,20.5,16.8,37.3,37.3,37.3h0.1    c9.9,0,19.3-3.9,26.3-10.9c7.1-7.1,11-16.4,10.9-26.4C608.6,64.5,591.8,47.7,571.2,47.7L571.2,47.7L571.2,47.7z"></path>
		<g>
			<path class="st1" d="M550.3,68.9c1.1-0.1,2-0.2,3-0.2c0.3,0,0.7-0.1,1-0.1c0.9-0.2,1.3-0.8,1.2-1.6c-0.1-0.8-0.6-1.2-1.5-1.2     c-1.5,0.1-2.9,0.2-4.4,0.2c-2.2,0-4.5,0-6.8,0c5-7.2,11.6-12.2,20.1-14.2c11.7-2.9,22.2-0.1,31.5,7.7c-0.1,0.1-0.2,0.2-0.3,0.2     c-4.1,0.1-6.8,4.2-5.4,8.4c0.6,1.7,1.5,3.2,2.4,4.8c1.2,2.1,2.3,4.2,2.9,6.6c0.8,2.9,0.5,5.9-0.3,8.7c-1.7,5.7-3.4,11.4-5.1,17.2     c0,0.1-0.1,0.2-0.2,0.4c-4.1-12.2-8.2-24.4-12.3-36.7c1-0.1,1.9-0.2,2.9-0.3c0.4,0,0.9-0.1,1.3-0.2c0.8-0.2,1.1-0.8,1-1.5     c-0.1-0.8-0.6-1.2-1.3-1.2c-1.4,0-2.9,0.2-4.3,0.2c-4.1,0-8.2-0.1-12.3-0.1c-0.6,0-1.2-0.1-1.8-0.1c-0.8,0-1.3,0.5-1.4,1.3     c-0.1,0.7,0.3,1.3,1.1,1.5c1,0.2,2.1,0.2,3.1,0.4c0.3,0.1,0.7,0.3,0.8,0.6c1.7,4.5,3.3,9.1,5,13.6c0.1,0.3,0.1,0.6,0,0.9     c-2.4,7.2-4.8,14.3-7.1,21.5c0,0.1-0.1,0.2-0.2,0.5C558.5,93.6,554.4,81.3,550.3,68.9L550.3,68.9z"></path>
			<path class="st1" d="M582.6,117.4c-7,2.4-13.9,2.6-21,0.5c3.4-9.9,6.8-19.8,10.3-29.9C575.5,97.9,579,107.6,582.6,117.4     L582.6,117.4z"></path>
			<path class="st1" d="M540,71.2c5.4,14.9,10.8,29.7,16.3,44.6C539.4,107.8,532.5,87.2,540,71.2z"></path>
			<path class="st1" d="M588.6,114.5c0.7-1.9,1.3-3.8,1.9-5.7c3.2-9.2,6.4-18.4,9.5-27.6c1.4-4,1.8-8.1,1.4-12.3     c2.8,2.8,4.8,14.6,3.8,21.1C603.4,102,595.7,110.6,588.6,114.5L588.6,114.5z"></path>
		</g>
	</g>
	<g>
		<path class="st7" d="M567.5,295.8c0,2.3-0.4,4.3-1.3,5.9c-0.9,1.6-2.1,2.9-3.6,3.7c-1.5,0.8-3.2,1.3-5.1,1.3    c-1.9,0-3.6-0.4-5.2-1.3c-1.5-0.8-2.7-2.1-3.6-3.7c-0.9-1.6-1.3-3.6-1.3-5.9c0-2.3,0.4-4.3,1.3-5.9c0.9-1.6,2.1-2.8,3.6-3.7    c1.5-0.8,3.2-1.3,5.2-1.3c1.9,0,3.6,0.4,5.1,1.3c1.5,0.8,2.7,2.1,3.6,3.7C567.1,291.4,567.5,293.4,567.5,295.8z M562.3,295.8    c0-2.1-0.4-3.7-1.3-4.8c-0.9-1.1-2.1-1.6-3.6-1.6c-1.5,0-2.7,0.5-3.6,1.6c-0.9,1.1-1.3,2.7-1.3,4.8c0,2.1,0.4,3.7,1.3,4.8    c0.9,1.1,2.1,1.6,3.6,1.6c1.5,0,2.7-0.5,3.6-1.6C561.8,299.4,562.3,297.8,562.3,295.8z"></path>
		<path class="st7" d="M572.2,306.4v-21.2h5.1v9h0.3l7-9h6l-7.5,9.5l7.7,11.7h-6.1l-5.3-8.3l-2.1,2.6v5.7H572.2z"></path>
	</g>
	<path class="st8" d="M518.5,272.7h100.2c7.9,0,14.3,6.4,14.3,14.3v17.7c0,7.9-6.4,14.3-14.3,14.3H518.5c-7.9,0-14.3-6.4-14.3-14.3   V287C504.2,279.1,510.6,272.7,518.5,272.7z"></path>
	<rect x="857.4" y="617.4" class="st6" width="11.5" height="51.2"></rect>
	<rect x="507.2" y="577.6" class="st6" width="11.5" height="91.1"></rect>
</g>
<g id="Layer_7">
	<polygon class="st9" points="360.7,371 369,351.1 361.6,336.1 386.4,319.1 391.8,324.6 398.4,342.4 395,343.9 394.9,350    392.5,354.7 385.6,357 387.1,369.6 376,368.3 366.2,369.8  "></polygon>
	<polygon class="st9" points="507.3,320.7 514,314.6 520.9,302.4 524.6,291.2 528.9,287.8 539.8,292.9 541.5,297.5 535.8,318.9    538.4,320.7 546.9,318.4 549.1,321.1 544.8,324.6 518.5,338.9  "></polygon>
	<polygon class="st9" points="503.5,405.9 521.9,422.5 528.4,418.2 546.9,401.9 549.5,398.5 545.1,392.5 539.2,394 527.3,400.4    528.4,394.6 526.5,392.7  "></polygon>
	<polygon class="st1" points="325.2,451 359.6,373.7 363,370.5 378.3,368.6 388.7,367.3 507.3,320.7 518.5,338.9 419.4,395.5    449.8,428.8 503.5,405.9 521.9,422.5 478.9,453.7 410.9,443.6 381.2,440.7 351.5,443.8  "></polygon>
	<path class="st7" d="M271.3,645.1l53.9-194c0,0,24-14.3,63.4-9.6c39.4,4.7,82,10.7,82,10.7l30.6,5.2l7.4,5.6l2.9,10.1l-5.1,12.4   l-38.3,73.2l-36.7-0.7l31.2-70.6l-94.8-0.2l-60.3,157.9H271.3L271.3,645.1z"></path>
	<polyline class="st0" points="510.3,667.2 510.3,579 394.8,579 394.8,579 394.8,667.2  "></polyline>
	<rect x="755.2" y="584" class="st1" width="64.4" height="83.2"></rect>
	<rect x="801.4" y="618.8" class="st7" width="55.9" height="48.4"></rect>
	<path class="st10" d="M436.9,393.6l0.3-14c-2.6,0.2-5.3,0.4-7.9,0.6c1.1-4.5,2.2-8.9,3.2-13.4c-3.2,0-6.5,0-9.7-0.1   c0.5-4.4,1-8.8,1.5-13.2c-1.5,0.1-3.1,0.2-4.6,0.3"></path>
	<path class="st10" d="M472.3,417.5l8.8,0c0.3,4.2,0.5,8.4,0.8,12.6c3.4-0.3,6.7-0.5,10.1-0.8c0,3,0.1,6,0.1,9.1   c1.8-0.5,3.6-1,5.4-0.4c1.7,0.5,3.2,2.5,2.4,4.2"></path>
	<path class="st10" d="M460.2,422.9l9.2,0.2c-0.7,4.3-1.4,8.7-2.1,13c2.4-0.3,4.9-0.7,7.3-1c0,2.6,0,5.3,0,7.9   c2.9-0.9,5.7-1.9,8.6-2.8c-0.4,2.7-0.7,5.3-1.1,8l8.4,0.6"></path>
	<path class="st10" d="M447.5,384.8l0.9-12.4c-1.7-0.1-3.3-0.2-5-0.3c0.3-4.2,0.6-8.4,0.9-12.7c-2.8-0.6-5.6-1.2-8.4-1.8   c0-2.8,0-5.6,0-8.4"></path>
	<path class="st10" d="M346.6,397l9.2-8.2c2.2,2,4.3,4,6.5,5.9c1.7-2.5,3.4-5,5.1-7.4l6.5,6.6l4.8-6.4l6.3,4.5l6.1-4.8l5.3,4.4   l5.4-4.3c0,0,4.7,4,7.1,6c1.2-1.8,2.4-3.7,3.6-5.5"></path>
	<path class="st10" d="M341.1,412.3l7.4-5.7l6.8,2.7l4.7-5.5c0,0,5.2,4.3,7.7,6.5l6.6-7.8l6.6,4.5l6.1-6.4l6.5,7l5.4-6.2l5.8,4.9   l8.1-5.4l6.6,6.7l7.9-5.2"></path>
	<g>
		<defs>
			<polyline id="SVGID_1_" points="510.3,667.2 510.3,579 394.8,579 394.8,579 394.8,667.2    "></polyline>
		</defs>
		<clipPath id="SVGID_00000131343714071808029330000004438227837163815567_">
			<use xlink:href="#SVGID_1_" style="overflow:visible;"></use>
		</clipPath>
		<g style="clip-path:url(#SVGID_00000131343714071808029330000004438227837163815567_);">
			<path class="st12" d="M455.2,673.2c4-12.7,12.8-23.8,24.2-30.7c11.4-6.9,25.3-9.6,38.4-7.4"></path>
			<path class="st12" d="M479.4,605.1c-0.4,1.8,0.3,3.8,1.6,5.1c1.4,1.3,3.3,1.9,5.2,1.6c2.1-0.3,4.1-1.7,4.9-3.6c0.8-2,0.5-4.4-1-6     C487.1,599.3,480.3,600.8,479.4,605.1L479.4,605.1z"></path>
			<path class="st12" d="M378.6,615.3c5.6,9.5,17,15.2,28,14s20.9-9.3,24.2-19.9c1-3.3,1.5-6.8,0.5-10.1s-3.5-6.2-6.8-7.1     c-5.9-1.4-11.4,4.2-12.7,10.1c-2.1,9.3,3.6,19.8,12.6,23.1c11.1,4,23.8-2.9,30.3-12.7s8.2-22,9.8-33.8"></path>
			<path class="st12" d="M388,639.3c12.3-2.9,25.8-0.8,36.6,5.8c10.8,6.6,18.8,17.6,21.8,29.9"></path>
			<path class="st12" d="M516.4,597.7c-4.8-1.1-9.2-3.8-12.3-7.7c-3.1-3.9-4.7-8.8-4.7-13.7"></path>
		</g>
	</g>
	<polygon class="st13" points="271.3,645.1 264.9,667.2 337,667.2 334.3,660.7 326.8,653.4 307.8,650.3 307.5,645.1  "></polygon>
	<polygon class="st13" points="431.4,558 422.6,578.7 495.4,578.7 495.4,570.4 492,565.4 483.2,563.6 472.3,560.3 468.1,558.6  "></polygon>
</g>
<g id="Layer_6">
	<line class="st14" x1="274.4" y1="633.7" x2="311.9" y2="633.7"></line>
	<line class="st14" x1="473.4" y1="548.1" x2="435.8" y2="548.1"></line>
	<path class="st14" d="M366.8,441.9l6.3,14.9c3.5,8.4,11.7,13.8,20.8,13.8h78.8c9.2,0,15.3,9.4,11.6,17.8l-26.6,59.6"></path>
	<line class="st14" x1="343.1" y1="483.2" x2="293.2" y2="632.6"></line>
	<path class="st15" d="M334.7,469.9l3.4,7c3.1,6.5,9.7,10.6,16.9,10.6h107.6l-40.3,91.1h72.5c0,0,4-14.1-8.6-15.1   c-12.6-1-18.1-5.5-18.1-5.5l41.5-78.6c5-9.5-0.9-21.2-11.5-22.8l-86.7-12.9c-7.9-1.2-15.9-1.8-23.9-1.8   c-19.1-0.1-52.6,1.2-62.8,10.4l-53.4,192.8h36.2l60.3-157.9"></path>
	<path class="st15" d="M271.3,645.1l-6.4,22.2H337c0,0-2.1-14.3-18.5-14.9s-11-7.3-11-7.3"></path>
	<line class="st15" x1="431.5" y1="557.8" x2="468.1" y2="558"></line>
	<path class="st15" d="M324.6,452.2l34.1-76.3c1.3-2.9,3.8-5.2,6.9-6.1c14.6-4.2,30.5,0.1,41,11.6l43.3,47.4l53.4-22.7l18.8,17.2   l-43.1,30.4"></path>
	<line class="st15" x1="388.6" y1="419.3" x2="411.8" y2="443.8"></line>
	<path class="st15" d="M503.2,406.1l23.7-13.6c0,0,4.9,3.5-1.4,9l17.1-8.6c1.3-0.7,3-0.3,3.8,0.9l0,0c0.4,0.6,0.4,1.5-0.1,2l-10,7.9   "></path>
	<path class="st15" d="M521.9,423.3c0,0,4.7-3.4,13.7-11.2c5.1-4.4,9-8,11.2-10.2c1.3-1.3,3-4.3,1.5-5.8c-0.5-0.8-1.9-0.6-1.9-0.6"></path>
	<polyline class="st15" points="386.4,368.3 506.7,321.1 518.5,338.9 419.2,395.3  "></polyline>
	<line class="st15" x1="266.2" y1="661.9" x2="334.5" y2="661.9"></line>
	<line class="st15" x1="424.5" y1="573.6" x2="495.4" y2="573.6"></line>
	<line class="st15" x1="517.1" y1="408.8" x2="525.5" y2="401.5"></line>
	<rect x="394.8" y="579" class="st15" width="115.5" height="88.2"></rect>
	<path class="st15" d="M506.7,321.1c0,0,4.4-2.6,5.6-4.2c1.2-1.6,7.1-9.4,8.8-15.1l2.6-8.9c1-3.2,4.4-4.9,7.5-3.7l6.5,2.5   c2.8,1.1,4.3,4,3.5,6.9l-5.1,18.4c-0.5,1.9,1.2,3.6,3,3.1l6.9-1.7c1.3-0.3,2.6,0.5,2.9,1.8l0,0c0.3,1.1-0.2,2.2-1.2,2.8l-29.3,15.9   "></path>
	<path class="st15" d="M530.2,288.8c0,0-1.5,11.6-3.5,15.9"></path>
	<path class="st15" d="M535.8,291.2c0,0-1.5,11.6-3.5,15.9"></path>
	<circle class="st6" cx="387.1" cy="338.3" r="2.2"></circle>
	<path class="st15" d="M358.7,376l8.3-20.5l-6.4-12c-1.2-2.2-2.1-4.7-2.3-7.2c-1-10.5,7.3-16.7,15.4-18.7l2.4-0.6   c7.6-1.9,15.1,4.1,18.6,13.2l3.1,8.7c1.4,4,0.3,4-1.7,4.7l-1.8,0.6l0.6,4.2c0.5,3.7-1.9,7.1-5.5,8l-4.3,1.1l1.3,10.8"></path>
	<path class="st2" d="M381.2,349.7l8.5-3.9c0,0,1.5,4-2.3,6C383.6,353.7,381.2,349.7,381.2,349.7z"></path>
	<path class="st6" d="M383.9,326.8c-2.5,0.2-5.3-0.1-7.4,1.3c-0.3,0.4-0.8,1.1-1.1,1.5c-1.4,5,5.5,6.6,4.3,8.6   c-1.4,2.6-4.2,0.3-6.6-0.7c-0.1-0.1-0.3-0.1-0.4-0.2c-0.2-0.1-0.4-0.2-0.7-0.2c-0.3-0.1-0.5-0.1-0.8-0.1c-2.1,0-3.8,1.7-3.8,3.8   c0,1.4,0.8,2.6,1.9,3.3c1,0.6,1.7,1.7,1.5,2.9c-0.6,3.7-1.1,7.7-3.3,10c0,0-0.6-0.6-1.4-1.7c-2,1.3-4.7,1.4-6.8,0.1   c-2.2-1.4-0.4-2.1,1.4-3.5c-1.3,0.1-2.7-0.2-3.9-0.9c-3-1.8,1.5-2.5,3.3-5.5c0,0,0.1-0.1,0.1-0.1c-2-4.7-3.2-10.2-1.4-15.3   c0.9-2.7,2.6-5.2,4.6-7.1c0,0,0,0,0,0c-0.7-1-1.1-2.3-1.1-3.6c0-3.6,2.9-6.5,6.5-6.5c1.9,0,3.6,0.8,4.8,2.1c1.3-2.7,4-4.6,7.2-4.6   c4.4,0,7.4,3.6,8,8C389.2,322.7,385.9,326.7,383.9,326.8z"></path>
	<polyline class="st15" points="801.4,667.2 755.2,667.2 755.2,584 819.6,584 819.6,618.8  "></polyline>
	<rect x="801.4" y="618.8" class="st15" width="55.9" height="48.4"></rect>
	<path class="st14" d="M824.3,635.5l15.4,4.9c1,0.3,1.5,1.3,1.2,2.3l-3.1,9.8c-1.3,4.1-5.6,6.3-9.7,5l-4.2-1.3   c-4.1-1.3-6.3-5.6-5-9.7l3.1-9.8C822.3,635.7,823.3,635.2,824.3,635.5L824.3,635.5z"></path>
	<path class="st14" d="M826.9,634.9l0.6-2c1-3,4.2-4.7,7.2-3.7c1.5,0.5,2.7,1.5,3.4,2.8c0.7,1.4,0.8,2.9,0.4,4.4l-0.6,2"></path>
	<path class="st16" d="M831.7,644.9c-0.1,0.7-0.5,1.2-1.1,1.5c-0.3,0.1-0.5,0.3-0.5,0.6l-0.6,3.2c-0.1,0.3-0.4,0.5-0.7,0.4l-1.5-0.5   c-0.3-0.1-0.4-0.4-0.3-0.7l1.3-3c0.1-0.3,0.1-0.6-0.1-0.8c-0.3-0.4-0.3-1-0.2-1.5c0.3-1.1,1.6-1.7,2.7-1.1   C831.4,643.3,831.8,644.1,831.7,644.9L831.7,644.9z"></path>
</g>
</svg>
