<?xml version="1.0" encoding="UTF-8"?>
<!-- Generator: Adobe Illustrator 27.7.0, SVG Export Plug-In . SVG Version: 6.00 Build 0)  -->
<svg xmlns="http://www.w3.org/2000/svg" xmlns:xlink="http://www.w3.org/1999/xlink" version="1.1" id="Layer_1" x="0px" y="0px" viewBox="0 0 1076 684" style="enable-background:new 0 0 1076 684;" xml:space="preserve">
<style type="text/css">
	.st0{fill:none;stroke:#233212;stroke-width:10.6446;stroke-linecap:round;stroke-miterlimit:10;}
	.st1{fill:none;stroke:#233212;stroke-width:2.6611;stroke-miterlimit:10;}
	.st2{fill:#2F4E0E;}
	.st3{fill:#6FAF2F;stroke:#233212;stroke-width:2.6611;stroke-miterlimit:10;}
	.st4{fill:#D2E7B4;stroke:#233212;stroke-width:2.6611;stroke-miterlimit:10;}
	.st5{fill:#2F2F41;}
	.st6{fill:#6FAF2F;}
	.st7{fill:none;stroke:#6FAF2F;stroke-width:4.5164;stroke-miterlimit:10;}
</style>
<line class="st0" x1="936" y1="458.8" x2="853.8" y2="434.3"></line>
<g>
	
		<ellipse transform="matrix(0.2862 -0.9582 0.9582 0.2862 209.1127 1146.7512)" class="st1" cx="874.3" cy="433" rx="6.9" ry="4.4"></ellipse>
	
		<ellipse transform="matrix(0.2862 -0.9582 0.9582 0.2862 205.9181 1137.9985)" class="st1" cx="866.8" cy="430.8" rx="6.9" ry="4.4"></ellipse>
	<line class="st1" x1="839.5" y1="398.3" x2="883.5" y2="411.4"></line>
	<line class="st1" x1="826.1" y1="443.1" x2="870.1" y2="456.3"></line>
	
		<ellipse transform="matrix(0.2862 -0.9582 0.9582 0.2862 209.1127 1146.7512)" class="st1" cx="874.3" cy="433" rx="6.9" ry="4.4"></ellipse>
	<polygon class="st2" points="889.6,378.8 859,369.6 828,394.8 814.6,439.6 826.8,477.7 857.3,486.8 888.3,461.6 901.7,416.9  "></polygon>
	<polygon class="st3" points="845.6,365.6 815,356.5 784,381.7 770.6,426.4 782.8,464.5 813.3,473.6 844.3,448.5 857.7,403.7  "></polygon>
	<polygon class="st4" points="813.3,473.6 844.3,448.5 857.7,403.7 845.6,365.6 889.6,378.8 901.7,416.9 888.3,461.6 857.3,486.8     "></polygon>
	
		<ellipse transform="matrix(0.2862 -0.9582 0.9582 0.2862 183.4209 1076.3604)" class="st1" cx="814.2" cy="415.1" rx="6.9" ry="4.4"></ellipse>
	<line class="st1" x1="857" y1="403.5" x2="901" y2="416.6"></line>
	<line class="st1" x1="843.6" y1="448.3" x2="887.6" y2="461.5"></line>
</g>
<g>
	
		<ellipse transform="matrix(0.2862 -0.9582 0.9582 0.2862 186.0082 1083.4489)" class="st1" cx="820.2" cy="416.9" rx="6.9" ry="4.4"></ellipse>
	
		<ellipse transform="matrix(0.2862 -0.9582 0.9582 0.2862 182.8135 1074.6962)" class="st1" cx="812.7" cy="414.6" rx="6.9" ry="4.4"></ellipse>
	<line class="st1" x1="785.4" y1="382.1" x2="829.4" y2="395.3"></line>
	<line class="st1" x1="772" y1="427" x2="816" y2="440.1"></line>
	
		<ellipse transform="matrix(0.2862 -0.9582 0.9582 0.2862 186.0082 1083.4489)" class="st1" cx="820.2" cy="416.9" rx="6.9" ry="4.4"></ellipse>
	<polygon class="st2" points="835.5,362.6 805,353.5 774,378.7 760.6,423.4 772.7,461.5 803.3,470.7 834.3,445.5 847.7,400.7  "></polygon>
	<polygon class="st3" points="791.5,349.5 761,340.3 729.9,365.5 716.6,410.3 728.7,448.4 759.2,457.5 790.3,432.3 803.7,387.6  "></polygon>
	<polygon class="st4" points="759.2,457.5 790.3,432.3 803.7,387.6 791.5,349.5 835.5,362.6 847.7,400.7 834.3,445.5 803.3,470.7     "></polygon>
	
		<ellipse transform="matrix(0.2862 -0.9582 0.9582 0.2862 160.3163 1013.058)" class="st1" cx="760.1" cy="398.9" rx="6.9" ry="4.4"></ellipse>
	<line class="st1" x1="802.9" y1="387.3" x2="846.9" y2="400.5"></line>
	<line class="st1" x1="789.5" y1="432.2" x2="833.5" y2="445.3"></line>
</g>
<g>
	
		<ellipse transform="matrix(0.2862 -0.9582 0.9582 0.2862 162.9036 1020.1465)" class="st1" cx="766.2" cy="400.7" rx="6.9" ry="4.4"></ellipse>
	
		<ellipse transform="matrix(0.2862 -0.9582 0.9582 0.2862 159.7089 1011.3939)" class="st1" cx="758.7" cy="398.5" rx="6.9" ry="4.4"></ellipse>
	<line class="st1" x1="731.4" y1="366" x2="775.4" y2="379.1"></line>
	<line class="st1" x1="718" y1="410.8" x2="762" y2="424"></line>
	
		<ellipse transform="matrix(0.2862 -0.9582 0.9582 0.2862 162.9036 1020.1465)" class="st1" cx="766.2" cy="400.7" rx="6.9" ry="4.4"></ellipse>
	<polygon class="st2" points="781.5,346.5 751,337.4 719.9,362.5 706.6,407.3 718.7,445.4 749.2,454.5 780.3,429.3 793.6,384.6  "></polygon>
	<polygon class="st3" points="737.5,333.3 706.9,324.2 675.9,349.4 662.5,394.1 674.7,432.2 705.2,441.4 736.3,416.2 749.6,371.4     "></polygon>
	<polygon class="st4" points="705.2,441.4 736.3,416.2 749.6,371.4 737.5,333.3 781.5,346.5 793.6,384.6 780.3,429.3 749.2,454.5     "></polygon>
	
		<ellipse transform="matrix(0.2862 -0.9582 0.9582 0.2862 137.211 949.7548)" class="st1" cx="706.1" cy="382.8" rx="6.9" ry="4.4"></ellipse>
	<line class="st1" x1="748.9" y1="371.2" x2="792.9" y2="384.3"></line>
	<line class="st1" x1="735.5" y1="416.1" x2="779.5" y2="429.2"></line>
</g>
<g>
	
		<ellipse transform="matrix(0.2862 -0.9582 0.9582 0.2862 139.799 956.8442)" class="st1" cx="712.1" cy="384.6" rx="6.9" ry="4.4"></ellipse>
	
		<ellipse transform="matrix(0.2862 -0.9582 0.9582 0.2862 136.6036 948.0907)" class="st1" cx="704.7" cy="382.4" rx="6.9" ry="4.4"></ellipse>
	<line class="st1" x1="677.3" y1="349.8" x2="721.4" y2="363"></line>
	<line class="st1" x1="663.9" y1="394.7" x2="708" y2="407.8"></line>
	
		<ellipse transform="matrix(0.2862 -0.9582 0.9582 0.2862 139.799 956.8442)" class="st1" cx="712.1" cy="384.6" rx="6.9" ry="4.4"></ellipse>
	<polygon class="st2" points="727.5,330.3 696.9,321.2 665.9,346.4 652.5,391.2 664.7,429.2 695.2,438.4 726.2,413.2 739.6,368.4     "></polygon>
	<polygon class="st3" points="683.4,317.2 652.9,308.1 621.9,333.3 608.5,378 620.6,416.1 651.2,425.2 682.2,400 695.6,355.3  "></polygon>
	<polygon class="st4" points="651.2,425.2 682.2,400 695.6,355.3 683.4,317.2 727.5,330.3 739.6,368.4 726.2,413.2 695.2,438.4  "></polygon>
	<ellipse transform="matrix(0.2862 -0.9582 0.9582 0.2862 114.1071 886.4533)" class="st1" cx="652" cy="366.6" rx="6.9" ry="4.4"></ellipse>
	<line class="st1" x1="694.8" y1="355.1" x2="738.9" y2="368.2"></line>
	<line class="st1" x1="681.4" y1="399.9" x2="725.5" y2="413.1"></line>
</g>
<g>
	
		<ellipse transform="matrix(0.2862 -0.9582 0.9582 0.2862 116.6943 893.5418)" class="st1" cx="658.1" cy="368.4" rx="6.9" ry="4.4"></ellipse>
	
		<ellipse transform="matrix(0.2862 -0.9582 0.9582 0.2862 113.4997 884.7891)" class="st1" cx="650.6" cy="366.2" rx="6.9" ry="4.4"></ellipse>
	<line class="st1" x1="623.3" y1="333.7" x2="667.3" y2="346.8"></line>
	<line class="st1" x1="609.9" y1="378.5" x2="653.9" y2="391.7"></line>
	
		<ellipse transform="matrix(0.2862 -0.9582 0.9582 0.2862 116.6943 893.5418)" class="st1" cx="658.1" cy="368.4" rx="6.9" ry="4.4"></ellipse>
	<polygon class="st2" points="673.4,314.2 642.9,305.1 611.8,330.3 598.5,375 610.6,413.1 641.1,422.2 672.2,397 685.6,352.3  "></polygon>
	<polygon class="st3" points="629.4,301 598.9,291.9 567.8,317.1 554.5,361.9 566.6,400 597.1,409.1 628.2,383.9 641.5,339.1  "></polygon>
	<polygon class="st4" points="597.1,409.1 628.2,383.9 641.5,339.1 629.4,301 673.4,314.2 685.6,352.3 672.2,397 641.1,422.2  "></polygon>
	<ellipse transform="matrix(0.2862 -0.9582 0.9582 0.2862 91.0026 823.1509)" class="st1" cx="598" cy="350.5" rx="6.9" ry="4.4"></ellipse>
	<line class="st1" x1="640.8" y1="338.9" x2="684.8" y2="352.1"></line>
	<line class="st1" x1="627.4" y1="383.8" x2="671.4" y2="396.9"></line>
</g>
<g>
	<ellipse transform="matrix(0.2862 -0.9582 0.9582 0.2862 93.5898 830.2394)" class="st1" cx="604" cy="352.3" rx="6.9" ry="4.4"></ellipse>
	
		<ellipse transform="matrix(0.2862 -0.9582 0.9582 0.2862 90.3951 821.4868)" class="st1" cx="596.6" cy="350.1" rx="6.9" ry="4.4"></ellipse>
	<line class="st1" x1="569.3" y1="317.5" x2="613.3" y2="330.7"></line>
	<line class="st1" x1="555.9" y1="362.4" x2="599.9" y2="375.5"></line>
	<ellipse transform="matrix(0.2862 -0.9582 0.9582 0.2862 93.5898 830.2394)" class="st1" cx="604" cy="352.3" rx="6.9" ry="4.4"></ellipse>
	<polygon class="st2" points="619.4,298 588.8,288.9 557.8,314.1 544.4,358.9 556.6,397 587.1,406.1 618.1,380.9 631.5,336.1  "></polygon>
	<polygon class="st3" points="575.4,284.9 544.8,275.8 513.8,301 500.4,345.7 512.6,383.8 543.1,392.9 574.1,367.7 587.5,323  "></polygon>
	<polygon class="st4" points="543.1,392.9 574.1,367.7 587.5,323 575.4,284.9 619.4,298 631.5,336.1 618.1,380.9 587.1,406.1  "></polygon>
	<ellipse transform="matrix(0.2862 -0.9582 0.9582 0.2862 67.8979 759.8486)" class="st1" cx="544" cy="334.4" rx="6.9" ry="4.4"></ellipse>
	<line class="st1" x1="586.8" y1="322.8" x2="630.8" y2="335.9"></line>
	<line class="st1" x1="573.4" y1="367.6" x2="617.4" y2="380.8"></line>
</g>
<g>
	<ellipse transform="matrix(0.2862 -0.9582 0.9582 0.2862 70.4852 766.9371)" class="st1" cx="550" cy="336.2" rx="6.9" ry="4.4"></ellipse>
	
		<ellipse transform="matrix(0.2862 -0.9582 0.9582 0.2862 67.2905 758.1844)" class="st1" cx="542.5" cy="333.9" rx="6.9" ry="4.4"></ellipse>
	<line class="st1" x1="515.2" y1="301.4" x2="559.2" y2="314.5"></line>
	<line class="st1" x1="501.8" y1="346.3" x2="545.8" y2="359.4"></line>
	<ellipse transform="matrix(0.2862 -0.9582 0.9582 0.2862 70.4852 766.9371)" class="st1" cx="550" cy="336.2" rx="6.9" ry="4.4"></ellipse>
	<polygon class="st2" points="565.3,281.9 534.8,272.8 503.8,298 490.4,342.7 502.5,380.8 533.1,389.9 564.1,364.7 577.5,320  "></polygon>
	<polygon class="st3" points="521.3,268.8 490.8,259.6 459.7,284.8 446.4,329.6 458.5,367.7 489,376.8 520.1,351.6 533.5,306.8  "></polygon>
	<polygon class="st4" points="489,376.8 520.1,351.6 533.5,306.8 521.3,268.8 565.3,281.9 577.5,320 564.1,364.7 533.1,389.9  "></polygon>
	
		<ellipse transform="matrix(0.2862 -0.9582 0.9582 0.2862 44.7933 696.5462)" class="st1" cx="489.9" cy="318.2" rx="6.9" ry="4.4"></ellipse>
	<line class="st1" x1="532.7" y1="306.6" x2="576.7" y2="319.8"></line>
	<line class="st1" x1="519.3" y1="351.5" x2="563.3" y2="364.6"></line>
</g>
<g>
	<ellipse transform="matrix(0.2862 -0.9582 0.9582 0.2862 47.3806 703.6348)" class="st1" cx="496" cy="320" rx="6.9" ry="4.4"></ellipse>
	
		<ellipse transform="matrix(0.2862 -0.9582 0.9582 0.2862 44.1859 694.8821)" class="st1" cx="488.5" cy="317.8" rx="6.9" ry="4.4"></ellipse>
	<line class="st1" x1="461.2" y1="285.3" x2="505.2" y2="298.4"></line>
	<line class="st1" x1="447.8" y1="330.1" x2="491.8" y2="343.3"></line>
	<ellipse transform="matrix(0.2862 -0.9582 0.9582 0.2862 47.3806 703.6348)" class="st1" cx="496" cy="320" rx="6.9" ry="4.4"></ellipse>
	<polygon class="st2" points="511.3,265.8 480.8,256.6 449.7,281.8 436.4,326.6 448.5,364.7 479,373.8 510.1,348.6 523.4,303.8  "></polygon>
	<polygon class="st3" points="467.3,252.6 436.7,243.5 405.7,268.7 392.3,313.4 404.5,351.5 435,360.6 466,335.4 479.4,290.7  "></polygon>
	<polygon class="st4" points="435,360.6 466,335.4 479.4,290.7 467.3,252.6 511.3,265.8 523.4,303.8 510.1,348.6 479,373.8  "></polygon>
	
		<ellipse transform="matrix(0.2862 -0.9582 0.9582 0.2862 21.6887 633.2439)" class="st1" cx="435.9" cy="302.1" rx="6.9" ry="4.4"></ellipse>
	<line class="st1" x1="478.7" y1="290.5" x2="522.7" y2="303.6"></line>
	<line class="st1" x1="465.3" y1="335.3" x2="509.3" y2="348.5"></line>
</g>
<g>
	<ellipse transform="matrix(0.2862 -0.9582 0.9582 0.2862 24.276 640.3324)" class="st1" cx="441.9" cy="303.9" rx="6.9" ry="4.4"></ellipse>
	
		<ellipse transform="matrix(0.2862 -0.9582 0.9582 0.2862 21.0814 631.5797)" class="st1" cx="434.5" cy="301.6" rx="6.9" ry="4.4"></ellipse>
	<line class="st1" x1="407.1" y1="269.1" x2="451.2" y2="282.3"></line>
	<line class="st1" x1="393.7" y1="314" x2="437.8" y2="327.1"></line>
	<ellipse transform="matrix(0.2862 -0.9582 0.9582 0.2862 24.276 640.3324)" class="st1" cx="441.9" cy="303.9" rx="6.9" ry="4.4"></ellipse>
	<polygon class="st2" points="457.3,249.6 426.7,240.5 395.7,265.7 382.3,310.4 394.4,348.5 425,357.6 456,332.5 469.4,287.7  "></polygon>
	<polygon class="st3" points="413.2,236.5 382.7,227.3 351.7,252.5 338.3,297.3 350.4,335.4 381,344.5 412,319.3 425.4,274.6  "></polygon>
	<polygon class="st4" points="381,344.5 412,319.3 425.4,274.6 413.2,236.5 457.3,249.6 469.4,287.7 456,332.5 425,357.6  "></polygon>
	
		<ellipse transform="matrix(0.2862 -0.9582 0.9582 0.2862 -1.4159 569.9415)" class="st1" cx="381.8" cy="285.9" rx="6.9" ry="4.4"></ellipse>
	<line class="st1" x1="424.6" y1="274.3" x2="468.7" y2="287.5"></line>
	<line class="st1" x1="411.2" y1="319.2" x2="455.3" y2="332.3"></line>
</g>
<g>
	<ellipse transform="matrix(0.2862 -0.9582 0.9582 0.2862 1.1714 577.03)" class="st1" cx="387.9" cy="287.7" rx="6.9" ry="4.4"></ellipse>
	
		<ellipse transform="matrix(0.2862 -0.9582 0.9582 0.2862 -2.0232 568.2773)" class="st1" cx="380.4" cy="285.5" rx="6.9" ry="4.4"></ellipse>
	<line class="st1" x1="353.1" y1="253" x2="397.1" y2="266.1"></line>
	<line class="st1" x1="339.7" y1="297.8" x2="383.7" y2="311"></line>
	<ellipse transform="matrix(0.2862 -0.9582 0.9582 0.2862 1.1714 577.03)" class="st1" cx="387.9" cy="287.7" rx="6.9" ry="4.4"></ellipse>
	<polygon class="st2" points="403.2,233.5 372.7,224.4 341.6,249.5 328.3,294.3 340.4,332.4 370.9,341.5 402,316.3 415.4,271.6  "></polygon>
	<polygon class="st3" points="359.2,220.3 328.7,211.2 297.6,236.4 284.3,281.1 296.4,319.2 326.9,328.4 358,303.2 371.3,258.4  "></polygon>
	<polygon class="st4" points="326.9,328.4 358,303.2 371.3,258.4 359.2,220.3 403.2,233.5 415.4,271.6 402,316.3 370.9,341.5  "></polygon>
	
		<ellipse transform="matrix(0.2862 -0.9582 0.9582 0.2862 -24.5204 506.6392)" class="st1" cx="327.8" cy="269.8" rx="6.9" ry="4.4"></ellipse>
	<line class="st1" x1="370.6" y1="258.2" x2="414.6" y2="271.3"></line>
	<line class="st1" x1="357.2" y1="303" x2="401.2" y2="316.2"></line>
</g>
<g>
	
		<ellipse transform="matrix(0.2862 -0.9582 0.9582 0.2862 -21.9332 513.7277)" class="st1" cx="333.8" cy="271.6" rx="6.9" ry="4.4"></ellipse>
	
		<ellipse transform="matrix(0.2862 -0.9582 0.9582 0.2862 -25.1278 504.975)" class="st1" cx="326.4" cy="269.4" rx="6.9" ry="4.4"></ellipse>
	<line class="st1" x1="299.1" y1="236.8" x2="343.1" y2="250"></line>
	<line class="st1" x1="285.7" y1="281.7" x2="329.7" y2="294.8"></line>
	
		<ellipse transform="matrix(0.2862 -0.9582 0.9582 0.2862 -21.9332 513.7277)" class="st1" cx="333.8" cy="271.6" rx="6.9" ry="4.4"></ellipse>
	<polygon class="st2" points="349.2,217.3 318.6,208.2 287.6,233.4 274.2,278.1 286.4,316.2 316.9,325.4 347.9,300.2 361.3,255.4     "></polygon>
	<polygon class="st3" points="305.2,204.2 274.6,195.1 243.6,220.2 230.2,265 242.4,303.1 272.9,312.2 303.9,287 317.3,242.3  "></polygon>
	<polygon class="st4" points="272.9,312.2 303.9,287 317.3,242.3 305.2,204.2 349.2,217.3 361.3,255.4 347.9,300.2 316.9,325.4  "></polygon>
	
		<ellipse transform="matrix(0.2862 -0.9582 0.9582 0.2862 -47.625 443.3368)" class="st1" cx="273.8" cy="253.6" rx="6.9" ry="4.4"></ellipse>
	<line class="st1" x1="316.6" y1="242.1" x2="360.6" y2="255.2"></line>
	<line class="st1" x1="303.2" y1="286.9" x2="347.2" y2="300.1"></line>
</g>
<g>
	
		<ellipse transform="matrix(0.2862 -0.9582 0.9582 0.2862 -45.0379 450.4252)" class="st1" cx="279.8" cy="255.4" rx="6.9" ry="4.4"></ellipse>
	
		<ellipse transform="matrix(0.2862 -0.9582 0.9582 0.2862 -48.2324 441.6727)" class="st1" cx="272.3" cy="253.2" rx="6.9" ry="4.4"></ellipse>
	<line class="st1" x1="245" y1="220.7" x2="289" y2="233.8"></line>
	<line class="st1" x1="231.6" y1="265.5" x2="275.6" y2="278.7"></line>
	
		<ellipse transform="matrix(0.2862 -0.9582 0.9582 0.2862 -45.0379 450.4252)" class="st1" cx="279.8" cy="255.4" rx="6.9" ry="4.4"></ellipse>
	<polygon class="st2" points="295.1,201.2 264.6,192.1 233.6,217.3 220.2,262 232.3,300.1 262.9,309.2 293.9,284 307.3,239.3  "></polygon>
	<polygon class="st3" points="251.1,188 220.6,178.9 189.5,204.1 176.2,248.9 188.3,286.9 218.8,296.1 249.9,270.9 263.3,226.1  "></polygon>
	<polygon class="st4" points="218.8,296.1 249.9,270.9 263.3,226.1 251.1,188 295.1,201.2 307.3,239.3 293.9,284 262.9,309.2  "></polygon>
	
		<ellipse transform="matrix(0.2862 -0.9582 0.9582 0.2862 -70.7296 380.0345)" class="st1" cx="219.7" cy="237.5" rx="6.9" ry="4.4"></ellipse>
	<line class="st1" x1="262.5" y1="225.9" x2="306.5" y2="239.1"></line>
	<line class="st1" x1="249.1" y1="270.8" x2="293.1" y2="283.9"></line>
</g>
<path class="st5" d="M262.7,267.1l8.5-28.6l11.8,3.5c2.1,0.6,3.9,1.6,5.2,2.9c1.3,1.3,2.2,2.8,2.6,4.6c0.4,1.7,0.3,3.6-0.3,5.6  c-0.6,2-1.5,3.6-2.8,4.8c-1.3,1.2-2.9,2-4.7,2.3c-1.8,0.3-3.8,0.2-6-0.5l-4.7-1.4l-2.7,8.9L262.7,267.1z M273.9,254.8l3.4,1  c1.6,0.5,2.9,0.4,3.9-0.1c1-0.6,1.8-1.5,2.2-2.8c0.4-1.3,0.3-2.5-0.3-3.5c-0.6-1-1.6-1.8-3.2-2.2l-3.4-1L273.9,254.8z"></path>
<path class="st5" d="M325.9,281.8c-2-0.6-3.6-1.6-4.6-3.1c-1-1.4-1.2-3.2-0.6-5.3c0.5-1.6,1.2-2.7,2.2-3.5c1-0.7,2.2-1.1,3.5-1.2  c1.3-0.1,2.8,0,4.2,0.3c1.9,0.4,3.2,0.6,4.1,0.6c0.8,0,1.4-0.3,1.6-1l0-0.1c0.2-0.7,0.1-1.3-0.2-1.9c-0.4-0.5-1-0.9-1.8-1.2  c-0.9-0.3-1.7-0.3-2.4-0.1c-0.7,0.2-1.2,0.7-1.5,1.3l-6.2-2.1c0.9-1.9,2.3-3.2,4.3-4c2-0.8,4.4-0.8,7.3,0.1c1.8,0.5,3.4,1.3,4.6,2.3  c1.3,1,2.1,2.1,2.7,3.4c0.5,1.3,0.5,2.7,0.1,4.2l-4.4,14.6l-6.4-1.9l0.9-3l-0.2,0C331.3,282.2,328.9,282.7,325.9,281.8z   M329.4,277.9c1.1,0.3,2.1,0.3,3.1-0.1c1-0.4,1.6-1.2,1.9-2.2l0.6-2c-0.4,0.1-1,0.1-1.8,0c-0.7-0.1-1.4-0.1-2.1-0.2  c-2.1-0.3-3.4,0.2-3.8,1.6c-0.2,0.7-0.1,1.3,0.3,1.8C328,277.3,328.6,277.7,329.4,277.9z"></path>
<path class="st5" d="M396.7,286.3l-6.3-1.7c0.1-0.7-0.1-1.4-0.5-2c-0.5-0.6-1.1-1-2-1.3c-0.8-0.2-1.5-0.3-2.2-0.1  c-0.6,0.1-1,0.5-1.2,1c-0.1,0.4-0.1,0.8,0.2,1.2c0.3,0.4,0.8,0.9,1.7,1.3l3.9,2c4,2.1,5.5,4.6,4.6,7.7c-0.4,1.5-1.3,2.6-2.5,3.5  c-1.2,0.8-2.6,1.3-4.3,1.5c-1.7,0.2-3.5-0.1-5.4-0.6c-3.1-0.9-5.3-2.3-6.7-4.1c-1.4-1.8-1.9-3.8-1.5-6l6.8,1.8  c-0.1,0.8,0.1,1.5,0.6,2.1c0.5,0.6,1.2,1,2.2,1.3c0.9,0.3,1.6,0.3,2.3,0.1c0.6-0.2,1.1-0.5,1.2-1c0.2-0.9-0.4-1.8-2.1-2.6l-3.5-1.8  c-4-2.1-5.5-4.8-4.5-8.1c0.6-2.2,2-3.6,4.1-4.3c2.1-0.7,4.6-0.6,7.5,0.3c2.9,0.9,5,2.2,6.3,3.9C396.8,282.2,397.2,284.1,396.7,286.3  z"></path>
<path class="st6" d="M389.9,260.1c-1.6-0.5-3.1-1.4-4.4-2.7c-1.3-1.3-2.2-3-2.8-5.1c-0.4-1.6-0.4-2.7-0.1-3.5  c0.3-0.7,0.9-1.2,1.8-1.4c0.8-0.2,1.8-0.1,2.9,0.1c1.4,0.3,2.4,0.4,3,0.3c0.6,0,0.8-0.4,0.6-1l0-0.1c-0.2-0.7-0.5-1.3-1-1.8  c-0.5-0.5-1.1-0.8-1.7-1c-0.7-0.2-1.2-0.2-1.6,0.1c-0.3,0.3-0.5,0.7-0.4,1.3l-5-1.7c-0.3-1.9,0.1-3.2,1-4.1c1-0.9,2.6-1,4.9-0.3  c1.4,0.4,2.8,1.1,4.1,2c1.3,0.9,2.4,2,3.3,3.2c0.9,1.2,1.6,2.6,1.9,4.1l3.6,14.3l-5.1-1.5l-0.7-2.9l-0.1,0  C393.6,260.2,392.3,260.8,389.9,260.1z M390.5,256.2c0.9,0.3,1.5,0.2,2-0.3c0.4-0.5,0.5-1.2,0.3-2.2l-0.5-2  c-0.3,0.1-0.6,0.2-1.1,0.1c-0.5,0-1-0.1-1.5-0.1c-1.5-0.2-2.1,0.4-1.8,1.8c0.2,0.7,0.5,1.3,1,1.8C389.3,255.7,389.8,256,390.5,256.2  z"></path>
<path class="st6" d="M445.7,276.8c-1.8-0.5-3.4-1.3-5-2.4c-1.6-1.1-2.9-2.4-4-3.8c-1.1-1.4-1.8-2.9-2.2-4.4c-0.3-1.2-0.3-2.2-0.1-3  c0.2-0.8,0.6-1.5,1.2-1.9s1.4-0.6,2.3-0.5l-0.1-0.2c-1.3-0.7-2.5-1.7-3.6-3.1c-1.1-1.4-1.8-2.9-2.2-4.4c-0.4-1.5-0.3-2.7,0.1-3.6  c0.4-0.9,1.2-1.5,2.3-1.8c1.1-0.3,2.4-0.2,4,0.3c1.6,0.5,3.1,1.2,4.5,2.3c1.4,1,2.6,2.2,3.6,3.6c1,1.4,1.7,2.8,2.1,4.2  c0.4,1.5,0.3,2.8-0.2,3.7c-0.5,0.9-1.3,1.3-2.5,1.3l0.1,0.2c1,0.5,1.9,1.1,2.9,2c0.9,0.9,1.7,1.9,2.5,3c0.7,1.1,1.2,2.2,1.5,3.4  c0.4,1.5,0.3,2.8-0.1,3.7c-0.5,1-1.3,1.6-2.5,1.9C448.9,277.4,447.4,277.3,445.7,276.8z M441.3,259.7c0.9,0.3,1.5,0.1,1.9-0.3  c0.4-0.5,0.5-1.2,0.2-2.2c-0.2-1-0.7-1.9-1.4-2.7c-0.7-0.8-1.5-1.3-2.4-1.6c-0.9-0.3-1.5-0.2-1.9,0.3c-0.4,0.5-0.5,1.2-0.2,2.2  c0.3,1,0.7,1.9,1.5,2.7C439.7,258.9,440.5,259.4,441.3,259.7z M444.4,272c1,0.3,1.7,0.2,2.2-0.3c0.5-0.5,0.5-1.3,0.3-2.4  c-0.3-1.1-0.8-2.1-1.6-3c-0.8-0.9-1.7-1.5-2.7-1.8c-1-0.3-1.7-0.2-2.2,0.3c-0.5,0.5-0.6,1.3-0.3,2.4c0.3,1.1,0.8,2.1,1.6,3  C442.5,271.1,443.4,271.7,444.4,272z"></path>
<path class="st6" d="M499.6,292.9c-1.7-0.5-3.3-1.3-4.9-2.5s-2.8-2.5-3.9-4s-1.9-3.1-2.3-4.8l5.5,1.6c0.3,0.9,0.8,1.8,1.6,2.6  c0.8,0.8,1.7,1.3,2.6,1.6c1,0.3,1.7,0.2,2.1-0.2c0.5-0.4,0.6-1.2,0.3-2.2c-0.2-1-0.8-1.9-1.6-2.7c-0.9-0.8-1.8-1.4-3-1.8l-2.2-0.7  l-1.2-4.8l2.2,0.7c1,0.3,1.7,0.2,2.2-0.2c0.5-0.4,0.6-1.1,0.3-2.1c-0.2-0.9-0.7-1.8-1.4-2.5c-0.7-0.7-1.5-1.3-2.3-1.5  c-0.9-0.3-1.6-0.2-2.1,0.2c-0.5,0.4-0.6,1.1-0.4,2L486,270c-0.4-1.7-0.4-3,0-4.1s1.2-1.8,2.2-2.1c1.1-0.3,2.4-0.3,4.1,0.2  c1.6,0.5,3.1,1.3,4.5,2.3c1.4,1.1,2.6,2.3,3.6,3.7c1,1.4,1.7,2.9,2.1,4.4c0.4,1.6,0.3,2.8-0.2,3.5c-0.6,0.8-1.5,1.1-2.7,0.9l0.1,0.2  c1.8,0.8,3.3,1.9,4.5,3.3c1.2,1.4,2,3,2.4,4.7c0.4,1.6,0.4,3-0.1,4c-0.5,1-1.3,1.7-2.5,2C502.9,293.5,501.4,293.4,499.6,292.9z"></path>
<path class="st5" d="M552.7,305.7c-1.8-0.5-3.4-1.4-4.9-2.7c-1.5-1.3-2.8-2.9-3.9-4.7c-1.1-1.8-1.9-3.8-2.5-6  c-0.6-2.2-0.7-4-0.4-5.4c0.3-1.4,0.9-2.4,2-2.9c1-0.5,2.5-0.5,4.2,0c1.8,0.5,3.4,1.4,4.9,2.7c1.5,1.3,2.8,2.9,3.9,4.7  c1.1,1.8,1.9,3.8,2.5,6c0.5,2.2,0.7,4,0.4,5.4c-0.3,1.4-0.9,2.4-2,2.9C555.9,306.3,554.5,306.3,552.7,305.7z M551.5,300.7  c1,0.3,1.6,0,1.8-1c0.3-0.9,0.2-2.3-0.3-4c-0.4-1.7-1.1-3.2-1.9-4.5c-0.8-1.2-1.7-2-2.7-2.3c-1-0.3-1.6,0-1.9,0.9  c-0.3,0.9-0.2,2.3,0.3,4c0.4,1.7,1.1,3.2,1.9,4.5C549.6,299.6,550.5,300.4,551.5,300.7z"></path>
<path class="st5" d="M600.1,319.5l-5.5-21.7l6.6,2l1,4l0.2,0.1c0-1.3,0.4-2.2,1.1-2.6c0.7-0.4,1.6-0.5,2.8-0.1  c0.6,0.2,1.1,0.4,1.7,0.7c0.5,0.3,1.1,0.6,1.5,1l-0.6,5.1c-0.3-0.2-0.7-0.4-1.1-0.7c-0.4-0.2-0.8-0.4-1.2-0.5  c-1.1-0.3-1.9-0.2-2.5,0.4c-0.6,0.6-0.7,1.5-0.4,2.8l3,11.8L600.1,319.5z"></path>
<path class="st5" d="M659.2,340.5c-1.6-0.5-3.1-1.3-4.6-2.5c-1.5-1.2-2.9-2.8-4.1-4.6c-1.2-1.9-2.1-4.1-2.7-6.5  c-0.6-2.6-0.8-4.5-0.4-5.9s1.1-2.3,2.2-2.7c1.1-0.4,2.4-0.4,3.9,0.1c1.7,0.5,3.1,1.3,4.3,2.4c1.2,1.1,2.1,2.2,2.8,3.4l0.1,0  l-2.8-10.9l6.8,2l7.4,28.9l-6.8-2l-0.9-3.5l-0.2-0.1c-0.2,0.9-0.7,1.5-1.4,2C662.1,341,660.8,341,659.2,340.5z M660.2,335.8  c1.2,0.4,2.1,0.1,2.5-0.7c0.4-0.8,0.4-2.1,0-3.9c-0.4-1.8-1.2-3.3-2.1-4.5s-2.1-2-3.3-2.4c-1.3-0.4-2.1-0.1-2.5,0.7  c-0.4,0.8-0.4,2.1,0,3.9c0.4,1.8,1.1,3.3,2.1,4.5C657.9,334.6,659,335.5,660.2,335.8z"></path>
<path class="st6" d="M712.2,353.4c-1.6-0.5-3.1-1.4-4.4-2.7c-1.3-1.3-2.2-3.1-2.8-5.1c-0.4-1.6-0.4-2.7-0.1-3.5  c0.3-0.8,0.9-1.2,1.8-1.4s1.8-0.1,2.9,0.1c1.4,0.3,2.4,0.4,3,0.3c0.6,0,0.8-0.4,0.6-1l0-0.1c-0.2-0.7-0.5-1.3-1-1.8  c-0.5-0.5-1.1-0.9-1.7-1c-0.7-0.2-1.2-0.2-1.6,0.1c-0.3,0.3-0.5,0.7-0.4,1.3l-5-1.7c-0.3-1.9,0.1-3.2,1-4.1c1-0.9,2.6-1,4.9-0.3  c1.4,0.4,2.8,1.1,4.1,2c1.3,0.9,2.4,2,3.3,3.2c0.9,1.2,1.6,2.6,1.9,4.1l3.6,14.3l-5.1-1.5l-0.7-2.9l-0.1,0  C715.9,353.4,714.6,354.1,712.2,353.4z M712.8,349.5c0.9,0.3,1.5,0.2,2-0.3c0.4-0.5,0.5-1.2,0.3-2.2l-0.5-2  c-0.3,0.1-0.6,0.2-1.1,0.1c-0.5,0-1-0.1-1.5-0.1c-1.5-0.2-2.1,0.4-1.8,1.8c0.2,0.7,0.5,1.3,1,1.8  C711.6,348.9,712.2,349.3,712.8,349.5z"></path>
<path class="st6" d="M769.2,373.4c-1.2-0.4-2.5-1-3.7-1.8c-1.3-0.8-2.5-1.9-3.6-3.3c-1.2-1.4-2.2-3-3.2-4.9c-1-1.9-1.8-4.2-2.4-6.7  c-0.8-3.1-1.1-5.7-0.9-7.7c0.2-2,0.9-3.4,2-4.2c1.1-0.8,2.6-0.9,4.6-0.3c1.6,0.5,3.1,1.3,4.5,2.4c1.4,1.1,2.6,2.4,3.7,4  c1.1,1.5,1.9,3.1,2.4,4.8l-5.4-1.6c-0.4-1-0.9-1.8-1.6-2.4c-0.7-0.6-1.4-1.1-2.1-1.3c-1.4-0.4-2.2,0-2.5,1.3  c-0.3,1.3-0.1,3.2,0.5,5.8l0.1,0c0.1-1.1,0.7-1.9,1.5-2.3c0.9-0.4,1.9-0.4,3.2,0c1.4,0.4,2.7,1.2,3.9,2.2c1.2,1.1,2.3,2.4,3.3,3.9  c0.9,1.5,1.6,3.2,2.1,4.9c0.5,2,0.6,3.6,0.2,4.9c-0.4,1.3-1.1,2.1-2.2,2.6C772.4,374,770.9,373.9,769.2,373.4z M767.9,368.2  c1,0.3,1.7,0.1,2.2-0.5c0.4-0.7,0.5-1.6,0.2-2.9c-0.3-1.3-0.9-2.4-1.8-3.5s-1.8-1.7-2.8-2c-1-0.3-1.7-0.1-2.2,0.5  c-0.4,0.7-0.5,1.6-0.2,2.9c0.3,1.3,0.9,2.4,1.8,3.5C765.9,367.2,766.8,367.9,767.9,368.2z"></path>
<path class="st5" d="M823.9,389.8c-1.7-0.5-3.3-1.3-4.9-2.5c-1.5-1.1-2.8-2.5-3.9-4c-1.1-1.5-1.9-3.1-2.3-4.8l5.5,1.6  c0.3,0.9,0.8,1.8,1.6,2.6c0.8,0.8,1.7,1.3,2.6,1.6c1,0.3,1.7,0.2,2.1-0.2c0.5-0.4,0.6-1.2,0.3-2.2c-0.2-1-0.8-1.9-1.6-2.7  c-0.8-0.8-1.8-1.4-3-1.8l-2.2-0.7l-1.2-4.8l2.2,0.7c1,0.3,1.8,0.2,2.2-0.2c0.5-0.4,0.6-1.1,0.3-2.1c-0.2-0.9-0.7-1.8-1.4-2.5  c-0.7-0.8-1.5-1.3-2.3-1.5c-0.9-0.3-1.6-0.2-2.1,0.2c-0.5,0.4-0.6,1.1-0.4,2l-5.2-1.6c-0.4-1.7-0.4-3,0-4.1c0.4-1.1,1.2-1.8,2.2-2.1  c1.1-0.3,2.5-0.3,4.1,0.2c1.6,0.5,3.1,1.3,4.5,2.3c1.4,1.1,2.6,2.3,3.6,3.7c1,1.4,1.7,2.9,2.1,4.4c0.4,1.6,0.3,2.8-0.2,3.5  c-0.6,0.8-1.5,1.1-2.7,0.9l0.1,0.2c1.8,0.8,3.3,1.9,4.5,3.3c1.2,1.4,2,3,2.4,4.7c0.4,1.6,0.4,3-0.1,4c-0.5,1-1.3,1.7-2.5,2  C827.1,390.4,825.6,390.3,823.9,389.8z"></path>
<path class="st6" d="M874.9,378.7l7.2,28.1l-5.5-1.6l-5.1-20.1l-0.2-0.1c-0.1,0.4-0.5,0.7-1.2,0.9c-0.7,0.2-1.6,0.2-2.8-0.2  l-1.4-5.4c0.9,0.3,1.7,0.3,2.3,0c0.6-0.3,1-0.7,1.2-1.3c0.2-0.6,0.3-1.3,0.1-2L874.9,378.7z"></path>
<path class="st6" d="M337.9,235.8l-3-12l5.4,1.6l5.4,21.1l-5.1-1.5l-1-3.9l-0.2-0.1c0,1.2-0.4,2-1.1,2.5c-0.7,0.5-1.7,0.5-3,0.2  c-1.2-0.3-2.3-1-3.3-1.9c-1-0.9-2-2.1-2.7-3.4c-0.8-1.3-1.4-2.8-1.8-4.4l-3.4-13.5l5.4,1.6l3.1,12.1c0.3,1.1,0.8,2.1,1.4,2.9  c0.6,0.8,1.4,1.3,2.2,1.6c0.8,0.2,1.4,0.1,1.8-0.4C338.2,237.9,338.3,237.1,337.9,235.8z"></path>
<path class="st6" d="M283.5,228.4c-1.8-0.5-3.4-1.3-5-2.4c-1.6-1.1-2.9-2.4-4-3.8c-1.1-1.4-1.8-2.9-2.2-4.4c-0.3-1.2-0.3-2.2-0.1-3  s0.6-1.5,1.2-1.9c0.6-0.4,1.4-0.6,2.3-0.5l-0.1-0.2c-1.3-0.7-2.5-1.7-3.6-3.1c-1.1-1.4-1.8-2.9-2.2-4.4c-0.4-1.5-0.3-2.7,0.1-3.6  c0.4-0.9,1.2-1.5,2.3-1.8c1.1-0.3,2.4-0.2,4,0.3c1.6,0.5,3.1,1.2,4.5,2.3c1.4,1,2.6,2.2,3.6,3.6c1,1.4,1.7,2.8,2.1,4.2  c0.4,1.5,0.3,2.8-0.2,3.7c-0.5,0.9-1.3,1.3-2.5,1.3l0.1,0.2c1,0.5,1.9,1.1,2.9,2c0.9,0.9,1.7,1.9,2.5,3c0.7,1.1,1.2,2.2,1.5,3.4  c0.4,1.5,0.3,2.8-0.1,3.7c-0.5,1-1.3,1.6-2.5,1.9C286.8,229,285.3,228.9,283.5,228.4z M279.2,211.2c0.9,0.3,1.5,0.1,1.9-0.3  c0.4-0.5,0.5-1.2,0.2-2.2c-0.2-1-0.7-1.9-1.4-2.7c-0.7-0.8-1.5-1.3-2.4-1.6c-0.9-0.3-1.5-0.2-1.9,0.3c-0.4,0.5-0.5,1.2-0.2,2.2  c0.3,1,0.7,1.9,1.5,2.7S278.3,211,279.2,211.2z M282.3,223.5c1,0.3,1.7,0.2,2.2-0.3c0.5-0.5,0.5-1.3,0.3-2.4c-0.3-1.1-0.8-2.1-1.6-3  c-0.8-0.9-1.7-1.5-2.7-1.8c-1-0.3-1.7-0.2-2.2,0.3c-0.5,0.5-0.6,1.3-0.3,2.4c0.3,1.1,0.8,2.1,1.6,3  C280.4,222.6,281.3,223.2,282.3,223.5z"></path>
<path class="st5" d="M450.8,302.4l-6.3-1.7c0.1-0.7-0.1-1.4-0.5-2c-0.5-0.6-1.1-1-2-1.3c-0.8-0.2-1.5-0.3-2.2-0.1  c-0.6,0.1-1,0.5-1.2,1c-0.1,0.4-0.1,0.8,0.2,1.2c0.3,0.4,0.8,0.9,1.7,1.3l3.9,2c4,2.1,5.5,4.6,4.6,7.7c-0.4,1.5-1.3,2.6-2.5,3.5  c-1.2,0.8-2.6,1.3-4.3,1.5c-1.7,0.2-3.5-0.1-5.4-0.6c-3.1-0.9-5.3-2.3-6.7-4.1c-1.4-1.8-1.9-3.8-1.5-6l6.8,1.8  c-0.1,0.8,0.1,1.5,0.6,2.1c0.5,0.6,1.2,1,2.2,1.3c0.9,0.3,1.6,0.3,2.3,0.1c0.6-0.2,1.1-0.5,1.2-1c0.2-0.9-0.4-1.8-2.1-2.6l-3.5-1.8  c-4-2.1-5.5-4.8-4.5-8.1c0.6-2.2,2-3.6,4.1-4.3c2.1-0.7,4.6-0.6,7.5,0.3s5,2.2,6.3,3.9C450.8,298.3,451.2,300.3,450.8,302.4z"></path>
<path class="st5" d="M479.9,327.4l0.8-23.1l6.9,2l-1.2,14.6l0.2,0.1l7.2-12.8l6.7,2l-0.9,14.6l0.2,0.1l6.9-12.8l6.9,2.1l-12,19.8  l-7.3-2.2l0.4-13.5l-0.2-0.1l-7.1,11.5L479.9,327.4z"></path>
<path class="st6" d="M541.3,346.1c-2-0.6-3.6-1.6-4.6-3.1c-1-1.4-1.2-3.2-0.6-5.3c0.5-1.6,1.2-2.7,2.2-3.5c1-0.7,2.2-1.1,3.5-1.2  c1.3-0.1,2.8,0,4.2,0.3c1.9,0.4,3.2,0.6,4.1,0.6c0.8,0,1.4-0.3,1.6-1l0-0.1c0.2-0.7,0.1-1.3-0.2-1.9c-0.4-0.5-1-0.9-1.8-1.2  c-0.9-0.3-1.7-0.3-2.4-0.1c-0.7,0.2-1.2,0.7-1.5,1.3l-6.2-2.1c0.9-1.9,2.3-3.2,4.3-4s4.4-0.8,7.3,0.1c1.8,0.5,3.4,1.3,4.6,2.3  c1.3,1,2.1,2.1,2.7,3.4c0.5,1.3,0.5,2.7,0.1,4.2l-4.4,14.6l-6.4-1.9l0.9-3l-0.2-0.1C546.7,346.5,544.3,347,541.3,346.1z   M544.7,342.3c1.1,0.3,2.1,0.3,3.1-0.1c1-0.4,1.6-1.2,1.9-2.2l0.6-2c-0.4,0.1-1,0.1-1.8,0c-0.7-0.1-1.4-0.1-2.1-0.2  c-2.1-0.3-3.4,0.2-3.8,1.6c-0.2,0.7-0.1,1.3,0.3,1.8C543.4,341.7,544,342,544.7,342.3z"></path>
<path class="st6" d="M587.9,362.8l18.4-19.4l0.1-0.2l-13.5-4l1.7-5.6l20.6,6.2l-1.7,5.6L595,364.9L587.9,362.8z"></path>
<path class="st6" d="M665.2,362.5l-1.5,5l-4.1-1.2l-4.9,16.4l-6.8-2l4.9-16.4l-2.9-0.9l1.5-5l2.9,0.9l0.3-1.1c0.7-2.5,2-4.1,3.7-5  c1.7-0.8,3.7-0.9,5.9-0.2c0.9,0.3,1.8,0.6,2.6,1c0.8,0.4,1.4,0.7,1.8,0.9l-2.6,4.7c-0.2-0.1-0.5-0.3-0.8-0.5c-0.3-0.2-0.7-0.3-1-0.4  c-0.8-0.2-1.4-0.2-1.8,0c-0.4,0.3-0.7,0.7-0.9,1.3l-0.4,1.2L665.2,362.5z"></path>
<path class="st6" d="M707.3,395.7c-2.3-0.7-4.1-1.7-5.4-3.1c-1.3-1.4-2.2-3.1-2.6-5c-0.4-1.9-0.2-4,0.4-6.1c0.7-2.2,1.7-4,3-5.4  c1.4-1.4,3-2.3,4.9-2.8c1.9-0.4,4-0.3,6.2,0.3c2,0.6,3.6,1.5,4.9,2.6c1.3,1.2,2.1,2.5,2.5,4.1c0.4,1.6,0.4,3.2-0.1,5l-6.4-1.9  c0.2-1.1,0.1-2.1-0.3-2.9c-0.4-0.8-1.1-1.4-2.1-1.6c-1.2-0.4-2.3-0.1-3.3,0.6s-1.8,2.1-2.4,4c-0.6,1.9-0.6,3.5-0.2,4.7  c0.4,1.2,1.2,2,2.4,2.3c0.9,0.3,1.8,0.2,2.6-0.2c0.8-0.4,1.5-1.2,1.9-2.3l6.4,1.9c-0.6,1.8-1.5,3.2-2.7,4.2  c-1.2,1.1-2.7,1.8-4.4,2.1C711.1,396.5,709.3,396.3,707.3,395.7L707.3,395.7z"></path>
<path class="st6" d="M768.4,385c1.6,0.5,3,1.2,4.3,2.1c1.3,0.9,2.3,2.1,3.1,3.6c0.8,1.4,1.2,3.2,1.3,5.2c0.1,2-0.2,4.3-1,6.9  c-1,3.2-2.3,5.8-3.9,7.7c-1.7,2-3.6,3.3-5.8,4c-2.2,0.7-4.5,0.7-6.9-0.1c-2-0.6-3.7-1.5-5-2.7c-1.3-1.2-2.2-2.6-2.7-4.2  c-0.5-1.6-0.6-3.2-0.3-4.9l6.8,2c-0.1,1,0.2,1.9,0.7,2.6c0.5,0.7,1.3,1.2,2.3,1.5c1.7,0.5,3.3,0.2,4.6-1.1c1.3-1.3,2.4-3.2,3.2-5.8  l-0.2-0.1c-1,1.1-2.2,1.8-3.8,2.2c-1.5,0.3-3.1,0.3-4.7-0.2c-1.7-0.5-3.1-1.4-4.2-2.5c-1.1-1.2-1.8-2.6-2.1-4.2  c-0.3-1.6-0.2-3.3,0.3-5c0.6-2,1.6-3.6,3-4.9c1.4-1.2,3-2,5-2.4C764.1,384.1,766.2,384.3,768.4,385z M766.8,390.3  c-1.3-0.4-2.5-0.3-3.6,0.4c-1.1,0.6-1.8,1.6-2.2,2.9c-0.4,1.3-0.3,2.5,0.3,3.6c0.6,1.1,1.5,1.9,2.8,2.2c1.3,0.4,2.4,0.2,3.6-0.4  c1.1-0.6,1.9-1.6,2.3-2.9c0.4-1.3,0.3-2.5-0.3-3.6C769,391.4,768.1,390.7,766.8,390.3z"></path>
<path class="st6" d="M812.4,431.7c-2.1-0.6-3.8-1.6-5.2-2.8c-1.4-1.2-2.4-2.7-2.9-4.3c-0.5-1.6-0.6-3.3-0.1-5l6.7,2  c-0.3,1.1-0.1,2,0.5,2.9c0.6,0.9,1.5,1.5,2.6,1.8c1.3,0.4,2.5,0.3,3.6-0.3c1.1-0.6,1.8-1.6,2.2-3c0.4-1.4,0.3-2.6-0.3-3.7  c-0.6-1.1-1.5-1.8-2.9-2.2c-0.8-0.3-1.7-0.3-2.5-0.2c-0.8,0.2-1.6,0.5-2.1,1l-5.8-3l5.8-15.1l18.4,5.5l-1.7,5.6l-12.7-3.8l-2.7,6.5  l0.2,0.1c0.7-0.6,1.7-1.1,2.9-1.3c1.2-0.2,2.5-0.1,3.8,0.3c1.7,0.5,3.1,1.4,4.2,2.6c1.1,1.2,1.8,2.6,2.2,4.3  c0.4,1.6,0.3,3.4-0.3,5.2c-0.6,2-1.6,3.6-3,4.8s-3,2-5,2.4C816.7,432.5,814.6,432.4,812.4,431.7z"></path>
<path class="st6" d="M868.1,448.4c-2.2-0.7-4.1-1.6-5.6-2.8c-1.5-1.2-2.6-2.6-3.2-4.1c-0.6-1.5-0.7-3.1-0.2-4.6c0.4-1.2,1-2.2,1.8-3  c0.9-0.8,1.9-1.4,3-1.8c1.2-0.4,2.4-0.5,3.6-0.3l0.1-0.2c-1.5-0.8-2.6-1.9-3.2-3.4c-0.7-1.5-0.7-3-0.3-4.6c0.4-1.5,1.3-2.7,2.6-3.6  c1.3-0.9,2.8-1.4,4.6-1.6c1.8-0.2,3.7,0,5.7,0.6c2,0.6,3.7,1.5,5.1,2.6c1.4,1.1,2.3,2.4,2.9,3.9c0.6,1.4,0.6,2.9,0.2,4.4  c-0.5,1.6-1.4,2.8-2.7,3.7c-1.4,0.9-2.9,1.2-4.5,1l-0.1,0.2c1.1,0.5,2.1,1.3,2.9,2.2c0.8,0.9,1.3,2,1.6,3.2c0.3,1.2,0.2,2.3-0.1,3.5  c-0.5,1.5-1.4,2.8-2.7,3.7c-1.4,0.9-3,1.5-5,1.7C872.4,449.3,870.4,449,868.1,448.4z M869.6,443.5c1.3,0.4,2.4,0.3,3.4-0.1  c1-0.5,1.7-1.3,2-2.4c0.3-1.1,0.2-2.1-0.4-3.1c-0.6-1-1.5-1.6-2.8-2c-1.2-0.4-2.4-0.3-3.4,0.2c-1,0.5-1.7,1.3-2,2.4  c-0.3,1.1-0.2,2.1,0.4,3.1C867.4,442.4,868.3,443.1,869.6,443.5z M873.3,431c1.1,0.3,2.1,0.3,3-0.2c0.9-0.4,1.5-1.2,1.8-2.2  c0.3-1,0.2-1.9-0.3-2.8c-0.5-0.9-1.3-1.4-2.4-1.8c-1.1-0.3-2.1-0.3-3,0.1c-0.9,0.4-1.5,1.1-1.8,2.2c-0.3,1-0.2,2,0.3,2.8  C871.4,430.1,872.2,430.6,873.3,431z"></path>
<path class="st6" d="M453.5,363l3.3-3.6l15.6-3.8c1.8-0.4,3.2-0.9,4.4-1.3c1.1-0.4,2.1-1,2.8-1.8c0.8-0.9,1.1-1.6,0.8-2.3  c-0.2-0.7-0.9-1.2-1.9-1.5c-1.1-0.3-2.2-0.3-3.3,0c-1.1,0.3-2.1,0.9-3,1.9l-5.9-1.8c1.3-1.4,2.8-2.5,4.6-3.3  c1.7-0.8,3.6-1.3,5.5-1.4c2-0.1,3.9,0.1,5.8,0.7c2,0.6,3.4,1.4,4.4,2.3c1,1,1.4,2,1.3,3.2c-0.1,1.2-0.7,2.4-1.9,3.6  c-0.7,0.8-1.7,1.5-2.8,2.2c-1.1,0.7-2.6,1.3-4.5,1.9c-1.9,0.6-4.4,1.3-7.5,2.1l-5.2,1.4l-0.1,0.1l10.5,3.1l-3.8,4L453.5,363z"></path>
<path class="st6" d="M519.1,381.4c-3.1-0.9-4.8-2.3-5.2-4.3c-0.4-1.9,0.5-4.2,2.8-6.7c1.5-1.6,3.2-2.9,5.1-3.9c1.9-1,3.9-1.6,6-1.8  c2.1-0.2,4.1-0.1,6,0.5c1.8,0.5,3.2,1.3,4,2.4c0.8,1,1.1,2.3,0.8,3.7c-0.3,1.4-1.2,3-2.8,4.7l-1.1,1.2l-12.9-3.9l-0.1,0.1  c-0.9,1-1.3,1.8-1.1,2.6c0.1,0.8,0.8,1.4,2,1.7c0.8,0.2,1.6,0.3,2.5,0.2c0.9-0.1,1.6-0.4,2.4-0.8l5.5,1.8c-1.8,1.4-3.9,2.4-6.3,2.8  C524.2,382.3,521.7,382.2,519.1,381.4z M524.5,370.5l7.2,2.2c0.7-0.8,1-1.6,0.8-2.3c-0.2-0.7-0.8-1.2-1.8-1.5c-1-0.3-2.1-0.3-3.3,0  C526.2,369.2,525.2,369.7,524.5,370.5z"></path>
<path class="st6" d="M594.8,378.6l-19.3,20.8l-6.2-1.9l13.7-14.8l-0.2-0.1c-0.6,0.3-1.6,0.4-2.7,0.5s-2.5-0.1-3.9-0.5l3.7-4  c1,0.3,2.1,0.4,3.3,0.3c1.2-0.1,2.2-0.4,3.2-0.8c1-0.4,1.7-0.9,2.2-1.4L594.8,378.6z"></path>
<path class="st6" d="M623.9,412.7c-1.9-0.6-3-1.4-3.5-2.5c-0.5-1.1,0-2.4,1.4-4c1.1-1.2,2.2-2,3.5-2.5c1.3-0.5,2.6-0.7,4-0.7  c1.4,0,2.8,0.2,4.2,0.5c1.8,0.4,3.1,0.6,3.9,0.6c0.9,0,1.5-0.2,1.9-0.6l0-0.1c0.5-0.5,0.6-1,0.4-1.4c-0.2-0.4-0.7-0.7-1.4-1  c-0.8-0.2-1.6-0.3-2.4-0.2c-0.8,0.1-1.4,0.4-2,0.9l-5.6-1.9c1.6-1.3,3.5-2.3,5.8-2.8c2.3-0.5,4.8-0.4,7.4,0.4  c1.6,0.5,2.9,1.1,3.8,1.9c0.9,0.8,1.4,1.7,1.4,2.7c0,1-0.5,2-1.5,3.1l-9.8,10.6l-5.8-1.7l2-2.2l-0.2,0  C629.3,413.2,626.6,413.5,623.9,412.7z M628.9,410c1,0.3,2,0.3,3.2,0c1.1-0.3,2.1-0.8,2.8-1.5l1.4-1.5c-0.5,0-1.1,0-1.8-0.1  c-0.7-0.1-1.4-0.2-2-0.3c-2-0.3-3.5,0-4.4,1c-0.5,0.5-0.6,1-0.4,1.4C627.7,409.5,628.1,409.8,628.9,410z"></path>
<path class="st5" d="M705.1,411.6l-22.8,19.7l-6.2-1.9l16.3-14.1l-0.2-0.1c-0.7,0.2-1.7,0.4-2.9,0.5c-1.2,0.1-2.6-0.1-4-0.6l4.3-3.8  c1,0.3,2.2,0.4,3.4,0.3c1.2-0.1,2.4-0.3,3.5-0.7c1.1-0.4,1.9-0.8,2.5-1.3L705.1,411.6z"></path>
<path class="st5" d="M722,443.2l4-3.4l16.7-3.5c1.9-0.4,3.5-0.8,4.7-1.2c1.3-0.4,2.3-1,3.2-1.7c0.9-0.8,1.3-1.6,1.2-2.2  c-0.1-0.7-0.7-1.2-1.8-1.5c-1.1-0.3-2.2-0.3-3.4,0c-1.2,0.3-2.4,0.9-3.4,1.8l-5.9-1.8c1.6-1.3,3.3-2.4,5.2-3.1  c1.9-0.7,3.9-1.2,6-1.3c2.1-0.1,4,0.1,5.9,0.7c2,0.6,3.4,1.3,4.2,2.3c0.9,0.9,1.2,2,0.9,3.1c-0.2,1.1-1,2.3-2.4,3.5  c-0.9,0.7-1.9,1.4-3.2,2c-1.3,0.6-2.9,1.2-5,1.8c-2.1,0.6-4.7,1.2-8.1,1.9l-5.6,1.3l-0.1,0.1l10.5,3.1l-4.5,3.8L722,443.2z"></path>
<path class="st6" d="M784.3,459.4c-1.9-0.6-3-1.4-3.3-2.4c-0.4-1.1,0.3-2.4,2-3.8c1.3-1.1,2.6-1.9,4-2.3c1.4-0.4,2.8-0.7,4.3-0.6  c1.5,0,2.9,0.2,4.3,0.5c1.8,0.4,3.1,0.6,4,0.7c0.9,0.1,1.6-0.1,2.1-0.6l0.1,0c0.6-0.5,0.8-0.9,0.7-1.3s-0.6-0.7-1.3-0.9  c-0.8-0.2-1.6-0.3-2.4-0.2c-0.8,0.1-1.6,0.4-2.2,0.8l-5.5-1.9c1.8-1.3,4-2.1,6.5-2.6c2.5-0.5,5-0.3,7.7,0.5c1.7,0.5,2.9,1.1,3.7,1.9  c0.8,0.8,1.2,1.6,1.1,2.6c-0.1,1-0.8,2-2,3l-11.6,10.1l-5.8-1.7l2.4-2.1l-0.1,0C789.8,460,787,460.2,784.3,459.4z M789.8,456.9  c1,0.3,2.1,0.3,3.3,0.1c1.2-0.2,2.2-0.7,3.1-1.4l1.6-1.4c-0.5,0-1.1,0-1.9-0.1c-0.7-0.1-1.4-0.2-2.1-0.3c-2.1-0.3-3.7,0-4.7,0.9  c-0.6,0.5-0.8,0.9-0.6,1.3C788.7,456.4,789.1,456.7,789.8,456.9z"></path>
<path class="st5" d="M831.5,471.5l4.3-3.7l26.3-9.1l8.7,2.6l-14.5,12.6l3.4,1l-4.3,3.7l-3.4-1l-3.8,3.2l-6.6-2l3.8-3.2L831.5,471.5z   M849.7,472l8.8-7.6l-0.2-0.1l-15.4,5.4l-0.2,0.2L849.7,472z"></path>
<path class="st6" d="M407.1,346.7c-1.9-0.6-3-1.4-3.5-2.5c-0.5-1.1,0-2.4,1.4-4c1.1-1.2,2.2-2,3.5-2.5c1.3-0.5,2.6-0.7,4-0.7  c1.4,0,2.8,0.2,4.2,0.5c1.8,0.4,3.1,0.6,3.9,0.6c0.9,0,1.5-0.2,1.9-0.6l0-0.1c0.5-0.5,0.6-1,0.4-1.4c-0.2-0.4-0.7-0.7-1.4-1  c-0.8-0.2-1.6-0.3-2.4-0.2c-0.8,0.1-1.4,0.4-2,0.9l-5.6-1.9c1.6-1.3,3.5-2.3,5.8-2.8c2.3-0.5,4.8-0.4,7.4,0.4  c1.6,0.5,2.9,1.1,3.8,1.9c0.9,0.8,1.4,1.7,1.4,2.7c0,1-0.5,2-1.5,3.1l-9.8,10.6l-5.8-1.7l2-2.2l-0.2,0  C412.4,347.2,409.8,347.5,407.1,346.7z M412,344c1,0.3,2,0.3,3.2,0c1.1-0.3,2.1-0.8,2.8-1.5l1.4-1.5c-0.5,0-1.1,0-1.8-0.1  c-0.7-0.1-1.4-0.2-2-0.3c-2-0.3-3.5,0-4.4,1c-0.5,0.5-0.6,1-0.4,1.4C410.9,343.5,411.3,343.8,412,344z"></path>
<path class="st6" d="M346.8,326.7l3.6-3.9l23-10.2l7.9,2.4L369,328.3l3.1,0.9l-3.7,4l-3.1-0.9l-3.2,3.5l-6-1.8l3.2-3.5L346.8,326.7z   M363.1,326.5l7.5-8.1l-0.2-0.1l-13.5,6l-0.1,0.2L363.1,326.5z"></path>
<path class="st6" d="M301.2,314.1c-3.1-0.9-4.8-2.3-5.2-4.3c-0.4-1.9,0.5-4.2,2.8-6.7c1.5-1.6,3.2-2.9,5.1-3.9c1.9-1,3.9-1.6,6-1.8  c2.1-0.2,4.1-0.1,6,0.5c1.8,0.5,3.2,1.3,4,2.4c0.8,1,1.1,2.3,0.8,3.7c-0.3,1.4-1.2,3-2.8,4.7l-1.1,1.2l-12.9-3.9l-0.1,0.1  c-0.9,1-1.3,1.8-1.1,2.6c0.1,0.8,0.8,1.4,2,1.7c0.8,0.2,1.6,0.3,2.5,0.2c0.9-0.1,1.6-0.4,2.3-0.8l5.6,1.8c-1.8,1.4-3.9,2.4-6.3,2.8  C306.3,315,303.8,314.8,301.2,314.1z M306.6,303.2l7.2,2.2c0.7-0.8,1-1.6,0.8-2.3c-0.2-0.7-0.8-1.2-1.8-1.5c-1-0.3-2.1-0.3-3.3,0  C308.3,301.9,307.3,302.4,306.6,303.2z"></path>
<path class="st6" d="M236.7,298.2l3.3-3.6l15.6-3.8c1.8-0.4,3.2-0.9,4.4-1.3c1.1-0.4,2.1-1,2.8-1.8c0.8-0.9,1.1-1.6,0.8-2.3  c-0.2-0.7-0.9-1.2-1.9-1.5c-1.1-0.3-2.2-0.3-3.3,0c-1.1,0.3-2.1,1-3,1.9l-5.9-1.8c1.3-1.4,2.8-2.5,4.6-3.3c1.7-0.8,3.6-1.3,5.5-1.4  c2-0.1,3.9,0.1,5.8,0.7c2,0.6,3.4,1.4,4.4,2.3c1,1,1.4,2,1.3,3.2c-0.1,1.2-0.7,2.4-1.9,3.6c-0.7,0.8-1.7,1.5-2.8,2.2  c-1.1,0.7-2.6,1.3-4.5,1.9c-1.9,0.6-4.4,1.3-7.5,2.1l-5.2,1.4l-0.1,0.1l10.5,3.1l-3.8,4.1L236.7,298.2z"></path>
<line class="st0" x1="219.7" y1="237.5" x2="137.5" y2="212.9"></line>
<g>
	<path class="st7" d="M596,484.2c-32.4,27.7-69.9,39.2-103,27.3c-44.9-16.1-68.7-70.8-64.4-134.9"></path>
	<polygon class="st6" points="572.6,479.3 572.3,483.8 594.5,485.2 591.5,507.3 596,507.9 599.7,481  "></polygon>
</g>
<g>
	<path class="st7" d="M485.4,234.9c36.4-42.9,83.9-63.7,124.6-49.1c40.6,14.6,64,60.7,64.9,116.9c0.4,26.8-4.3,55.9-14.8,85   c-7.7,21.5-17.9,41.1-29.7,58.1"></path>
	<polygon class="st6" points="509.3,236 508.9,231.5 486.7,233.7 486.2,211.4 481.7,211.5 482.3,238.7  "></polygon>
</g>
<g>
	<path class="st7" d="M333.5,395.1c-32.4,27.7-69.9,39.2-103,27.3c-48.7-17.5-72.6-80.3-62.7-151.4"></path>
	<polygon class="st6" points="310.1,390.2 309.8,394.7 332,396.1 329,418.2 333.5,418.8 337.2,391.9  "></polygon>
</g>
<g>
	<path class="st7" d="M211.4,160.6c37.5-52.8,91-80.1,136.1-63.9c60,21.5,82.4,111.9,50.1,201.9c-7.7,21.5-17.9,41.1-29.7,58.1"></path>
	<polygon class="st6" points="235.3,159.7 234.5,155.2 212.6,159.3 210.1,137.2 205.6,137.7 208.7,164.6  "></polygon>
</g>
<g>
	<path class="st7" d="M853.7,558.3c-32.4,27.7-69.9,39.2-103,27.3c-44.8-16.1-68.7-70.7-64.4-134.8"></path>
	<polygon class="st6" points="830.3,553.4 830,557.9 852.2,559.3 849.2,581.4 853.7,582 857.3,555.1  "></polygon>
</g>
<g>
	<path class="st7" d="M743.6,308.4c36.4-42.5,83.6-63.1,124.1-48.5c60,21.5,82.4,111.9,50.1,201.9c-7.7,21.5-17.9,41.1-29.7,58.1"></path>
	<polygon class="st6" points="767.5,309.6 767.1,305.1 744.9,307.2 744.4,284.9 739.9,285 740.5,312.1  "></polygon>
</g>
</svg>
