<?xml version="1.0" encoding="UTF-8"?>
<svg xmlns="http://www.w3.org/2000/svg" width="1076" height="684" viewBox="0 0 1076 684">
  <g fill="none">
    <g id="Layer_1" data-name="Layer 1">
      <path d="m727.012822,207.921543l.000005-.000052c-.221867-99.389321-82.489638-179.941991-181.863167-178.156462-97.12344,1.7451-175.31909,81.021715-175.31909,178.561979,0,.22832.000429.45654.001287.684659.130388,34.68336-19.620308,66.139223-50.811804,81.306392-70.854594,34.453737-115.50917,114.381659-95.992136,201.833981,14.659374,65.686021,65.915538,117.422793,131.496803,132.54391,54.994274,12.680067,107.092722-.05081,146.887305-28.772539,37.413629-27.003276,87.631869-29.267356,126.88902-5.022094,28.099107,17.354041,61.289147,27.144319,96.647567,26.508699,97.12262-1.746094,175.317383-81.022461,175.317383-178.562012,0-82.736106-56.260723-152.331755-132.611764-172.616615-26.047908-6.920379-43.376281-31.497431-40.641409-58.309846Z" fill="#d2e7b4"></path>
      <path d="m484.65413,512.936651c-117.299957,69.752667-240.554177-106.824839-95.544046-174.960891" fill="none" stroke="#5e9c1c" stroke-dasharray="0 0 10.472412 10.472412" stroke-miterlimit="10" stroke-width="4.434336"></path>
      <g>
        <path d="m361.150601,461.696035l-29.766388-51.556896c-2.441967-4.229611-8.546885-4.229611-10.988852,0l-29.766388,51.556896c-2.441967,4.229611.610492,9.516625,5.494426,9.516625h59.532775c4.883934,0,7.936393-5.287014,5.494426-9.516625Z" fill="#233212" stroke="#233212" stroke-miterlimit="10" stroke-width="1.278081"></path>
        <g>
          <line x1="335.950386" y1="436.008103" x2="315.82919" y2="456.129298" fill="none" stroke="#ee9e55" stroke-miterlimit="10" stroke-width="3.834243"></line>
          <line x1="315.82919" y1="436.008103" x2="335.950386" y2="456.129298" fill="none" stroke="#ee9e55" stroke-miterlimit="10" stroke-width="3.834243"></line>
        </g>
      </g>
      <path d="m650.543046,515.938451c117.299957,69.752667,240.554177-106.824839,95.544046-174.960891" fill="none" stroke="#5e9c1c" stroke-dasharray="0 0 10.472412 10.472412" stroke-miterlimit="10" stroke-width="4.434336"></path>
      <path d="m655.08278,222.866257c6.386703-136.322869-207.411386-162.044362-199.338572-2.027833" fill="none" stroke="#5e9c1c" stroke-dasharray="0 0 10.472412 10.472412" stroke-miterlimit="10" stroke-width="4.434336"></path>
      <path d="m737.596879,425.655061c-.916073,2.887188-1.894187,5.736256-2.95111,8.54177-33.323042,89.48947-131.400685,137.984992-223.430592,108.784908-94.90872-30.113499-147.440262-131.472896-117.326762-226.381616,7.053646-22.230976,18.012032-42.138969,31.882957-59.195757,8.778119-10.788115,18.706667-20.442141,29.555788-28.822042,45.229998-34.976117,106.322639-47.908578,164.94294-29.308998,58.738211,18.636992,101.234514,64.548269,117.963303,119.340778,10.31262,33.753996,10.842659,70.862022-.636522,107.040957Z" fill="#5e9c1c"></path>
      <path d="m536.802655,227.745347l10.311784-11.83118c1.158169-1.32882,2.994484-1.843631,4.674641-1.310536l39.186989,12.433603c2.283318.724472,3.575704,3.134217,2.915996,5.437082l-12.595686,43.96817c-.419718,1.465123-1.563776,2.611196-3.028157,3.033491l-27.947951,8.059577c-2.826277.815036-5.646493-1.302833-5.651803-4.244278l-.077492-42.927561c-.003138-1.738367-1.023707-3.313899-2.608859-4.027497l-3.659926-1.647615c-2.707316-1.218771-3.470293-4.705064-1.519535-6.943257Z" fill="#d2e7b4" opacity=".56"></path>
      <path d="m737.596879,425.655061c-.916073,2.887188-1.894187,5.736256-2.95111,8.54177l-14.201406,8.520646c-1.658584.993231-3.805733.460236-4.801621-1.189974l-12.679997-20.978193c-.955672-1.572531-2.952475-2.141289-4.58828-1.307539l-17.611225,8.930407c-1.610901.813717-3.579431.272591-4.551111-1.249488l-12.373131-19.463361c-1.277734-2.01752-4.148686-2.196467-5.660827-.350717l-64.481157,78.334034c-1.553375,1.888198-4.523118,1.64081-5.746638-.48912l-13.232467-23.062252c-.524436-.916808-.612888-2.010376-.236147-2.993326l12.397917-32.533601c.64008-1.696176-.099758-3.598559-1.725698-4.401723l-13.587218-6.70153c-.512039-.255092-.95609-.636772-1.289625-1.104062l-14.623423-20.371884c-.892286-1.246714-.869171-2.925568.048607-4.153849l32.029956-42.518289c.915156-1.219838,2.514067-1.703832,3.957016-1.199742l29.994644,10.4713c3.177738,1.110163,5.941222-2.460168,4.068476-5.259569l-22.625685-33.871424c-.936373-1.3997-.740165-3.273696.468776-4.455964l22.723305-22.151136c.977717-.949701,2.414583-1.244322,3.689575-.765701l22.427533,8.478059c1.744091.664444,2.6572,2.575547,2.098975,4.334904l-.045383.143034c-.783942,2.178815.718945,4.508674,3.025704,4.68459l54.746501,4.35303c.209597.010971.411225.047237.607487.100234l25.364197,6.639477c10.31262,33.753996,10.842659,70.862022-.636522,107.040957Z" fill="#d2e7b4" opacity=".56"></path>
      <path d="m520.378304,420.134636l-36.831224,34.611268c-.35816.340338-.79022.592423-1.26285.738894l-18.246596,5.764154c-1.020281.324784-1.818748,1.118394-2.141906,2.136894l-5.870458,18.501923c-.30451.959724-1.027955,1.721493-1.966754,2.081405l-4.613723,1.751173c-2.580452.978616-5.13763-1.444858-4.304336-4.071153l18.58623-58.578223c.467394-1.473084.51426-3.051775.146261-4.549133l-5.961715-24.164683c-.168817-.665088-.123095-1.364008.133067-1.996158l6.498774-16.394024c.430937-1.095479.250889-2.338446-.483144-3.266225l-20.403847-25.689616c-.199083-.248535-.353852-.519994-.475323-.80871l-16.535349-40.68529c-.312746-.766287-.319588-1.620883-.037517-2.392971l9.234225-24.781869c.327841-.88729.26319-1.880678-.193097-2.720332l-9.877652-18.217595c8.778119-10.788115,18.706667-20.442141,29.555788-28.822042l34.200814,10.851544c3.771131,1.196539,5.848798,5.218976,4.652276,8.990056l-7.796142,24.5711c-.240348.757504-.194996,1.578061.120069,2.307988l6.881496,15.95127c1.086462,2.503438,4.571756,2.673505,5.902911.288529l6.992594-12.577579c1.273848-2.291869,4.586889-2.250649,5.793723.078016l15.453198,29.816743c.890731,1.718747.117078,3.835907-1.679392,4.562923l-51.454646,20.984366c-.658103.263718-1.369563.315976-2.056329.144443l-5.118788-1.299995c-2.461303-.623285-4.668098,1.659841-3.970644,4.104656l8.260758,28.628098c.153035.539631.442289,1.029742.83621,1.423451l48.106875,47.997156c1.314997,1.31603,1.284625,3.455834-.073836,4.729546Z" fill="#d2e7b4" opacity=".56"></path>
      <g fill="none">
        <path d="m737.596879,425.655061c-.916073,2.887188-1.894187,5.736256-2.95111,8.54177-33.323042,89.48947-131.400685,137.984992-223.430592,108.784908-94.90872-30.113499-147.440262-131.472896-117.326762-226.381616,7.053646-22.230976,18.012032-42.138969,31.882957-59.195757,8.778119-10.788115,18.706667-20.442141,29.555788-28.822042,45.229998-34.976117,106.322639-47.908578,164.94294-29.308998,58.738211,18.636992,101.234514,64.548269,117.963303,119.340778,10.31262,33.753996,10.842659,70.862022-.636522,107.040957Z" fill="none" stroke="#233212" stroke-miterlimit="10" stroke-width=".277686"></path>
        <path d="m737.596879,425.655061c-.916073,2.887188-1.894187,5.736256-2.95111,8.54177-33.323042,89.48947-131.400685,137.984992-223.430592,108.784908-94.90872-30.113499-147.440262-131.472896-117.326762-226.381616,7.053646-22.230976,18.012032-42.138969,31.882957-59.195757,8.778119-10.788115,18.706667-20.442141,29.555788-28.822042,45.229998-34.976117,106.322639-47.908578,164.94294-29.308998,58.738211,18.636992,101.234514,64.548269,117.963303,119.340778,10.31262,33.753996,10.842659,70.862022-.636522,107.040957Z" fill="none" stroke="#233212" stroke-miterlimit="10" stroke-width="2.221485"></path>
        <path d="m416.452057,472.208406c36.631034-13.862751,78.006766-15.942007,118.227826-3.180304,40.231648,12.765062,72.839798,38.318595,94.766986,70.761229" fill="none" stroke="#233212" stroke-miterlimit="10" stroke-width="2.221485"></path>
        <g>
          <path d="m660.0958,401.064817c-.916073,2.887188-1.863812,5.745893-2.852408,8.573087-31.303517,90.130244-95.501011,149.375566-146.028205,133.34384-52.107749-16.533219-69.939195-106.882655-39.825695-201.791375,7.053646-22.230976,16.110185-42.742405,26.515273-60.898865,6.583988-11.484289,13.699617-22.030823,21.193003-31.475463,31.245173-39.413349,68.98803-59.754442,101.172342-49.542711,32.249048,10.232271,51.365192,48.725278,54.116779,99.082974,1.699279,31.021077-2.811907,66.529577-14.291088,102.708513Z" fill="none" stroke="#233212" stroke-miterlimit="10" stroke-width="2.221485"></path>
          <line x1="620.270123" y1="199.273334" x2="511.215201" y2="542.981748" fill="none" stroke="#233212" stroke-miterlimit="10" stroke-width="2.221485"></line>
          <path d="m501.87057,202.517412c21.935435,32.526823,54.579726,58.150088,94.86431,70.931947,40.295171,12.785217,81.751223,10.67318,118.412999-3.249735" fill="none" stroke="#233212" stroke-miterlimit="10" stroke-width="2.221485"></path>
          <line x1="737.596869" y1="425.655002" x2="393.888456" y2="316.60008" fill="none" stroke="#233212" stroke-miterlimit="10" stroke-width="2.221485"></line>
        </g>
      </g>
      <g fill="none">
        <path d="m737.596879,425.655061c-.916073,2.887188-1.894187,5.736256-2.95111,8.54177-33.323042,89.48947-131.400685,137.984992-223.430592,108.784908-94.90872-30.113499-147.440262-131.472896-117.326762-226.381616,7.053646-22.230976,18.012032-42.138969,31.882957-59.195757,8.778119-10.788115,18.706667-20.442141,29.555788-28.822042,45.229998-34.976117,106.322639-47.908578,164.94294-29.308998,58.738211,18.636992,101.234514,64.548269,117.963303,119.340778,10.31262,33.753996,10.842659,70.862022-.636522,107.040957Z" fill="none" stroke="#233212" stroke-miterlimit="10" stroke-width=".277686"></path>
        <path d="m737.596879,425.655061c-.916073,2.887188-1.894187,5.736256-2.95111,8.54177-33.323042,89.48947-131.400685,137.984992-223.430592,108.784908-94.90872-30.113499-147.440262-131.472896-117.326762-226.381616,7.053646-22.230976,18.012032-42.138969,31.882957-59.195757,8.778119-10.788115,18.706667-20.442141,29.555788-28.822042,45.229998-34.976117,106.322639-47.908578,164.94294-29.308998,58.738211,18.636992,101.234514,64.548269,117.963303,119.340778,10.31262,33.753996,10.842659,70.862022-.636522,107.040957Z" fill="none" stroke="#233212" stroke-miterlimit="10" stroke-width="2.221485"></path>
        <path d="m416.452057,472.208406c36.631034-13.862751,78.006766-15.942007,118.227826-3.180304,40.231648,12.765062,72.839798,38.318595,94.766986,70.761229" fill="none" stroke="#233212" stroke-miterlimit="10" stroke-width="2.221485"></path>
        <g>
          <path d="m660.0958,401.064817c-.916073,2.887188-1.863812,5.745893-2.852408,8.573087-31.303517,90.130244-95.501011,149.375566-146.028205,133.34384-52.107749-16.533219-69.939195-106.882655-39.825695-201.791375,7.053646-22.230976,16.110185-42.742405,26.515273-60.898865,6.583988-11.484289,13.699617-22.030823,21.193003-31.475463,31.245173-39.413349,68.98803-59.754442,101.172342-49.542711,32.249048,10.232271,51.365192,48.725278,54.116779,99.082974,1.699279,31.021077-2.811907,66.529577-14.291088,102.708513Z" fill="none" stroke="#233212" stroke-miterlimit="10" stroke-width="2.221485"></path>
          <line x1="620.270123" y1="199.273334" x2="511.215201" y2="542.981748" fill="none" stroke="#233212" stroke-miterlimit="10" stroke-width="2.221485"></line>
          <path d="m501.87057,202.517412c21.935435,32.526823,54.579726,58.150088,94.86431,70.931947,40.295171,12.785217,81.751223,10.67318,118.412999-3.249735" fill="none" stroke="#233212" stroke-miterlimit="10" stroke-width="2.221485"></path>
          <line x1="737.596869" y1="425.655002" x2="393.888456" y2="316.60008" fill="none" stroke="#233212" stroke-miterlimit="10" stroke-width="2.221485"></line>
        </g>
      </g>
      <path d="m737.596879,425.655061c-.916073,2.887188-1.894187,5.736256-2.95111,8.54177-33.323042,89.48947-131.400685,137.984992-223.430592,108.784908-94.90872-30.113499-147.440262-131.472896-117.326762-226.381616,7.053646-22.230976,18.012032-42.138969,31.882957-59.195757,8.778119-10.788115,18.706667-20.442141,29.555788-28.822042,45.229998-34.976117,106.322639-47.908578,164.94294-29.308998,58.738211,18.636992,101.234514,64.548269,117.963303,119.340778,10.31262,33.753996,10.842659,70.862022-.636522,107.040957Z" fill="none" stroke="#233212" stroke-miterlimit="10" stroke-width="2.141071"></path>
      <path d="m485.114201,218.396197c0,16.450929-29.787043,53.953888-29.787043,53.953888,0,0-29.787043-37.502959-29.787043-53.953888s13.336113-29.787043,29.787043-29.787043,29.787043,13.336113,29.787043,29.787043Z" fill="#233212" stroke="#233212" stroke-miterlimit="10" stroke-width="1.278081"></path>
      <circle cx="455.327158" cy="217.272157" r="11.310167" fill="#fff"></circle>
      <path d="m757.860895,330.791483c0,16.450929-29.787043,53.953888-29.787043,53.953888,0,0-29.787043-37.502959-29.787043-53.953888s13.336113-29.787043,29.787043-29.787043,29.787043,13.336113,29.787043,29.787043Z" fill="#233212" stroke="#233212" stroke-miterlimit="10" stroke-width="1.278081"></path>
      <circle cx="728.073853" cy="329.667443" r="11.310167" fill="#fff"></circle>
      <path d="m511.122857,410.754028c0,14.364185-26.008657,47.11002-26.008657,47.11002,0,0-26.008657-32.745835-26.008657-47.11002s11.644472-26.008657,26.008657-26.008657,26.008657,11.644472,26.008657,26.008657Z" fill="#233212" stroke="#233212" stroke-miterlimit="10" stroke-width="1.115961"></path>
      <circle cx="485.114201" cy="409.772569" r="9.87551" fill="#fff"></circle>
      <g>
        <path d="m774.046574,464.697835l29.766388-51.556896c2.441967-4.229611,8.546885-4.229611,10.988852,0l29.766388,51.556896c2.441967,4.229611-.610492,9.516625-5.494426,9.516625h-59.532775c-4.883934,0-7.936393-5.287014-5.494426-9.516625Z" fill="#233212" stroke="#233212" stroke-miterlimit="10" stroke-width="1.278081"></path>
        <g>
          <line x1="799.24679" y1="439.009903" x2="819.367985" y2="459.131098" fill="none" stroke="#ee9e55" stroke-miterlimit="10" stroke-width="3.834243"></line>
          <line x1="819.367985" y1="439.009903" x2="799.24679" y2="459.131098" fill="none" stroke="#ee9e55" stroke-miterlimit="10" stroke-width="3.834243"></line>
        </g>
      </g>
      <g>
        <path d="m517.930354,116.049153l29.766388-51.556896c2.441967-4.229611,8.546885-4.229611,10.988852,0l29.766388,51.556896c2.441967,4.229611-.610492,9.516625-5.494426,9.516625h-59.532775c-4.883934,0-7.936393-5.287014-5.494426-9.516625Z" fill="#233212" stroke="#233212" stroke-miterlimit="10" stroke-width="1.278081"></path>
        <g>
          <line x1="543.13057" y1="90.361221" x2="563.251765" y2="110.482417" fill="none" stroke="#ee9e55" stroke-miterlimit="10" stroke-width="3.834243"></line>
          <line x1="563.251765" y1="90.361221" x2="543.13057" y2="110.482417" fill="none" stroke="#ee9e55" stroke-miterlimit="10" stroke-width="3.834243"></line>
        </g>
      </g>
    </g>
  </g>
</svg>
