<?xml version="1.0" encoding="UTF-8"?>
<svg xmlns="http://www.w3.org/2000/svg" id="clickerhand" width="1076" height="684" viewBox="0 0 1076 684">
  <g>
    <path d="m360.006582,461.294376s-4.636331-1.870267-10.021547-.1189c-.327814.10461-.685462.21874-1.003755.353184-2.586122,1.055173-5.271797,2.930252-7.659461,6.253634-.564414.804088-1.092077,1.826354-1.553155,3.057279,3.251014-11.218081,5.720174-23.95977,4.318417-34.218447-.109105-.75332-.22888-1.437691-.388133-2.142136-1.577326-8.133691-5.930012-14.363682-14.707889-16.554346,0,0-1.184471-.213122-2.947372-.077498-.257476.016619-.544844.042578-.861864.077998-3.4782.420421-8.67513,2.144376-12.128294,8.303874-2.044609-17.212714-6.49308-40.620467-16.059242-53.823805-.515629-.689338-1.012216-1.319007-1.538456-1.939214-4.794069-5.760817-10.827131-9.024422-18.320243-8.012509,0,0-1.140802.232756-2.703947.994356-.288699.1248-.567637.279558-.876592.443894-2.351382,1.275716-5.310409,3.632094-6.985852,7.74644-3.347569-5.138626-7.302633-10.740039-11.600114-15.871187-.204724-.230121-.370151-.44011-.575115-.670355-6.247989-7.332739-13.191731-13.655517-20.105079-16.178397-.30502-.13237-.600396-.235146-.886492-.308211-1.034332-.35945-2.090185-.580944-3.126939-.742587-6.874144-.959117-11.637261.889382-14.611453,2.889203-.249286.145295-.489051.320425-.698858.485794-2.287523,1.682479-3.317387,3.291745-3.317387,3.291745-2.279212,4.89812-2.44181,9.843192-1.020148,14.709646.055792.277848.141361.545993.226988.81432,2.921232,9.051199,11.119285,17.86368,20.736458,25.566251.264451.211262.528843.422342.832649.653917,5.83765,4.606586,12.205096,8.814401,18.145084,12.403158-12.202795-2.838162-17.670869,6.886963-17.670869,6.886963-.060817.117825-.121759.235889-.152742.344193-.112238.265723-.233997.501613-.286749.748353-3.656676,8.917377-.148294,16.927327,6.728332,23.862626.390465.400755.801484.762279,1.221784,1.153514,7.830976,7.353145,19.358918,13.42812,29.966693,17.95748-9.603519-1.073308-14.4504,5.760651-15.278646,7.075872-.090776.127585-.131279.206055-.131279.206055-.081255.157419-.152866.344433-.204345.49215-4.05501,9.110035-.714418,17.107985,6.094109,23.933525.35135.380565.762129.741966,1.182669,1.133324,5.905037,5.537581,14.096704,10.213978,22.339289,14.020445-6.293971.858958-9.735663,4.584639-11.452972,7.332905-.181428.25493-.332839.500282-.45478.736229-.708909,1.277139-1.007599,2.193464-1.007599,2.193464-2.420935,10.52605,3.961557,18.177264,14.002371,23.708758.432605.223146.835195.45587,1.267618.679074,21.073806,10.877661,56.524891,13.19338,63.397142,13.529125.405375.034801.702081.038736.899888.041157.168031.012124.267054.013397.267054.013397,0,0,27.166341-45.154763,19.682418-70.253926-.131899-.51634-.284053-.993144-.475562-1.490261l-.009521-.029834c-1.816061-4.970503-5.117888-9.039937-10.486514-11.661691Z" fill="#5e9c1c"></path>
    <path d="m280.384829,504.567928c-2.546675-.468145-5.056781-.718052-7.460764-.739046-.181428.25493-.332839.500282-.45478.736229,2.512527.052101,5.121474.303339,7.767115.772575,11.025771,2.03156,19.612639,7.534343,21.419799,13.197406.361432,1.132613.45581,2.251829.253539,3.367292-.925438,5.024343-7.625224,8.213251-16.44568,8.564949.432605.223146.835195.45587,1.267618.679074,2.634286-.183788,5.054327-.627532,7.170381-1.302794,4.82843-1.540817,8.138189-4.239025,8.777439-7.792801,1.328889-7.156305-8.692263-14.992941-22.294667-17.482885Z" fill="#fafafa"></path>
    <path d="m264.861077,459.11166c-3.368655-1.191011-6.673145-1.975557-9.764482-2.401182-.090776.127585-.131279.206055-.131279.206055-.081255.157419-.152866.344433-.204345.49215,3.091519.425567,6.465199,1.220906,9.833671,2.411975,12.656953,4.466743,21.317734,12.671546,19.335972,18.295755-.954592,2.669235-4.182384,4.388787-9.125506,4.849743-4.091018.353-8.961818-.194294-13.950028-1.623949.35135.380565.762129.741966,1.182669,1.133324,4.605695,1.157451,9.013146,1.590027,12.846449,1.253523,1.594871-.147749,3.052875-.415983,4.304643-.815439,2.861366-.913101,4.761283-2.471689,5.480424-4.54023,2.115827-6.028187-6.757017-14.690877-19.808188-19.261726Z" fill="#fafafa"></path>
    <path d="m244.119699,408.522624c-3.880879-1.355877-7.7478-2.256596-11.374518-2.609991-.112238.265723-.233997.501613-.286749.748353,3.596884.362916,7.523473,1.244593,11.404534,2.600412,10.105601,3.57315,17.647846,9.507702,19.28381,14.634294.408977,1.281602.442595,2.518825.05198,3.661519-1.829079,5.279834-12.352207,6.470329-24.011992,2.9664.390465.400755.801484.762279,1.221784,1.153514,7.070148,1.88174,13.627801,2.055099,18.038915.647453,2.801697-.894059,4.750614-2.40274,5.490068-4.510635,2.115645-6.028129-6.757017-14.690877-19.817832-19.29132Z" fill="#fafafa"></path>
    <path d="m221.488575,361.787797c-3.693865-1.284266-7.392755-2.172861-10.860963-2.543966.055792.277848.141361.545993.226988.81432,3.309516.388874,6.831036,1.235452,10.377061,2.468479,10.096262,3.543257,17.638507,9.47781,19.274472,14.604401.418497,1.311437.452115,2.548659.0615,3.691354-.965444,2.738242-4.311242,4.397035-8.976574,4.802016.264451.211262.528843.422342.832649.653917,1.228851-.162236,2.369835-.39505,3.383111-.7184,2.801697-.894059,4.750432-2.402681,5.499407-4.480743,2.106307-6.058022-6.757017-14.690877-19.81765-19.291378Z" fill="#fafafa"></path>
    <path d="m254.393967,355.096638c-1.194234,2.844125-2.917873,4.543695-4.981357,4.972274-5.782838,1.122789-12.468927-8.303268-15.123722-21.150671-.30502-.13237-.600396-.235146-.886492-.308211,2.656687,13.470774,9.909701,23.43851,16.158674,22.232516.218179-.036751.436176-.073445.644834-.14003,1.967246-.627775,3.591861-2.328618,4.763178-4.935522-.204724-.230121-.370151-.44011-.575115-.670355Z" fill="#fafafa"></path>
    <path d="m295.455831,370.465999c.650634,1.729844,1.230806,3.547919,1.751368,5.385216,3.876702,14.000677,2.338473,26.675401-3.430532,28.253589-5.759244,1.608146-13.57487-8.475704-17.451449-22.476621-1.786259-6.523415-2.485433-12.93412-1.893577-18.180336-.288699.1248-.567637.279558-.876592.443894-.462998,5.237968.24697,11.579484,2.015518,17.944389.226988.81432.453976,1.628639.701219,2.403422,4.194492,13.144202,11.914228,22.207736,17.713009,20.619846l.208658-.066586c6.02053-1.921232,7.721204-14.910373,3.768395-29.149543-.322135-1.112481-.634692-2.194945-.967562-3.238055-.515629-.689338-1.012216-1.319007-1.538456-1.939214Z" fill="#fafafa"></path>
    <path d="m328.44075,457.673076c-2.783895-.491062-4.939986-3.645293-6.060883-8.804759-1.198458-5.298878-1.121577-12.05585.135519-19.025083.808175-4.362947,2.008145-8.423981,3.528301-11.996087-.257476.016619-.544844.042578-.861864.077998-1.499842,3.532751-2.649606,7.545091-3.436194,11.76966-1.288203,7.077777-1.336639,13.923888-.139453,19.32179.167319.833361.384787,1.617846.622568,2.362976,1.312557,4.113134,3.417881,6.593845,6.063579,7.063263.908136.170015,1.769818.092075,2.693773-.202772,5.156426-1.645485,10.481533-10.274071,13.100986-21.618937-.109105-.75332-.22888-1.437691-.388133-2.142136-2.721578,13.906028-9.473676,24.237936-15.258197,23.194086Z" fill="#fafafa"></path>
    <path d="m369.459825,477.128066c-4.202318,14.411425-12.812406,24.580978-19.150639,22.728453-6.338233-1.852525-8.088056-15.054261-3.876275-29.436033.97289-3.331721,2.170877-6.472495,3.552124-9.245009-.327814.10461-.685462.21874-1.003755.353184-1.26082,2.635467-2.366881,5.549871-3.277623,8.664927-2.701053,9.2362-2.952471,18.019012-1.107287,23.801231,1.112858,3.487341,2.961797,5.885706,5.495257,6.620847,1.271552.382368,2.598096.320246,3.969201-.117292,5.990695-1.911712,12.619174-11.087711,16.158144-23.152747.27965-.975994.538986-1.912634.759207-2.869464-.131899-.51634-.284053-.993144-.475562-1.490261-.284915,1.371543-.638779,2.732416-1.042791,4.142165Z" fill="#fafafa"></path>
    <path d="m351.028707,544.716691c-.197807-.002422-.494514-.006356-.899888-.041157-26.782008-56.346127-65.750419-129.886878-105.679353-175.666601-13.016691-14.959325-22.952777-23.249847-29.484319-27.766493.209807-.165369.449573-.340499.698858-.485794,6.541062,4.54648,16.359324,12.776185,29.259281,27.575727,22.543028,25.876504,59.054873,77.311328,106.105421,176.384319Z" fill="#fafafa"></path>
  </g>
  <g id="_29NnQ7.tif" data-name="29NnQ7.tif">
    <g>
      <path d="m840.173517,317.924225c2.383767.854061,4.753294,1.750623,7.153823,2.554638,9.143416,3.062434,18.48461,5.385552,27.95142,7.168118,6.635272,1.249393,13.313021,2.27699,19.980359,3.35054,2.940534.473473,5.899679.836163,8.856412,1.200278.644288.079344.740926.359373.783347.929468.198675,2.670753.461857,5.33663.685493,8.005635.090331,1.077924.160436,2.158548.201264,3.239393.077341,2.047128.145809,4.094942.184491,6.14311.129257,6.844978.305449,13.689935.338644,20.535505.017482,3.608833-.179732,7.221178-.362163,10.827787-.171588,3.39215-.423771,6.781009-.69213,10.167223-.202016,2.548916-.466569,5.093395-.739265,7.636005-.195599,1.823779-.450636,3.641185-.679163,5.461446-.741501,4.18202-1.40586,8.379486-2.240103,12.542918-1.902591,9.495013-4.620351,18.764764-8.708211,27.548837-3.492897,7.505687-7.717847,14.611512-12.601613,21.334836-6.892057,9.488043-14.673957,18.168995-23.02546,26.375853-4.48261,4.404971-9.169648,8.565305-13.919024,12.679301-5.417674,4.692848-11.053807,9.091601-16.805697,13.34355-4.29604,3.175745-8.7746,6.104131-13.154045,9.168168-.497218.347825-.833049.168646-1.218018-.095819-2.862408-1.966124-5.770357-3.869844-8.575396-5.914704-4.707221-3.431578-9.403964-6.882342-13.999317-10.46088-3.285881-2.558829-6.378586-5.364221-9.592836-8.01679-7.869766-6.494486-14.942907-13.817153-21.912008-21.232231-2.805022-2.984505-5.282329-6.286274-7.804126-9.525141-2.539492-3.261616-4.949037-6.624406-7.415528-9.942872-1.740552-2.784911-3.549821-5.529659-5.206039-8.36384-2.695525-4.612674-4.950669-9.44447-6.981976-14.388261-2.241201-5.454608-3.829862-11.104151-5.269871-16.805067-.103052-.407983-.231409-.809559-.347997-1.214123-1.871898-7.294387-2.80989-14.756313-3.917389-22.184315-.466765-3.13059-.693381-6.299552-.956247-9.457139-.192143-2.308074-.214131-4.630173-.400245-6.938905-.740468-9.185455-.547548-18.387938-.498773-27.585531.018039-3.401433.30971-6.801611.484071-10.201977.125018-2.438066.254635-4.875963.396912-7.313078.11058-1.894188.213-3.790169.403494-5.676826.025775-.255273.526401-.631896.837262-.664401,8.380692-.876349,16.70508-2.149286,24.971226-3.753402,6.576201-1.276163,13.164106-2.573724,19.637946-4.275861,8.963356-2.356693,17.79224-5.207362,26.291339-8.956024,3.532199-1.557936,7.102981-3.100102,10.422896-5.047271,3.263442-1.914046,6.252981-4.302626,9.311551-6.552541.673299-.495286,1.086482-.503213,1.722174-.010903,2.14412,1.660529,4.302547,3.305344,6.505441,4.88659,3.75483,2.695226,8.015906,4.449766,12.183421,6.357201,2.521277,1.153968,5.143042,2.088416,7.719653,3.1215Zm-99.935524,93.014748c.318631,1.626332.630129,3.254092.95715,4.878732,1.292538,6.421328,2.823556,12.785087,5.300586,18.863481,1.408187,3.455589,3.082275,6.802811,4.6366,10.198806.150743.29508.286605.598924.454404.883968,4.932191,8.378833,10.731256,16.133626,17.168186,23.397086,5.271751,5.948673,11.032034,11.422123,17.044899,16.623275,2.602081,2.250815,5.1372,4.590279,7.852372,6.696569,4.387268,3.403496,8.883012,6.668332,13.36466,9.94837,1.679597,1.229248,3.432719,2.36115,5.189801,3.47847.310062.19717.906783.279689,1.197836.112858,1.307242-.749335,2.589467-1.555697,3.81221-2.436589,3.72189-2.681403,7.42591-5.3881,11.111409-8.11936,5.2928-3.922402,10.340421-8.142175,15.145307-12.649759,8.536071-8.007918,16.607829-16.415752,23.452983-25.973126,3.941023-5.50254,7.440028-11.232291,10.188891-17.392009,2.543494-5.699467,4.778375-11.530192,6.055588-17.679045.64982-3.128388,1.366946-6.242813,2.053644-9.363545.217838-1.520456.451035-3.038898.649942-4.561822.307682-2.355995.638036-4.71044.873334-7.074059.241129-2.422172.399606-4.853239.558316-7.282758.254705-3.898668.62862-7.797231.682194-11.69954.078248-5.699754-.029876-11.403978-.159531-17.104004-.088937-3.908145-.33477-7.813159-.541677-11.717918-.068224-1.287702-.207903-2.573789-.381141-3.851638-.028956-.21354-.375221-.505019-.613285-.548087-.974155-.176219-1.964553-.260332-2.94652-.396066-4.295055-.593695-8.607604-1.086841-12.878738-1.820602-4.456498-.765616-8.895105-1.668454-13.301747-2.683935-7.706785-1.775974-15.341993-3.822711-22.705279-6.764066-2.073794-.828399-4.138238-1.680178-6.206975-2.521229-2.310675-1.181654-4.696411-2.23905-6.912406-3.577467-2.577308-1.556656-5.065424-3.281045-7.464969-5.100489-.779076-.590727-1.129269-.657068-1.831038-.039406-.994425.875255-2.053567,1.693091-3.15907,2.423406-6.847921,4.523818-14.309526,7.805385-22.032973,10.451092-4.733526,1.621498-9.590334,2.914747-14.446754,4.136975-4.825771,1.214505-9.690391,2.330094-14.592436,3.171951-6.005108,1.031288-12.065972,1.739104-18.105192,2.568873-.682558.093789-1.073022.299523-1.125103,1.09009-.249751,3.791126-.604311,7.575808-.820943,11.368522-.154632,2.707233-.230933,5.424485-.20043,8.135674.081793,7.270128.159328,14.542065.401015,21.807877.123168,3.702859.520056,7.402576.933694,11.087942.339281,3.022932.886268,6.022551,1.341187,9.032504Z" fill="#d2e7b4"></path>
      <path d="m823.511305,423.270449c.365373,1.971303.744677,3.940138,1.092569,5.914517.430676,2.444102.818268,4.895838,1.257287,7.338379.27928,1.553827.618176,3.096943.930219,4.644971-.018013.058697-.035915.117273-.053818.17586-5.130694.007867-10.261388.014617-15.392092.023979-3.863151.007049-7.726313.01932-11.589464.025162-1.126636.001693-1.190202-.113268-.992445-1.19611.875614-4.79462,1.732164-9.592735,2.595607-14.389557.419611-2.250594.833746-4.50225,1.260527-6.751494.364167-1.919333.704512-3.844563,1.135133-5.749169.158577-.701381.032928-1.091594-.576341-1.49753-2.290969-1.526375-4.47564-3.163042-6.037256-5.518715-1.709804-2.579199-2.587499-5.410051-3.012289-8.444944-1.33278-9.522154,5.328161-17.960632,13.759738-20.386085,1.917109-.551468,3.894497-.514668,5.896482-.48148,2.302929.038183,4.420937.57769,6.479705,1.465426,5.858486,2.526167,9.681806,6.84579,10.964397,13.133199,1.216259,5.962127.0531,11.423994-3.959001,16.185144-1.269623,1.506659-2.746705,2.707095-4.368435,3.76273-1.024366.666783-1.464856,1.349077-1.13521,2.727166.684608,2.861954,1.068492,5.795783,1.582441,8.698919.019938.112593.106651.213358.16225.319632Z" fill="#d2e7b4"></path>
      <path d="m826.737562,441.344176c.017902-.058587.035805-.117162.053818-.17586-.017858.058542-.035827.117207-.053818.17586Z" fill="#d2e7b4"></path>
    </g>
  </g>
  <polygon points="714.651727 163.469854 622.570245 200.48377 637.43908 73.057501 550.457452 176.916631 463.475702 73.057501 478.344659 200.48377 386.263055 163.469854 432.953607 245.228887 392.09942 234.890508 419.779107 269.513799 681.135736 269.513799 708.815545 234.890508 667.961297 245.228887 714.651727 163.469854" fill="#d2e7b4"></polygon>
  <path d="m312.290732,269.73178h457.662178c4.645377,0,8.416834,3.771457,8.416834,8.416834v276.458814h-474.495846v-276.458814c0-4.645377,3.771457-8.416834,8.416834-8.416834Z" fill="#6faf2f" stroke="#233212" stroke-miterlimit="10" stroke-width="2.325235"></path>
  <rect x="407.105428" y="200.190397" width="268.031133" height="440.802928" transform="translate(961.712855 -120.529134) rotate(90)" fill="#d2e7b4"></rect>
  <path d="m287.056427,554.607428h508.130788v11.240679c0,7.908695-6.420857,14.329551-14.329551,14.329551h-479.471686c-7.908695,0-14.329551-6.420857-14.329551-14.329551v-11.240679h0Z" fill="#bcdc90" stroke="#233212" stroke-miterlimit="10" stroke-width="2.325235"></path>
  <path d="m579.27163,554.825408v2.933686c0,5.140431-4.167143,9.307574-9.307574,9.307574h-57.684468c-5.140431,0-9.307574-4.167143-9.307574-9.307574v-2.933686" fill="none" stroke="#233212" stroke-miterlimit="10" stroke-width="2.016213"></path>
  <path d="m399.623831,313.276271h282.995981c5.92498,0,10.735312,4.810332,10.735312,10.735312v229.380324h-304.466606v-229.380324c0-5.92498,4.810332-10.735312,10.735312-10.735312Z" fill="#fff"></path>
  <rect x="456.093296" y="342.057893" width="47.970568" height="9.602318" fill="#d2e7b4"></rect>
  <rect x="514.984037" y="342.057893" width="47.970568" height="9.602318" fill="#d2e7b4"></rect>
  <rect x="573.773527" y="342.057893" width="47.970568" height="9.602318" fill="#d2e7b4"></rect>
  <rect x="632.664269" y="342.057893" width="47.970568" height="9.602318" fill="#d2e7b4"></rect>
  <path d="m683.656481,322.683738l-63.367393,36.098581c-3.581533,2.039633-8.134548.79339-10.174181-2.788143l-36.108591-63.36745c-2.039689-3.571768-.783381-8.13449,2.788143-10.174181l51.568848-29.386082,11.948959-6.801485,14.815795,11.304542.02967.020189,31.286894,54.919848c2.039689,3.571768.79339,8.134548-2.788143,10.174181Z" fill="#233212"></path>
  <path d="m640.312265,246.264978l-.218416,2.126385.196151,2.979665,1.43789,4.411957,6.206115,4.195675,7.194055-2.409141-14.815795-11.304542Z" fill="#5e9c1c"></path>
  <path d="m823.666637,184.751277l-20.233851-18.655924-10.406838-9.329618-11.770223-7.00729-13.047847-3.884654-45.878503-5.672317-14.005968-2.499968-33.967254-9.334318-5.697858-.382651-6.834355,2.481509-4.095444-.783661-5.608473-.302061-17.619049,10.319446-38.194339,11.132105-5.52637,2.848361-22.694718,32.270792-17.511092,15.910486-11.350533,8.805424-1.803277,7.569413,5.983292,4.694411,5.814376,1.01321,3.526514,4.130075,3.872062,3.132521,5.99452-.775829,6.81265-5.691158,7.887118-11.715392,4.226646-8.165931,26.085145-14.831218,10.884447-.767916.756105,37.484911.515466,4.303308,5.667794,10.902671,2.916528,11.116451,11.948959-6.801485,14.815795,11.304542,1.853421-.619306,31.640087-13.919589,14.647371-9.986318,25.160622-10.56641,6.862041-2.071188,8.161864-3.823069,11.243809-7.645859,43.914392,51.911364,40.086173-62.241761-15.031203-13.856107Zm-133.572587,21.087445l-20.565468,11.402243-19.635956,11.478354-6.319455,6.883936.004284-.749988-1.761414-10.230443-1.21611-4.226742,2.38366-4.116334,1.536991-6.471306,2.372005-17.847093,9.640693-1.864882,8.474603,1.008386,7.881451,5.005063,12.37428,4.520954,8.091512,1.526226-3.261074,3.681627Z" fill="#5e9c1c"></path>
  <rect x="523.313157" y="379.953861" width="158.825424" height="57.403202" rx="4.437084" ry="4.437084" fill="#fff" stroke="#d2e7b4" stroke-miterlimit="10" stroke-width="1.571201"></rect>
  <rect x="496.482275" y="444.353392" width="183.216035" height="57.403202" rx="4.437084" ry="4.437084" fill="#fff" stroke="#d2e7b4" stroke-miterlimit="10" stroke-width="1.571201"></rect>
  <rect x="407.518686" y="379.953861" width="110.462693" height="57.403202" rx="4.437084" ry="4.437084" fill="#fff" stroke="#d2e7b4" stroke-miterlimit="10" stroke-width="1.571201"></rect>
  <rect x="407.518686" y="444.353392" width="79.988926" height="57.403202" rx="4.437084" ry="4.437084" fill="#fff" stroke="#d2e7b4" stroke-miterlimit="10" stroke-width="1.571201"></rect>
  <g>
    <path d="m424.669261,367.01315c-.013166,0-.025601,0-.038767-.000366-11.091858-.02048-20.126487-9.0573-20.139654-20.14477-.006584-5.380985,2.093071-10.446345,5.912389-14.263469,3.80798-3.805055,8.855785-5.899591,14.216655-5.899592.013166,0,.025601,0,.038767.000366,11.091493.020845,20.126121,9.057666,20.139654,20.14477.006949,5.380619-2.093071,10.44598-5.912389,14.262738-3.80798,3.805421-8.855785,5.899957-14.216655,5.900323Zm-.049378-39.459338c-5.134483,0-9.968702,2.00603-13.616492,5.651261-3.658762,3.656203-5.670276,8.508343-5.664058,13.662209.013167,10.620798,8.667437,19.27726,19.292624,19.297008h.037304c5.134483,0,9.968702-2.006396,13.616858-5.651627,3.658396-3.656569,5.669911-8.508343,5.663693-13.661844-.013533-10.620433-8.667802-19.276894-19.292624-19.297008h-.037304Z" fill="#d2e7b4"></path>
    <g>
      <path d="m413.776199,338.54479c.566323-.046793,1.047159-.084719,1.527595-.127166.174743-.015438.351646-.027684.522153-.065671.446164-.0994.682873-.412003.62944-.809479-.052844-.393096-.325096-.63578-.77178-.620041-.761278.026824-1.520954.110492-2.282169.125116-1.156231.022209-2.313202.005809-3.54321.005809,2.563948-3.747461,5.984044-6.287164,10.380111-7.364615,6.078642-1.489841,11.497422-.059305,16.298181,3.971373-.071632.0516-.100814.090993-.130592.09145-2.096036.032203-3.534805,2.173949-2.778544,4.339604.300577.860728.772951,1.669525,1.230871,2.465277.622689,1.082085,1.208378,2.171463,1.522779,3.390737.392174,1.520872.283949,3.031714-.14474,4.513269-.858036,2.965362-1.762142,5.917394-2.64928,8.874317-.015949.053157-.05747.098643-.113116.190913-2.128727-6.332018-4.243894-12.623689-6.37923-18.975361.522012-.045423,1.008773-.084299,1.494707-.131639.217967-.021236.440132-.037789.650081-.094583.391353-.105863.574562-.397863.518455-.797766-.05513-.392942-.300736-.612055-.686889-.601718-.746665.01999-1.49249.111185-2.238482.109046-2.123248-.00609-4.246425-.042892-6.369579-.071345-.307372-.004119-.614928-.047052-.921578-.039347-.401418.010086-.659543.266521-.699539.651521-.040093.385929.158291.693005.562782.758322.533771.086194,1.07948.099127,1.612645.188017.160704.026795.378873.170891.431843.313011.873741,2.344287,1.727639,4.695999,2.575737,7.04974.049227.136624.052901.318609.007387.456201-1.22707,3.70935-2.463259,7.415686-3.699057,11.122144-.017133.051388-.048876.097905-.118405.234015-2.157028-6.415944-4.287265-12.752199-6.438579-19.15115Z" fill="#d2e7b4"></path>
      <path d="m430.50225,363.604604c-3.596981,1.218688-7.195539,1.320048-10.868077.272051,1.768666-5.139966,3.527541-10.25148,5.320458-15.461927,1.86707,5.112201,3.700309,10.131777,5.547619,15.189875Z" fill="#d2e7b4"></path>
      <path d="m408.457535,339.69602c2.81086,7.701687,5.605892,15.360005,8.419795,23.070029-8.704303-4.098912-12.294585-14.76144-8.419795-23.070029Z" fill="#d2e7b4"></path>
      <path d="m433.594065,362.132094c.345757-1.007359.674198-1.972195,1.007922-2.935205,1.647524-4.75414,3.313002-9.502147,4.937162-14.264248.702884-2.060876.941545-4.192119.700838-6.371273,1.473269,1.472198,2.499133,7.557643,1.975361,10.898674-.967203,6.169509-4.912796,10.629385-8.621282,12.672053Z" fill="#d2e7b4"></path>
    </g>
  </g>
  <path d="m705.865797,166.473951c-6.349265,6.277139-6.42303,19.190507-8.282742,29.223942-1.859711,10.033435-23.271695,18.807289-38.241347,27.043997-14.969652,8.236708-17.027575,16.834146-17.027575,16.834146-7.272447,17.176843,5.622889,20.407209,5.622889,20.407209,0,0,38.201268-11.547679,55.66879-27.231419,0,0,24.03982-10.767654,30.935146-12.163132s20.15467-11.650767,20.15467-11.650767l44.529743,52.634178,39.469105-62.961818-42.133925-38.851662c-8.35939-7.708188-18.890895-12.653355-30.161132-14.162441l-55.491984-7.430387c-1.409091-.188678-2.803647-.47339-4.173931-.852149l-32.373384-8.948305c-5.537655-1.530659-11.452995.411781-15.005239,4.927321l-38.537075,48.987549c-1.564281,1.988483-2.382591,4.45351-2.312261,6.982559.296065,10.646431.678078,35.195449.800182,39.286194.141433,4.738299,6.324918,13.665074,6.324918,13.665074l5.336218,20.762913s4.135404.478947,4.164513-4.616948-.421764-12.64449-9.500731-16.145965" fill="none" stroke="#233212" stroke-miterlimit="10" stroke-width="2.325235"></path>
  <path d="m696.389119,198.783637s-12.404692-19.807863-12.358793-27.842848" fill="none" stroke="#233212" stroke-miterlimit="10" stroke-width="2.325235"></path>
  <path d="m693.77793,202.158463s-15.941044-1.981797-24.799217-8.632779c-8.858173-6.650982-22.088011-1.561039-22.088011-1.561039" fill="none" stroke="#233212" stroke-miterlimit="10" stroke-width="2.325235"></path>
  <path d="m668.045701,161.913613s1.459658,9.949803-3.107965,13.1252c-4.567623,3.175397-18.03605,15.002738-18.03605,15.002738l-4.44294-2.999188" fill="none" stroke="#233212" stroke-miterlimit="10" stroke-width="2.325235"></path>
  <path d="m646.901687,190.041551s-2.08124,27.344196-6.6479,30.3511l-4.219887-.024105" fill="none" stroke="#233212" stroke-miterlimit="10" stroke-width="2.325235"></path>
  <path d="m640.253787,220.39265s3.838443,8.356427,3.19266,16.570194" fill="none" stroke="#233212" stroke-miterlimit="10" stroke-width="2.325235"></path>
  <path d="m641.918069,255.55485s-3.753365,4.760226-7.293662,5.077001" fill="none" stroke="#233212" stroke-miterlimit="10" stroke-width="1.602917"></path>
  <path d="m662.234677,130.541255l-4.878315-.934583c-2.755361-.527869-5.608662-.035969-8.028214,1.384039l-14.832062,8.704772-40.75752,12.394093c-1.860183.56567-3.473133,1.746272-4.574656,3.348431l-30.355052,44.151265-9.890688,22.471935s5.180682,13.296338,14.723833,7.843901c9.543151-5.452437,19.436437-28.378998,19.436437-28.378998,0,0,20.716962-14.696289,24.974407-24.434291,0,0,16.566426-2.562179,21.928237-6.459779" fill="none" stroke="#233212" stroke-miterlimit="10" stroke-width="2.325235"></path>
  <polyline points="581.542157 204.862734 607.980143 189.819219 618.505547 189.262773" fill="none" stroke="#233212" stroke-miterlimit="10" stroke-width="2.325235"></polyline>
  <path d="m568.364066,185.691274l-15.315146,14.36573-12.181619,8.869014c-1.375448,1.001416-2.303116,2.502484-2.583621,4.18058l-.858219,5.134222s5.863376,7.141768,12.333183,5.592107" fill="none" stroke="#233212" stroke-miterlimit="10" stroke-width="2.325235"></path>
  <path d="m642.314134,239.576036l15.756259-8.53524s9.340998,10.857395,8.575495,18.775981l-10.668849,7.490164" fill="none" stroke="#233212" stroke-miterlimit="10" stroke-width="2.325235"></path>
  <path d="m550.438786,225.023169l10.616221-19.128782s-.367027-3.446809-2.723802-5.219871" fill="none" stroke="#233212" stroke-miterlimit="10" stroke-width="2.325235"></path>
  <path d="m655.159233,257.593829l31.286336,54.911537c2.040157,3.580737.79127,8.137372-2.789468,10.177529l-63.365506,36.10306c-3.580737,2.040157-8.137372.79127-10.177529-2.789468l-36.10306-63.365506c-2.040157-3.580737-.79127-8.137372,2.789468-10.177529l63.514436-36.187914" fill="none" stroke="#233212" stroke-miterlimit="10" stroke-width="1.602917"></path>
  <g>
    <path d="m619.012653,304.413341l-8.815961.505694.154463,2.688465,10.175769-.583598,3.124897,5.387234-9.027173,5.236265,1.351592,2.330107,9.027173-5.236265,1.733212,2.988009c.452731.780495.984988,1.484448,1.569166,2.125213l-5.736851,8.816154,2.25768,1.470002,5.524186-8.489421c3.392165,2.364809,7.846959,2.93518,11.810841,1.276442l-15.77314-27.192449-9.285441,5.386075,1.909586,3.292072Z" fill="#d2e7b4"></path>
    <path d="m646.35296,302.357313l8.261184-4.791949-1.351592-2.330107-8.261184,4.791949-3.349612-5.774637,5.017436-7.71156-2.25702-1.468864-4.274687,6.569863-1.684871-2.904669-9.285441,5.386075,15.77314,27.192449c3.300619-2.52923,5.017498-6.49971,4.790049-10.487733l9.311739-.534399-.155123-2.689603-9.615792.551868c-.275075-.961474-.660513-1.906448-1.185014-2.810673l-1.733212-2.988009Z" fill="#d2e7b4"></path>
    <path d="m633.869179,287.962563c-1.056499-1.240734-2.401171-2.144008-3.874298-2.669419.113209-1.623101-.239702-3.295143-1.115795-4.805503-1.396799-2.408042-3.888114-3.967566-6.663895-4.170725l-.196313,2.686659c1.886539.138115,3.580423,1.198439,4.530102,2.835658.536545.924989.778615,1.938679.766631,2.937416-1.686026-.074238-3.41185.30949-4.980377,1.219323-1.571656.911648-2.763113,2.220868-3.536874,3.722299-.872779-.485904-1.632689-1.199599-2.169399-2.124872-.949348-1.63665-1.030476-3.632463-.216992-5.339023l-2.431701-1.159223c-1.196243,2.509436-1.076893,5.444071.318587,7.849838.876258,1.510644,2.152639,2.647783,3.617628,3.35544-.275471,1.539316-.158878,3.154565.393434,4.687375l15.559265-9.025244Z" fill="#d2e7b4"></path>
  </g>
</svg>
